SkeenaIndigenous-Italic.ufo
<glyph name="exclam" format="2">
  <advance width="538"/>
  <unicode hex="0021"/>
  <outline>
    <contour>
      <point x="191" y="368" type="line"/>
      <point x="379" y="1300" type="line"/>
      <point x="591" y="1331" type="line"/>
      <point x="307" y="368" type="line"/>
    </contour>
    <contour>
      <point x="177" y="-22" type="curve" smooth="yes"/>
      <point x="111" y="-22"/>
      <point x="69" y="19"/>
      <point x="69" y="83" type="curve" smooth="yes"/>
      <point x="69" y="159"/>
      <point x="130" y="218"/>
      <point x="209" y="218" type="curve" smooth="yes"/>
      <point x="275" y="218"/>
      <point x="317" y="176"/>
      <point x="317" y="112" type="curve" smooth="yes"/>
      <point x="317" y="36"/>
      <point x="256" y="-22"/>
    </contour>
  </outline>
  <guideline angle="8.96731" x="0" y="1253.78"/>
</glyph>
<glyph name="numbersign" format="2">
  <advance width="1042"/>
  <unicode hex="0023"/>
  <outline>
    <contour>
      <point x="139" y="0" type="line"/>
      <point x="279" y="0" type="line"/>
      <point x="554" y="1106" type="line"/>
      <point x="415" y="1106" type="line"/>
    </contour>
    <contour>
      <point x="524" y="0" type="line"/>
      <point x="664" y="0" type="line"/>
      <point x="939" y="1106" type="line"/>
      <point x="800" y="1106" type="line"/>
    </contour>
    <contour>
      <point x="42" y="304" type="line"/>
      <point x="914" y="304" type="line"/>
      <point x="942" y="421" type="line"/>
      <point x="71" y="421" type="line"/>
    </contour>
    <contour>
      <point x="136" y="686" type="line"/>
      <point x="1007" y="686" type="line"/>
      <point x="1036" y="803" type="line"/>
      <point x="164" y="803" type="line"/>
    </contour>
  </outline>
  <guideline angle="0" x="0" y="553"/>
  <guideline angle="76.0015" x="-37.5767" y="0"/>
</glyph>
<glyph name="dollar" format="2">
  <advance width="960"/>
  <unicode hex="0024"/>
  <outline>
    <contour>
      <point x="42" y="140" type="curve"/>
      <point x="26" y="275" type="line"/>
      <point x="33" y="281" type="line"/>
      <point x="132" y="193"/>
      <point x="249" y="148"/>
      <point x="379" y="148" type="curve" smooth="yes"/>
      <point x="562" y="148"/>
      <point x="678" y="241"/>
      <point x="678" y="387" type="curve" smooth="yes"/>
      <point x="678" y="481"/>
      <point x="629" y="531"/>
      <point x="546" y="580" type="curve"/>
      <point x="588" y="749" type="line"/>
      <point x="595" y="745"/>
      <point x="601" y="742"/>
      <point x="608" y="738" type="curve" smooth="yes"/>
      <point x="745" y="663"/>
      <point x="856" y="587"/>
      <point x="856" y="411" type="curve" smooth="yes"/>
      <point x="856" y="180"/>
      <point x="670" y="20"/>
      <point x="401" y="20" type="curve" smooth="yes"/>
      <point x="257" y="20"/>
      <point x="119" y="67"/>
    </contour>
    <contour>
      <point x="949" y="1092" type="line"/>
      <point x="879" y="1142"/>
      <point x="774" y="1173"/>
      <point x="672" y="1173" type="curve" smooth="yes"/>
      <point x="501" y="1173"/>
      <point x="388" y="1088"/>
      <point x="388" y="959" type="curve" smooth="yes"/>
      <point x="388" y="872"/>
      <point x="439" y="823"/>
      <point x="526" y="774" type="curve"/>
      <point x="484" y="605" type="line"/>
      <point x="478" y="608"/>
      <point x="473" y="610"/>
      <point x="466" y="614" type="curve" smooth="yes"/>
      <point x="351" y="672"/>
      <point x="211" y="757"/>
      <point x="211" y="933" type="curve" smooth="yes"/>
      <point x="211" y="1144"/>
      <point x="408" y="1299"/>
      <point x="674" y="1299" type="curve" smooth="yes"/>
      <point x="788" y="1299"/>
      <point x="901" y="1269"/>
      <point x="985" y="1215" type="curve"/>
    </contour>
    <contour>
      <point x="273" y="-122" type="line"/>
      <point x="658" y="1421" type="line"/>
      <point x="785" y="1421" type="line"/>
      <point x="406" y="-103" type="line"/>
    </contour>
  </outline>
  <guideline angle="97.5421" x="49.4912" y="0"/>
  <guideline angle="256.035" x="687" y="1421"/>
</glyph>
<glyph name="ampersand" format="2">
  <advance width="1158"/>
  <unicode hex="0026"/>
  <anchor x="442" y="0" name="bottom"/>
  <anchor x="717" y="1314" name="top"/>
  <anchor x="1161" y="938" name="topright"/>
  <outline>
    <contour>
      <point x="1131" y="619" type="line"/>
      <point x="1180" y="746" type="line"/>
      <point x="708" y="746" type="line" smooth="yes"/>
      <point x="516" y="746"/>
      <point x="425" y="824"/>
      <point x="425" y="956" type="curve" smooth="yes"/>
      <point x="425" y="1108"/>
      <point x="550" y="1209"/>
      <point x="738" y="1209" type="curve" smooth="yes"/>
      <point x="821" y="1209"/>
      <point x="902" y="1188"/>
      <point x="957" y="1152" type="curve"/>
      <point x="993" y="1279" type="line"/>
      <point x="921" y="1318"/>
      <point x="833" y="1338"/>
      <point x="732" y="1338" type="curve" smooth="yes"/>
      <point x="447" y="1338"/>
      <point x="249" y="1184"/>
      <point x="249" y="962" type="curve" smooth="yes"/>
      <point x="249" y="841"/>
      <point x="308" y="747"/>
      <point x="412" y="701" type="curve"/>
      <point x="411" y="694" type="line"/>
      <point x="194" y="650"/>
      <point x="49" y="499"/>
      <point x="49" y="314" type="curve" smooth="yes"/>
      <point x="49" y="110"/>
      <point x="208" y="-24"/>
      <point x="455" y="-24" type="curve" smooth="yes"/>
      <point x="769" y="-24"/>
      <point x="979" y="169"/>
      <point x="979" y="476" type="curve" smooth="yes"/>
      <point x="979" y="530"/>
      <point x="973" y="575"/>
      <point x="954" y="649" type="curve"/>
      <point x="795" y="649" type="line"/>
      <point x="807" y="596"/>
      <point x="814" y="538"/>
      <point x="814" y="484" type="curve" smooth="yes"/>
      <point x="814" y="246"/>
      <point x="688" y="101"/>
      <point x="480" y="101" type="curve" smooth="yes"/>
      <point x="326" y="101"/>
      <point x="236" y="185"/>
      <point x="236" y="328" type="curve" smooth="yes"/>
      <point x="236" y="511"/>
      <point x="385" y="619"/>
      <point x="637" y="619" type="curve" smooth="yes"/>
    </contour>
  </outline>
  <guideline angle="76.0015" x="729.537" y="0"/>
  <guideline angle="76.0015" x="-39.4097" y="0"/>
  <guideline angle="76.0015" x="994.407" y="0"/>
</glyph>
<glyph name="quotesingle" format="2">
  <advance width="302"/>
  <unicode hex="0027"/>
  <outline>
    <contour>
      <point x="189" y="855" type="line"/>
      <point x="284" y="855" type="line"/>
      <point x="444" y="1329" type="line"/>
      <point x="262" y="1301" type="line"/>
    </contour>
  </outline>
</glyph>
<glyph name="parenleft" format="2">
  <advance width="680"/>
  <unicode hex="0028"/>
  <outline>
    <contour>
      <point x="317" y="-370" type="curve"/>
      <point x="430" y="-348" type="line"/>
      <point x="338" y="-181"/>
      <point x="283" y="45"/>
      <point x="283" y="254" type="curve" smooth="yes"/>
      <point x="283" y="637"/>
      <point x="466" y="986"/>
      <point x="851" y="1340" type="curve"/>
      <point x="734" y="1366" type="line"/>
      <point x="330" y="1048"/>
      <point x="109" y="672"/>
      <point x="109" y="305" type="curve" smooth="yes"/>
      <point x="109" y="84"/>
      <point x="188" y="-174"/>
    </contour>
  </outline>
  <guideline angle="0" x="0" y="1366"/>
  <guideline angle="0" x="0" y="-370"/>
  <guideline angle="76.0015" x="393.18" y="0"/>
</glyph>
<glyph name="parenright" format="2">
  <advance width="680"/>
  <unicode hex="0029"/>
  <outline>
    <contour>
      <point x="-165" y="-345" type="line"/>
      <point x="220" y="8"/>
      <point x="402" y="358"/>
      <point x="402" y="741" type="curve" smooth="yes"/>
      <point x="402" y="952"/>
      <point x="347" y="1178"/>
      <point x="256" y="1344" type="curve"/>
      <point x="368" y="1366" type="line"/>
      <point x="496" y="1170"/>
      <point x="576" y="911"/>
      <point x="576" y="690" type="curve" smooth="yes"/>
      <point x="576" y="323"/>
      <point x="355" y="-52"/>
      <point x="-49" y="-370" type="curve"/>
    </contour>
  </outline>
</glyph>
<glyph name="asterisk" format="2">
  <advance width="852"/>
  <unicode hex="002A"/>
  <outline>
    <contour>
      <point x="404" y="1306" type="line"/>
      <point x="518" y="970" type="line"/>
      <point x="572" y="979" type="line"/>
      <point x="577" y="1333" type="line"/>
    </contour>
    <contour>
      <point x="190" y="947" type="line"/>
      <point x="543" y="951" type="line"/>
      <point x="553" y="1005" type="line"/>
      <point x="217" y="1120" type="line"/>
    </contour>
    <contour>
      <point x="466" y="632" type="line"/>
      <point x="570" y="971" type="line"/>
      <point x="521" y="995" type="line"/>
      <point x="309" y="712" type="line"/>
    </contour>
    <contour>
      <point x="849" y="798" type="line"/>
      <point x="561" y="1002" type="line"/>
      <point x="521" y="963" type="line"/>
      <point x="726" y="673" type="line"/>
    </contour>
    <contour>
      <point x="810" y="1213" type="line"/>
      <point x="528" y="1002" type="line"/>
      <point x="552" y="952" type="line"/>
      <point x="890" y="1058" type="line"/>
    </contour>
  </outline>
</glyph>
<glyph name="plus" format="2">
  <advance width="1118"/>
  <unicode hex="002B"/>
  <outline>
    <contour>
      <point x="506" y="0" type="line"/>
      <point x="506" y="946" type="line"/>
      <point x="640" y="946" type="line"/>
      <point x="640" y="0" type="line"/>
    </contour>
    <contour>
      <point x="100" y="408" type="line"/>
      <point x="100" y="538" type="line"/>
      <point x="1046" y="538" type="line"/>
      <point x="1046" y="408" type="line"/>
    </contour>
  </outline>
  <guideline angle="0" x="0" y="576"/>
  <guideline angle="90" x="337" y="0"/>
</glyph>
<glyph name="comma" format="2">
  <advance width="440"/>
  <unicode hex="002C"/>
  <outline>
    <contour>
      <point x="-41" y="-251" type="line"/>
      <point x="138" y="-199"/>
      <point x="248" y="-77"/>
      <point x="248" y="70" type="curve" smooth="yes"/>
      <point x="248" y="164"/>
      <point x="202" y="218"/>
      <point x="123" y="218" type="curve" smooth="yes"/>
      <point x="43" y="218"/>
      <point x="-14" y="163"/>
      <point x="-14" y="86" type="curve" smooth="yes"/>
      <point x="-14" y="25"/>
      <point x="22" y="-12"/>
      <point x="79" y="-12" type="curve" smooth="yes"/>
      <point x="115" y="-12"/>
      <point x="146" y="3"/>
      <point x="176" y="35" type="curve"/>
      <point x="109" y="30" type="line"/>
      <point x="114" y="-61"/>
      <point x="43" y="-136"/>
      <point x="-84" y="-174" type="curve"/>
    </contour>
  </outline>
  <guideline angle="0" x="0" y="-264"/>
  <guideline angle="0" x="0" y="-176"/>
  <guideline angle="0" x="0" y="218"/>
</glyph>
<glyph name="hyphen" format="2">
  <advance width="677"/>
  <unicode hex="002D"/>
  <outline>
    <contour>
      <point x="54" y="415" type="line"/>
      <point x="579" y="415" type="line"/>
      <point x="623" y="557" type="line"/>
      <point x="99" y="557" type="line"/>
    </contour>
  </outline>
  <guideline angle="76.0015" x="506.827" y="0"/>
  <guideline angle="76.0015" x="-49.4912" y="0"/>
</glyph>
<glyph name="period" format="2">
  <advance width="440"/>
  <unicode hex="002E"/>
  <outline>
    <contour>
      <point x="107" y="-22" type="curve" smooth="yes"/>
      <point x="186" y="-22"/>
      <point x="247" y="36"/>
      <point x="247" y="112" type="curve" smooth="yes"/>
      <point x="247" y="176"/>
      <point x="205" y="218"/>
      <point x="139" y="218" type="curve" smooth="yes"/>
      <point x="60" y="218"/>
      <point x="-1" y="159"/>
      <point x="-1" y="83" type="curve" smooth="yes"/>
      <point x="-1" y="19"/>
      <point x="41" y="-22"/>
    </contour>
  </outline>
</glyph>
<glyph name="slash" format="2">
  <advance width="680"/>
  <unicode hex="002F"/>
  <outline>
    <contour>
      <point x="-161" y="-209" type="line"/>
      <point x="14" y="-209" type="line"/>
      <point x="873" y="1414" type="line"/>
      <point x="697" y="1414" type="line"/>
    </contour>
  </outline>
  <guideline angle="76.0015" x="-108.147" y="0"/>
  <guideline angle="76.0015" x="490.33" y="0"/>
  <guideline angle="76.0015" x="637.887" y="0"/>
</glyph>
<glyph name="zero" format="2">
  <advance width="1118"/>
  <unicode hex="0030"/>
  <anchor x="479" y="0" name="bottom"/>
  <anchor x="736" y="1314" name="top"/>
  <anchor x="1285" y="1314" name="topright"/>
  <outline>
    <contour>
      <point x="481" y="-22" type="curve" smooth="yes"/>
      <point x="892" y="-22"/>
      <point x="1102" y="472"/>
      <point x="1102" y="869" type="curve" smooth="yes"/>
      <point x="1102" y="1180"/>
      <point x="963" y="1338"/>
      <point x="724" y="1338" type="curve" smooth="yes"/>
      <point x="303" y="1338"/>
      <point x="102" y="818"/>
      <point x="102" y="446" type="curve" smooth="yes"/>
      <point x="102" y="146"/>
      <point x="234" y="-22"/>
    </contour>
    <contour>
      <point x="495" y="103" type="curve" smooth="yes"/>
      <point x="354" y="103"/>
      <point x="283" y="219"/>
      <point x="283" y="429" type="curve" smooth="yes"/>
      <point x="283" y="728"/>
      <point x="420" y="1213"/>
      <point x="710" y="1213" type="curve" smooth="yes"/>
      <point x="847" y="1213"/>
      <point x="921" y="1103"/>
      <point x="921" y="888" type="curve" smooth="yes"/>
      <point x="921" y="585"/>
      <point x="783" y="103"/>
    </contour>
  </outline>
  <guideline angle="76.0015" x="921.086" y="0"/>
  <guideline angle="76.0015" x="397.763" y="0"/>
</glyph>
<glyph name="one" format="2">
  <advance width="1118"/>
  <unicode hex="0031"/>
  <anchor x="530" y="0" name="bottom"/>
  <anchor x="821" y="1314" name="top"/>
  <anchor x="1225" y="1314" name="topright"/>
  <outline>
    <contour>
      <point x="429" y="0" type="line"/>
      <point x="604" y="0" type="line"/>
      <point x="932" y="1314" type="line"/>
      <point x="788" y="1314" type="line"/>
      <point x="627" y="1201"/>
      <point x="500" y="1126"/>
      <point x="369" y="1067" type="curve"/>
      <point x="341" y="958" type="line"/>
      <point x="349" y="952" type="line"/>
      <point x="481" y="995"/>
      <point x="607" y="1052"/>
      <point x="706" y="1113" type="curve"/>
    </contour>
  </outline>
  <guideline angle="114.915" x="605.809" y="0"/>
  <guideline angle="76.0015" x="986.158" y="0"/>
  <guideline angle="75.9907" x="412.427" y="0"/>
</glyph>
<glyph name="two" format="2">
  <advance width="1118"/>
  <unicode hex="0032"/>
  <anchor x="427" y="0" name="bottom"/>
  <anchor x="705" y="1314" name="top"/>
  <anchor x="1285" y="1314" name="topright"/>
  <outline>
    <contour>
      <point x="3" y="0" type="line"/>
      <point x="832" y="0" type="line"/>
      <point x="884" y="134" type="line"/>
      <point x="207" y="134" type="line"/>
      <point x="238" y="103" type="line"/>
      <point x="247" y="141" type="line"/>
      <point x="794" y="552"/>
      <point x="1063" y="746"/>
      <point x="1063" y="1011" type="curve" smooth="yes"/>
      <point x="1063" y="1209"/>
      <point x="913" y="1338"/>
      <point x="683" y="1338" type="curve" smooth="yes"/>
      <point x="543" y="1338"/>
      <point x="396" y="1285"/>
      <point x="327" y="1232" type="curve"/>
      <point x="292" y="1089" type="line"/>
      <point x="388" y="1157"/>
      <point x="537" y="1208"/>
      <point x="647" y="1208" type="curve" smooth="yes"/>
      <point x="789" y="1208"/>
      <point x="873" y="1130"/>
      <point x="873" y="1000" type="curve" smooth="yes"/>
      <point x="873" y="818"/>
      <point x="718" y="657"/>
      <point x="33" y="123" type="curve"/>
    </contour>
  </outline>
  <guideline angle="76.0015" x="851.432" y="0"/>
</glyph>
<glyph name="three" format="2">
  <advance width="1118"/>
  <unicode hex="0033"/>
  <anchor x="447" y="0" name="bottom"/>
  <anchor x="695" y="1314" name="top"/>
  <anchor x="1285" y="1314" name="topright"/>
  <outline>
    <contour>
      <point x="49" y="86" type="line"/>
      <point x="114" y="22"/>
      <point x="271" y="-24"/>
      <point x="422" y="-24" type="curve" smooth="yes"/>
      <point x="740" y="-24"/>
      <point x="969" y="153"/>
      <point x="969" y="399" type="curve" smooth="yes"/>
      <point x="969" y="547"/>
      <point x="884" y="646"/>
      <point x="722" y="688" type="curve"/>
      <point x="724" y="696" type="line"/>
      <point x="931" y="748"/>
      <point x="1057" y="879"/>
      <point x="1057" y="1042" type="curve" smooth="yes"/>
      <point x="1057" y="1219"/>
      <point x="904" y="1338"/>
      <point x="676" y="1338" type="curve" smooth="yes"/>
      <point x="568" y="1338"/>
      <point x="448" y="1311"/>
      <point x="342" y="1263" type="curve"/>
      <point x="310" y="1136" type="line"/>
      <point x="415" y="1183"/>
      <point x="538" y="1211"/>
      <point x="641" y="1211" type="curve" smooth="yes"/>
      <point x="795" y="1211"/>
      <point x="876" y="1146"/>
      <point x="876" y="1022" type="curve" smooth="yes"/>
      <point x="876" y="850"/>
      <point x="722" y="745"/>
      <point x="469" y="745" type="curve" smooth="yes"/>
      <point x="445" y="745"/>
      <point x="402" y="745"/>
      <point x="359" y="747" type="curve"/>
      <point x="326" y="616" type="line"/>
      <point x="365" y="618"/>
      <point x="420" y="620"/>
      <point x="465" y="620" type="curve" smooth="yes"/>
      <point x="680" y="620"/>
      <point x="784" y="546"/>
      <point x="784" y="395" type="curve" smooth="yes"/>
      <point x="784" y="218"/>
      <point x="640" y="108"/>
      <point x="407" y="108" type="curve" smooth="yes"/>
      <point x="273" y="108"/>
      <point x="135" y="147"/>
      <point x="41" y="211" type="curve"/>
      <point x="34" y="204" type="line"/>
    </contour>
  </outline>
  <guideline angle="104.349" x="630.555" y="0"/>
  <guideline angle="76.0015" x="874.345" y="0"/>
</glyph>
<glyph name="four" format="2">
  <advance width="1118"/>
  <unicode hex="0034"/>
  <anchor x="557" y="0" name="bottom"/>
  <anchor x="884" y="1314" name="top"/>
  <anchor x="1295" y="1314" name="topright"/>
  <outline>
    <contour>
      <point x="548" y="0" type="line"/>
      <point x="728" y="0" type="line"/>
      <point x="1055" y="1314" type="line"/>
      <point x="884" y="1314" type="line"/>
      <point x="32" y="445" type="line"/>
      <point x="3" y="328" type="line"/>
      <point x="1017" y="328" type="line"/>
      <point x="1070" y="462" type="line"/>
      <point x="213" y="462" type="line"/>
      <point x="214" y="469" type="line"/>
      <point x="814" y="1075" type="line"/>
      <point x="821" y="1075" type="line"/>
      <point x="802" y="1016"/>
      <point x="790" y="971"/>
      <point x="777" y="920" type="curve" smooth="yes"/>
    </contour>
  </outline>
  <guideline angle="76" name="zzz" x="557" y="0"/>
</glyph>
<glyph name="five" format="2">
  <advance width="1118"/>
  <unicode hex="0035"/>
  <anchor x="474" y="0" name="bottom"/>
  <anchor x="752" y="1314" name="top"/>
  <outline>
    <contour>
      <point x="62" y="85" type="curve"/>
      <point x="48" y="203" type="line"/>
      <point x="55" y="210" type="line"/>
      <point x="159" y="140"/>
      <point x="268" y="108"/>
      <point x="400" y="108" type="curve" smooth="yes"/>
      <point x="651" y="108"/>
      <point x="792" y="221"/>
      <point x="792" y="423" type="curve" smooth="yes"/>
      <point x="792" y="596"/>
      <point x="686" y="689"/>
      <point x="486" y="689" type="curve" smooth="yes"/>
      <point x="407" y="689"/>
      <point x="322" y="675"/>
      <point x="247" y="650" type="curve"/>
      <point x="237" y="657" type="line"/>
      <point x="439" y="1314" type="line"/>
      <point x="1105" y="1314" type="line"/>
      <point x="1071" y="1180" type="line"/>
      <point x="496" y="1180" type="line"/>
      <point x="532" y="1209" type="line"/>
      <point x="399" y="774" type="line"/>
      <point x="376" y="794" type="line"/>
      <point x="435" y="809"/>
      <point x="496" y="816"/>
      <point x="555" y="816" type="curve" smooth="yes"/>
      <point x="818" y="816"/>
      <point x="977" y="678"/>
      <point x="977" y="443" type="curve" smooth="yes"/>
      <point x="977" y="165"/>
      <point x="756" y="-24"/>
      <point x="432" y="-24" type="curve" smooth="yes"/>
      <point x="284" y="-24"/>
      <point x="135" y="21"/>
    </contour>
  </outline>
</glyph>
<glyph name="six" format="2">
  <advance width="1118"/>
  <unicode hex="0036"/>
  <anchor x="548" y="0" name="bottom"/>
  <anchor x="790" y="1314" name="top"/>
  <anchor x="1305" y="1314" name="topright"/>
  <outline>
    <contour>
      <point x="275" y="530" type="line"/>
      <point x="378" y="627"/>
      <point x="503" y="682"/>
      <point x="618" y="682" type="curve" smooth="yes"/>
      <point x="769" y="682"/>
      <point x="858" y="592"/>
      <point x="858" y="439" type="curve" smooth="yes"/>
      <point x="858" y="247"/>
      <point x="725" y="101"/>
      <point x="550" y="101" type="curve" smooth="yes"/>
      <point x="390" y="101"/>
      <point x="305" y="223"/>
      <point x="305" y="445" type="curve" smooth="yes"/>
      <point x="305" y="777"/>
      <point x="496" y="1210"/>
      <point x="831" y="1210" type="curve" smooth="yes"/>
      <point x="917" y="1210"/>
      <point x="1013" y="1179"/>
      <point x="1081" y="1129" type="curve"/>
      <point x="1114" y="1258" type="line"/>
      <point x="1032" y="1309"/>
      <point x="932" y="1338"/>
      <point x="833" y="1338" type="curve" smooth="yes"/>
      <point x="420" y="1338"/>
      <point x="121" y="872"/>
      <point x="121" y="461" type="curve" smooth="yes"/>
      <point x="121" y="158"/>
      <point x="280" y="-24"/>
      <point x="545" y="-24" type="curve" smooth="yes"/>
      <point x="826" y="-24"/>
      <point x="1043" y="184"/>
      <point x="1043" y="453" type="curve" smooth="yes"/>
      <point x="1043" y="669"/>
      <point x="897" y="810"/>
      <point x="672" y="810" type="curve" smooth="yes"/>
      <point x="531" y="810"/>
      <point x="400" y="754"/>
      <point x="275" y="644" type="curve"/>
    </contour>
  </outline>
  <guideline angle="76.0015" x="942.166" y="0"/>
  <guideline angle="90" x="275" y="0"/>
</glyph>
<glyph name="seven" format="2">
  <advance width="1118"/>
  <unicode hex="0037"/>
  <anchor x="343" y="0" name="bottom"/>
  <anchor x="723" y="1314" name="top"/>
  <outline>
    <contour>
      <point x="223" y="0" type="line"/>
      <point x="349" y="360"/>
      <point x="630" y="794"/>
      <point x="983" y="1172" type="curve"/>
      <point x="983" y="1210" type="line"/>
      <point x="1013" y="1180" type="line"/>
      <point x="286" y="1180" type="line"/>
      <point x="320" y="1314" type="line"/>
      <point x="1180" y="1314" type="line"/>
      <point x="1150" y="1193" type="line"/>
      <point x="791" y="794"/>
      <point x="567" y="431"/>
      <point x="415" y="0" type="curve"/>
    </contour>
  </outline>
  <guideline angle="76.0015" x="-1.833" y="0"/>
  <guideline angle="76.0015" x="845.933" y="0"/>
</glyph>
<glyph name="eight" format="2">
  <advance width="1118"/>
  <unicode hex="0038"/>
  <anchor x="479" y="0" name="bottom"/>
  <anchor x="746" y="1314" name="top"/>
  <outline>
    <contour>
      <point x="426" y="708" type="line"/>
      <point x="564" y="642" type="line"/>
      <point x="377" y="591"/>
      <point x="243" y="476"/>
      <point x="243" y="316" type="curve" smooth="yes"/>
      <point x="243" y="181"/>
      <point x="337" y="103"/>
      <point x="501" y="103" type="curve" smooth="yes"/>
      <point x="691" y="103"/>
      <point x="822" y="205"/>
      <point x="822" y="353" type="curve" smooth="yes"/>
      <point x="822" y="494"/>
      <point x="707" y="546"/>
      <point x="549" y="621" type="curve" smooth="yes"/>
      <point x="400" y="692"/>
      <point x="247" y="769"/>
      <point x="247" y="958" type="curve" smooth="yes"/>
      <point x="247" y="1175"/>
      <point x="460" y="1338"/>
      <point x="743" y="1338" type="curve" smooth="yes"/>
      <point x="969" y="1338"/>
      <point x="1123" y="1223"/>
      <point x="1123" y="1053" type="curve" smooth="yes"/>
      <point x="1123" y="884"/>
      <point x="964" y="764"/>
      <point x="796" y="707" type="curve"/>
      <point x="792" y="671" type="line"/>
      <point x="640" y="744" type="line"/>
      <point x="822" y="791"/>
      <point x="942" y="897"/>
      <point x="942" y="1026" type="curve" smooth="yes"/>
      <point x="942" y="1139"/>
      <point x="849" y="1214"/>
      <point x="708" y="1214" type="curve" smooth="yes"/>
      <point x="550" y="1214"/>
      <point x="437" y="1122"/>
      <point x="437" y="993" type="curve" smooth="yes"/>
      <point x="437" y="866"/>
      <point x="545" y="818"/>
      <point x="699" y="746" type="curve" smooth="yes"/>
      <point x="845" y="677"/>
      <point x="1014" y="596"/>
      <point x="1014" y="395" type="curve" smooth="yes"/>
      <point x="1014" y="158"/>
      <point x="784" y="-23"/>
      <point x="483" y="-23" type="curve" smooth="yes"/>
      <point x="227" y="-23"/>
      <point x="57" y="107"/>
      <point x="57" y="302" type="curve" smooth="yes"/>
      <point x="57" y="497"/>
      <point x="232" y="623"/>
      <point x="419" y="683" type="curve"/>
    </contour>
  </outline>
  <guideline angle="76.0015" x="400.512" y="0"/>
</glyph>
<glyph name="nine" format="2">
  <advance width="1118"/>
  <unicode hex="0039"/>
  <anchor x="431" y="0" name="bottom"/>
  <anchor x="648" y="1314" name="top"/>
  <outline>
    <contour>
      <point x="84" y="85" type="curve"/>
      <point x="70" y="203" type="line"/>
      <point x="77" y="210" type="line"/>
      <point x="163" y="144"/>
      <point x="265" y="109"/>
      <point x="374" y="109" type="curve" smooth="yes"/>
      <point x="722" y="109"/>
      <point x="895" y="466"/>
      <point x="895" y="808" type="curve" smooth="yes"/>
      <point x="895" y="1058"/>
      <point x="802" y="1213"/>
      <point x="636" y="1213" type="curve" smooth="yes"/>
      <point x="473" y="1213"/>
      <point x="346" y="1067"/>
      <point x="346" y="880" type="curve" smooth="yes"/>
      <point x="346" y="725"/>
      <point x="437" y="632"/>
      <point x="587" y="632" type="curve" smooth="yes"/>
      <point x="699" y="632"/>
      <point x="819" y="686"/>
      <point x="925" y="783" type="curve"/>
      <point x="925" y="666" type="line"/>
      <point x="801" y="559"/>
      <point x="665" y="504"/>
      <point x="529" y="504" type="curve" smooth="yes"/>
      <point x="306" y="504"/>
      <point x="160" y="648"/>
      <point x="160" y="866" type="curve" smooth="yes"/>
      <point x="160" y="1133"/>
      <point x="372" y="1338"/>
      <point x="649" y="1338" type="curve" smooth="yes"/>
      <point x="920" y="1338"/>
      <point x="1081" y="1149"/>
      <point x="1081" y="832" type="curve" smooth="yes"/>
      <point x="1081" y="424"/>
      <point x="816" y="-24"/>
      <point x="399" y="-24" type="curve" smooth="yes"/>
      <point x="272" y="-24"/>
      <point x="145" y="20"/>
    </contour>
  </outline>
  <guideline angle="76.0015" x="-64.1553" y="0"/>
  <guideline angle="76.0015" x="948" y="2"/>
  <guideline angle="90" x="925" y="0"/>
</glyph>
<glyph name="less" format="2">
  <advance width="1118"/>
  <unicode hex="003C"/>
  <outline>
    <contour>
      <point x="115" y="417" type="line"/>
      <point x="989" y="18" type="line"/>
      <point x="1042" y="140" type="line"/>
      <point x="242" y="498" type="line"/>
      <point x="242" y="448" type="line"/>
      <point x="1042" y="806" type="line"/>
      <point x="989" y="928" type="line"/>
      <point x="115" y="529" type="line"/>
    </contour>
  </outline>
  <guideline angle="112.45" x="1365.59" y="0"/>
</glyph>
<glyph name="equal" format="2">
  <advance width="1118"/>
  <unicode hex="003D"/>
  <outline>
    <contour>
      <point x="109" y="225" type="line"/>
      <point x="1055" y="225" type="line"/>
      <point x="1055" y="355" type="line"/>
      <point x="109" y="355" type="line"/>
    </contour>
    <contour>
      <point x="109" y="591" type="line"/>
      <point x="1055" y="591" type="line"/>
      <point x="1055" y="721" type="line"/>
      <point x="109" y="721" type="line"/>
    </contour>
  </outline>
  <guideline angle="90" x="374" y="0"/>
</glyph>
<glyph name="greater" format="2">
  <advance width="1118"/>
  <unicode hex="003E"/>
  <outline>
    <contour>
      <point x="181" y="18" type="line"/>
      <point x="127" y="140" type="line"/>
      <point x="928" y="498" type="line"/>
      <point x="928" y="448" type="line"/>
      <point x="127" y="806" type="line"/>
      <point x="181" y="928" type="line"/>
      <point x="1055" y="529" type="line"/>
      <point x="1055" y="417" type="line"/>
    </contour>
  </outline>
  <guideline angle="112.45" x="-241.957" y="0"/>
</glyph>
<glyph name="question" format="2">
  <advance width="859"/>
  <unicode hex="003F"/>
  <outline>
    <contour>
      <point x="259" y="368" type="curve"/>
      <point x="376" y="368" type="line"/>
      <point x="397" y="518"/>
      <point x="466" y="572"/>
      <point x="634" y="685" type="curve" smooth="yes"/>
      <point x="764" y="772"/>
      <point x="903" y="864"/>
      <point x="903" y="1053" type="curve" smooth="yes"/>
      <point x="903" y="1229"/>
      <point x="780" y="1338"/>
      <point x="582" y="1338" type="curve" smooth="yes"/>
      <point x="490" y="1338"/>
      <point x="372" y="1308"/>
      <point x="294" y="1265" type="curve"/>
      <point x="261" y="1130" type="line"/>
      <point x="362" y="1180"/>
      <point x="460" y="1208"/>
      <point x="539" y="1208" type="curve" smooth="yes"/>
      <point x="663" y="1208"/>
      <point x="730" y="1149"/>
      <point x="730" y="1042" type="curve" smooth="yes"/>
      <point x="730" y="914"/>
      <point x="636" y="852"/>
      <point x="532" y="780" type="curve" smooth="yes"/>
      <point x="384" y="677"/>
      <point x="279" y="599"/>
    </contour>
    <contour>
      <point x="257" y="-22" type="curve" smooth="yes"/>
      <point x="336" y="-22"/>
      <point x="397" y="36"/>
      <point x="397" y="112" type="curve" smooth="yes"/>
      <point x="397" y="176"/>
      <point x="355" y="218"/>
      <point x="289" y="218" type="curve" smooth="yes"/>
      <point x="210" y="218"/>
      <point x="148" y="159"/>
      <point x="148" y="83" type="curve" smooth="yes"/>
      <point x="148" y="19"/>
      <point x="191" y="-22"/>
    </contour>
  </outline>
  <guideline angle="76.0015" x="-20.1631" y="0"/>
  <guideline angle="76.0015" x="650.718" y="0"/>
</glyph>
<glyph name="at" format="2">
  <advance width="1764"/>
  <unicode hex="0040"/>
  <outline>
    <contour>
      <point x="1031" y="186" type="curve"/>
      <point x="1031" y="294" type="line"/>
      <point x="974" y="201"/>
      <point x="902" y="152"/>
      <point x="823" y="152" type="curve" smooth="yes"/>
      <point x="711" y="152"/>
      <point x="643" y="245"/>
      <point x="643" y="400" type="curve" smooth="yes"/>
      <point x="643" y="623"/>
      <point x="768" y="785"/>
      <point x="940" y="785" type="curve" smooth="yes"/>
      <point x="1004" y="785"/>
      <point x="1066" y="764"/>
      <point x="1127" y="721" type="curve"/>
      <point x="1165" y="814" type="line"/>
      <point x="1093" y="870"/>
      <point x="1015" y="897"/>
      <point x="925" y="897" type="curve" smooth="yes"/>
      <point x="667" y="897"/>
      <point x="469" y="678"/>
      <point x="469" y="392" type="curve" smooth="yes"/>
      <point x="469" y="177"/>
      <point x="585" y="37"/>
      <point x="763" y="37" type="curve" smooth="yes"/>
      <point x="873" y="37"/>
      <point x="978" y="98"/>
    </contour>
    <contour>
      <point x="1213" y="-104" type="line"/>
      <point x="1091" y="-166"/>
      <point x="949" y="-201"/>
      <point x="816" y="-201" type="curve" smooth="yes"/>
      <point x="466" y="-201"/>
      <point x="249" y="26"/>
      <point x="249" y="392" type="curve" smooth="yes"/>
      <point x="249" y="817"/>
      <point x="538" y="1118"/>
      <point x="946" y="1118" type="curve" smooth="yes"/>
      <point x="1292" y="1118"/>
      <point x="1531" y="893"/>
      <point x="1531" y="567" type="curve" smooth="yes"/>
      <point x="1531" y="325"/>
      <point x="1395" y="113"/>
      <point x="1239" y="113" type="curve" smooth="yes"/>
      <point x="1184" y="113"/>
      <point x="1153" y="140"/>
      <point x="1153" y="190" type="curve" smooth="yes"/>
      <point x="1153" y="208"/>
      <point x="1158" y="246"/>
      <point x="1164" y="269" type="curve" smooth="yes"/>
      <point x="1315" y="872" type="line"/>
      <point x="1169" y="872" type="line"/>
      <point x="1110" y="738" type="line"/>
      <point x="1000" y="298" type="line" smooth="yes"/>
      <point x="995" y="277"/>
      <point x="987" y="222"/>
      <point x="987" y="192" type="curve" smooth="yes"/>
      <point x="987" y="69"/>
      <point x="1065" y="-1"/>
      <point x="1203" y="-1" type="curve" smooth="yes"/>
      <point x="1461" y="-1"/>
      <point x="1669" y="253"/>
      <point x="1669" y="568" type="curve" smooth="yes"/>
      <point x="1669" y="953"/>
      <point x="1370" y="1227"/>
      <point x="950" y="1227" type="curve" smooth="yes"/>
      <point x="461" y="1227"/>
      <point x="101" y="874"/>
      <point x="101" y="393" type="curve" smooth="yes"/>
      <point x="101" y="-29"/>
      <point x="374" y="-310"/>
      <point x="782" y="-310" type="curve" smooth="yes"/>
      <point x="917" y="-310"/>
      <point x="1060" y="-280"/>
      <point x="1156" y="-231" type="curve"/>
      <point x="1219" y="-110" type="line"/>
    </contour>
  </outline>
  <guideline angle="90" x="397" y="0"/>
  <guideline angle="116.322" x="995.323" y="0"/>
  <guideline angle="76.0015" x="1548.89" y="0"/>
</glyph>
<glyph name="A" format="2">
  <advance width="1190"/>
  <unicode hex="0041"/>
  <anchor x="477" y="0" name="bottom"/>
  <anchor x="786" y="1314" name="top"/>
  <anchor x="1287" y="1314" name="topright"/>
  <outline>
    <contour>
      <point x="-95" y="0" type="line"/>
      <point x="77" y="0" type="line"/>
      <point x="717" y="1066" type="line"/>
      <point x="724" y="1066" type="line"/>
      <point x="862" y="0" type="line"/>
      <point x="1055" y="0" type="line"/>
      <point x="853" y="1314" type="line"/>
      <point x="727" y="1314" type="line"/>
    </contour>
    <contour>
      <point x="275" y="379" type="line"/>
      <point x="843" y="379" type="line"/>
      <point x="826" y="507" type="line"/>
      <point x="351" y="507" type="line"/>
    </contour>
  </outline>
  <guideline angle="76.0015" x="459" y="0"/>
  <guideline angle="0" x="0" y="506"/>
  <guideline angle="0" x="0" y="379"/>
</glyph>
<glyph name="B" format="2">
  <advance width="1116"/>
  <unicode hex="0042"/>
  <anchor x="423" y="0" name="bottom"/>
  <anchor x="707" y="1314" name="top"/>
  <anchor x="1263" y="1314" name="topright"/>
  <outline>
    <contour>
      <point x="37" y="0" type="line"/>
      <point x="443" y="0" type="line" smooth="yes"/>
      <point x="790" y="0"/>
      <point x="1011" y="155"/>
      <point x="1011" y="398" type="curve" smooth="yes"/>
      <point x="1011" y="541"/>
      <point x="936" y="637"/>
      <point x="788" y="683" type="curve"/>
      <point x="789" y="690" type="line"/>
      <point x="975" y="727"/>
      <point x="1095" y="859"/>
      <point x="1095" y="1026" type="curve" smooth="yes"/>
      <point x="1095" y="1213"/>
      <point x="947" y="1314"/>
      <point x="674" y="1314" type="curve" smooth="yes"/>
      <point x="365" y="1314" type="line"/>
    </contour>
    <contour>
      <point x="222" y="129" type="line"/>
      <point x="246" y="105" type="line"/>
      <point x="524" y="1217" type="line"/>
      <point x="486" y="1185" type="line"/>
      <point x="641" y="1185" type="line" smooth="yes"/>
      <point x="826" y="1185"/>
      <point x="908" y="1130"/>
      <point x="908" y="1006" type="curve" smooth="yes"/>
      <point x="908" y="839"/>
      <point x="776" y="746"/>
      <point x="539" y="746" type="curve" smooth="yes"/>
      <point x="376" y="746" type="line"/>
      <point x="344" y="619" type="line"/>
      <point x="520" y="619" type="line" smooth="yes"/>
      <point x="727" y="619"/>
      <point x="821" y="551"/>
      <point x="821" y="401" type="curve" smooth="yes"/>
      <point x="821" y="221"/>
      <point x="687" y="129"/>
      <point x="422" y="129" type="curve" smooth="yes"/>
    </contour>
  </outline>
  <guideline angle="76.0015" x="378" y="0"/>
  <guideline angle="0" x="0" y="743"/>
</glyph>
<glyph name="C" format="2">
  <advance width="1206"/>
  <unicode hex="0043"/>
  <anchor x="613" y="0" name="bottom"/>
  <anchor x="874" y="1314" name="top"/>
  <anchor x="1413" y="1314" name="topright"/>
  <outline>
    <contour>
      <point x="1257" y="1113" type="curve"/>
      <point x="1294" y="1239" type="line"/>
      <point x="1185" y="1305"/>
      <point x="1059" y="1338"/>
      <point x="913" y="1338" type="curve" smooth="yes"/>
      <point x="354" y="1338"/>
      <point x="119" y="855"/>
      <point x="119" y="500" type="curve" smooth="yes"/>
      <point x="119" y="176"/>
      <point x="322" y="-24"/>
      <point x="646" y="-24" type="curve" smooth="yes"/>
      <point x="779" y="-24"/>
      <point x="915" y="12"/>
      <point x="1024" y="75" type="curve"/>
      <point x="1088" y="203" type="line"/>
      <point x="1083" y="210" type="line"/>
      <point x="957" y="146"/>
      <point x="807" y="107"/>
      <point x="683" y="107" type="curve" smooth="yes"/>
      <point x="439" y="107"/>
      <point x="310" y="249"/>
      <point x="310" y="514" type="curve" smooth="yes"/>
      <point x="310" y="863"/>
      <point x="530" y="1209"/>
      <point x="920" y="1209" type="curve" smooth="yes"/>
      <point x="1044" y="1209"/>
      <point x="1164" y="1175"/>
    </contour>
  </outline>
  <guideline angle="76.0015" x="1027.4" y="0"/>
</glyph>
<glyph name="D" format="2">
  <advance width="1344"/>
  <unicode hex="0044"/>
  <anchor x="486" y="0" name="bottom"/>
  <anchor x="801" y="1314" name="top"/>
  <outline>
    <contour>
      <point x="37" y="0" type="line"/>
      <point x="365" y="1314" type="line"/>
      <point x="716" y="1314" type="line" smooth="yes"/>
      <point x="1106" y="1314"/>
      <point x="1311" y="1131"/>
      <point x="1311" y="819" type="curve" smooth="yes"/>
      <point x="1311" y="535"/>
      <point x="1154" y="0"/>
      <point x="375" y="0" type="curve" smooth="yes"/>
    </contour>
    <contour>
      <point x="224" y="129" type="line"/>
      <point x="394" y="129" type="line" smooth="yes"/>
      <point x="848" y="129"/>
      <point x="1120" y="396"/>
      <point x="1120" y="795" type="curve" smooth="yes"/>
      <point x="1120" y="1069"/>
      <point x="992" y="1185"/>
      <point x="685" y="1185" type="curve" smooth="yes"/>
      <point x="488" y="1185" type="line"/>
      <point x="525" y="1214" type="line"/>
      <point x="247" y="100" type="line"/>
    </contour>
  </outline>
</glyph>
<glyph name="E" format="2">
  <advance width="985"/>
  <unicode hex="0045"/>
  <anchor x="419" y="0" name="bottom"/>
  <anchor x="742" y="1314" name="top"/>
  <outline>
    <contour>
      <point x="38" y="0" type="line"/>
      <point x="365" y="1314" type="line"/>
      <point x="1118" y="1314" type="line"/>
      <point x="1068" y="1185" type="line"/>
      <point x="488" y="1185" type="line"/>
      <point x="525" y="1214" type="line"/>
      <point x="247" y="100" type="line"/>
      <point x="224" y="129" type="line"/>
      <point x="843" y="129" type="line"/>
      <point x="811" y="0" type="line"/>
    </contour>
    <contour>
      <point x="346" y="619" type="line"/>
      <point x="378" y="746" type="line"/>
      <point x="882" y="746" type="line"/>
      <point x="850" y="619" type="line"/>
    </contour>
  </outline>
  <guideline angle="76.0015" x="811.106" y="0"/>
  <guideline angle="0" x="0" y="745"/>
</glyph>
<glyph name="F" format="2">
  <advance width="938"/>
  <unicode hex="0046"/>
  <anchor x="390" y="0" name="bottom"/>
  <anchor x="740" y="1314" name="top"/>
  <anchor x="1185" y="1314" name="topright"/>
  <outline>
    <contour>
      <point x="38" y="0" type="line"/>
      <point x="223" y="0" type="line"/>
      <point x="526" y="1214" type="line"/>
      <point x="488" y="1185" type="line"/>
      <point x="1063" y="1185" type="line"/>
      <point x="1114" y="1314" type="line"/>
      <point x="365" y="1314" type="line"/>
    </contour>
    <contour>
      <point x="340" y="589" type="line"/>
      <point x="842" y="589" type="line"/>
      <point x="874" y="717" type="line"/>
      <point x="372" y="717" type="line"/>
    </contour>
  </outline>
  <guideline angle="76.0015" x="786.36" y="0"/>
  <guideline angle="0" x="0" y="716"/>
</glyph>
<glyph name="H" format="2">
  <advance width="1321"/>
  <unicode hex="0048"/>
  <anchor x="540" y="0" name="bottom"/>
  <anchor x="856" y="1314" name="top"/>
  <outline>
    <contour>
      <point x="38" y="0" type="line"/>
      <point x="365" y="1314" type="line"/>
      <point x="550" y="1314" type="line"/>
      <point x="223" y="0" type="line"/>
    </contour>
    <contour>
      <point x="857" y="0" type="line"/>
      <point x="1184" y="1314" type="line"/>
      <point x="1369" y="1314" type="line"/>
      <point x="1042" y="0" type="line"/>
    </contour>
    <contour>
      <point x="347" y="619" type="line"/>
      <point x="379" y="746" type="line"/>
      <point x="1073" y="746" type="line"/>
      <point x="1041" y="619" type="line"/>
    </contour>
  </outline>
  <guideline angle="0" x="0" y="745"/>
</glyph>
<glyph name="I" format="2">
  <advance width="502"/>
  <unicode hex="0049"/>
  <anchor x="127" y="0" name="bottom"/>
  <anchor x="461" y="1314" name="top"/>
  <anchor x="709" y="1314" name="topright"/>
  <outline>
    <contour>
      <point x="38" y="0" type="line"/>
      <point x="223" y="0" type="line"/>
      <point x="550" y="1314" type="line"/>
      <point x="365" y="1314" type="line"/>
    </contour>
  </outline>
</glyph>
<glyph name="J" format="2">
  <advance width="734"/>
  <unicode hex="004A"/>
  <anchor x="205" y="0" name="bottom"/>
  <anchor x="703" y="1314" name="top"/>
  <outline>
    <contour>
      <point x="-44" y="21" type="curve"/>
      <point x="-62" y="144" type="line"/>
      <point x="-54" y="148" type="line"/>
      <point x="-2" y="117"/>
      <point x="55" y="101"/>
      <point x="117" y="101" type="curve" smooth="yes"/>
      <point x="242" y="101"/>
      <point x="321" y="162"/>
      <point x="368" y="350" type="curve" smooth="yes"/>
      <point x="609" y="1314" type="line"/>
      <point x="792" y="1314" type="line"/>
      <point x="549" y="342" type="line" smooth="yes"/>
      <point x="490" y="107"/>
      <point x="366" y="-24"/>
      <point x="147" y="-24" type="curve" smooth="yes"/>
      <point x="76" y="-24"/>
      <point x="12" y="-9"/>
    </contour>
  </outline>
  <guideline angle="0" x="0" y="1007"/>
  <guideline angle="76.0015" x="-98.0659" y="0"/>
</glyph>
<glyph name="K" format="2">
  <advance width="1121"/>
  <unicode hex="004B"/>
  <anchor x="496" y="0" name="bottom"/>
  <anchor x="777" y="1314" name="top"/>
  <outline>
    <contour>
      <point x="37" y="0" type="line"/>
      <point x="365" y="1314" type="line"/>
      <point x="550" y="1314" type="line"/>
      <point x="222" y="0" type="line"/>
    </contour>
    <contour>
      <point x="783" y="0" type="line"/>
      <point x="379" y="677" type="line"/>
      <point x="1080" y="1314" type="line"/>
      <point x="1266" y="1314" type="line"/>
      <point x="518" y="631" type="line"/>
      <point x="546" y="738" type="line"/>
      <point x="995" y="0" type="line"/>
    </contour>
  </outline>
  <guideline angle="76.0015" x="988" y="0"/>
</glyph>
<glyph name="L" format="2">
  <advance width="944"/>
  <unicode hex="004C"/>
  <anchor x="422" y="0" name="bottom"/>
  <anchor x="461" y="1314" name="top"/>
  <outline>
    <contour>
      <point x="37" y="0" type="line"/>
      <point x="365" y="1314" type="line"/>
      <point x="550" y="1314" type="line"/>
      <point x="246" y="99" type="line"/>
      <point x="216" y="129" type="line"/>
      <point x="839" y="129" type="line"/>
      <point x="788" y="0" type="line"/>
    </contour>
  </outline>
</glyph>
<glyph name="M" format="2">
  <advance width="1660"/>
  <unicode hex="004D"/>
  <anchor x="686" y="0" name="bottom"/>
  <anchor x="1004" y="1314" name="top"/>
  <anchor x="1827" y="1314" name="topright"/>
  <outline>
    <contour>
      <point x="2" y="0" type="line"/>
      <point x="148" y="0" type="line"/>
      <point x="498" y="1072" type="line"/>
      <point x="505" y="1072" type="line"/>
      <point x="507" y="1009"/>
      <point x="507" y="966"/>
      <point x="520" y="829" type="curve" smooth="yes"/>
      <point x="599" y="0" type="line"/>
      <point x="771" y="0" type="line"/>
      <point x="1295" y="862" type="line" smooth="yes"/>
      <point x="1366" y="979"/>
      <point x="1390" y="1027"/>
      <point x="1414" y="1072" type="curve"/>
      <point x="1421" y="1072" type="line"/>
      <point x="1232" y="0" type="line"/>
      <point x="1417" y="0" type="line"/>
      <point x="1639" y="1314" type="line"/>
      <point x="1421" y="1314" type="line"/>
      <point x="835" y="351" type="line" smooth="yes"/>
      <point x="801" y="296"/>
      <point x="784" y="262"/>
      <point x="761" y="220" type="curve"/>
      <point x="753" y="220" type="line"/>
      <point x="751" y="261"/>
      <point x="750" y="302"/>
      <point x="745" y="354" type="curve" smooth="yes"/>
      <point x="655" y="1314" type="line"/>
      <point x="434" y="1314" type="line"/>
    </contour>
  </outline>
  <guideline angle="0" x="0" y="1098"/>
  <guideline angle="88.2072" x="192.466" y="0"/>
</glyph>
<glyph name="N" format="2">
  <advance width="1305"/>
  <unicode hex="004E"/>
  <anchor x="554" y="0" name="bottom"/>
  <anchor x="863" y="1314" name="top"/>
  <outline>
    <contour>
      <point x="37" y="0" type="line"/>
      <point x="365" y="1314" type="line"/>
      <point x="498" y="1314" type="line"/>
      <point x="872" y="488" type="line" smooth="yes"/>
      <point x="898" y="431"/>
      <point x="927" y="371"/>
      <point x="949" y="309" type="curve"/>
      <point x="957" y="309" type="line"/>
      <point x="1207" y="1314" type="line"/>
      <point x="1353" y="1314" type="line"/>
      <point x="1025" y="0" type="line"/>
      <point x="893" y="0" type="line"/>
      <point x="517" y="826" type="line" smooth="yes"/>
      <point x="490" y="885"/>
      <point x="463" y="943"/>
      <point x="440" y="1005" type="curve"/>
      <point x="433" y="1005" type="line"/>
      <point x="182" y="0" type="line"/>
    </contour>
  </outline>
  <guideline angle="90" x="336" y="0"/>
  <guideline angle="90" x="1026" y="0"/>
</glyph>
<glyph name="O" format="2">
  <advance width="1434"/>
  <unicode hex="004F"/>
  <anchor x="630" y="0" name="bottom"/>
  <anchor x="927" y="1314" name="top"/>
  <outline>
    <contour>
      <point x="119" y="510" type="curve" smooth="yes"/>
      <point x="119" y="971"/>
      <point x="454" y="1338"/>
      <point x="875" y="1338" type="curve" smooth="yes"/>
      <point x="1204" y="1338"/>
      <point x="1401" y="1140"/>
      <point x="1401" y="810" type="curve" smooth="yes"/>
      <point x="1401" y="345"/>
      <point x="1069" y="-24"/>
      <point x="652" y="-24" type="curve" smooth="yes"/>
      <point x="319" y="-24"/>
      <point x="119" y="177"/>
    </contour>
    <contour>
      <point x="653" y="101" type="curve" smooth="yes"/>
      <point x="958" y="101"/>
      <point x="1209" y="424"/>
      <point x="1209" y="817" type="curve" smooth="yes"/>
      <point x="1209" y="1072"/>
      <point x="1089" y="1213"/>
      <point x="873" y="1213" type="curve" smooth="yes"/>
      <point x="562" y="1213"/>
      <point x="310" y="896"/>
      <point x="310" y="505" type="curve" smooth="yes"/>
      <point x="310" y="251"/>
      <point x="438" y="101"/>
    </contour>
  </outline>
  <guideline angle="76.0015" x="574.648" y="0"/>
  <guideline angle="76.0015" x="1225.37" y="0"/>
</glyph>
<glyph name="P" format="2">
  <advance width="1080"/>
  <unicode hex="0050"/>
  <anchor x="367" y="0" name="bottom"/>
  <anchor x="733" y="1314" name="top"/>
  <anchor x="1227" y="1314" name="topright"/>
  <outline>
    <contour>
      <point x="37" y="0" type="line"/>
      <point x="222" y="0" type="line"/>
      <point x="537" y="1261" type="line"/>
      <point x="440" y="1185" type="line"/>
      <point x="655" y="1185" type="line" smooth="yes"/>
      <point x="861" y="1185"/>
      <point x="948" y="1120"/>
      <point x="948" y="964" type="curve" smooth="yes"/>
      <point x="948" y="765"/>
      <point x="804" y="651"/>
      <point x="553" y="651" type="curve" smooth="yes"/>
      <point x="355" y="651" type="line"/>
      <point x="323" y="522" type="line"/>
      <point x="544" y="522" type="line" smooth="yes"/>
      <point x="909" y="522"/>
      <point x="1139" y="698"/>
      <point x="1139" y="977" type="curve" smooth="yes"/>
      <point x="1139" y="1199"/>
      <point x="994" y="1314"/>
      <point x="701" y="1314" type="curve" smooth="yes"/>
      <point x="365" y="1314" type="line"/>
    </contour>
  </outline>
  <guideline angle="0" x="0" y="646"/>
</glyph>
<glyph name="Q" format="2">
  <advance width="1434"/>
  <unicode hex="0051"/>
  <anchor x="586" y="-174" name="bottom"/>
  <anchor x="927" y="1314" name="top"/>
  <anchor x="1541" y="1314" name="topright"/>
  <outline>
    <contour>
      <point x="1268" y="-208" type="line"/>
      <point x="1135" y="-118"/>
      <point x="981" y="-51"/>
      <point x="827" y="-2" type="curve"/>
      <point x="827" y="39" type="line"/>
      <point x="737" y="-14" type="line"/>
      <point x="1126" y="45"/>
      <point x="1403" y="388"/>
      <point x="1403" y="810" type="curve" smooth="yes"/>
      <point x="1403" y="1141"/>
      <point x="1207" y="1338"/>
      <point x="877" y="1338" type="curve" smooth="yes"/>
      <point x="443" y="1338"/>
      <point x="119" y="959"/>
      <point x="119" y="504" type="curve" smooth="yes"/>
      <point x="119" y="231"/>
      <point x="244" y="68"/>
      <point x="507" y="-9" type="curve" smooth="yes"/>
      <point x="754" y="-81"/>
      <point x="902" y="-157"/>
      <point x="1162" y="-364" type="curve"/>
    </contour>
    <contour>
      <point x="654" y="101" type="curve" smooth="yes"/>
      <point x="439" y="101"/>
      <point x="311" y="251"/>
      <point x="311" y="505" type="curve" smooth="yes"/>
      <point x="311" y="847"/>
      <point x="522" y="1213"/>
      <point x="873" y="1213" type="curve" smooth="yes"/>
      <point x="1090" y="1213"/>
      <point x="1211" y="1071"/>
      <point x="1211" y="817" type="curve" smooth="yes"/>
      <point x="1211" y="495"/>
      <point x="1014" y="101"/>
    </contour>
  </outline>
  <guideline angle="76" x="629" y="0"/>
  <guideline angle="0" x="0" y="-364"/>
  <guideline angle="0" x="0" y="-209"/>
</glyph>
<glyph name="R" format="2">
  <advance width="1139"/>
  <unicode hex="0052"/>
  <anchor x="473" y="0" name="bottom"/>
  <anchor x="733" y="1314" name="top"/>
  <outline>
    <contour>
      <point x="38" y="0" type="line"/>
      <point x="366" y="1314" type="line"/>
      <point x="698" y="1314" type="line" smooth="yes"/>
      <point x="987" y="1314"/>
      <point x="1131" y="1204"/>
      <point x="1131" y="993" type="curve" smooth="yes"/>
      <point x="1131" y="729"/>
      <point x="901" y="559"/>
      <point x="542" y="559" type="curve" smooth="yes"/>
      <point x="332" y="559" type="line"/>
      <point x="364" y="687" type="line"/>
      <point x="554" y="687" type="line" smooth="yes"/>
      <point x="798" y="687"/>
      <point x="940" y="795"/>
      <point x="940" y="980" type="curve" smooth="yes"/>
      <point x="940" y="1125"/>
      <point x="855" y="1185"/>
      <point x="653" y="1185" type="curve" smooth="yes"/>
      <point x="487" y="1185" type="line"/>
      <point x="526" y="1215" type="line"/>
      <point x="222" y="0" type="line"/>
    </contour>
    <contour>
      <point x="796" y="0" type="line"/>
      <point x="470" y="589" type="line"/>
      <point x="655" y="601" type="line"/>
      <point x="1003" y="0" type="line"/>
    </contour>
  </outline>
  <guideline angle="76.0015" x="204.38" y="0"/>
  <guideline angle="0" x="0" y="679"/>
  <guideline angle="90" x="511" y="0"/>
</glyph>
<glyph name="S" format="2">
  <advance width="1005"/>
  <unicode hex="0053"/>
  <anchor x="396" y="0" name="bottom"/>
  <anchor x="709" y="1314" name="top"/>
  <anchor x="1192" y="1314" name="topright"/>
  <outline>
    <contour>
      <point x="27" y="104" type="line"/>
      <point x="75" y="58"/>
      <point x="207" y="-24"/>
      <point x="413" y="-24" type="curve" smooth="yes"/>
      <point x="727" y="-24"/>
      <point x="905" y="161"/>
      <point x="905" y="384" type="curve" smooth="yes"/>
      <point x="905" y="578"/>
      <point x="757" y="666"/>
      <point x="621" y="741" type="curve" smooth="yes"/>
      <point x="491" y="813"/>
      <point x="390" y="865"/>
      <point x="390" y="981" type="curve" smooth="yes"/>
      <point x="390" y="1127"/>
      <point x="526" y="1209"/>
      <point x="705" y="1209" type="curve" smooth="yes"/>
      <point x="814" y="1209"/>
      <point x="928" y="1177"/>
      <point x="1005" y="1123" type="curve"/>
      <point x="1042" y="1249" type="line"/>
      <point x="960" y="1302"/>
      <point x="840" y="1338"/>
      <point x="707" y="1338" type="curve" smooth="yes"/>
      <point x="423" y="1338"/>
      <point x="206" y="1179"/>
      <point x="206" y="954" type="curve" smooth="yes"/>
      <point x="206" y="772"/>
      <point x="342" y="691"/>
      <point x="474" y="618" type="curve" smooth="yes"/>
      <point x="613" y="541"/>
      <point x="719" y="488"/>
      <point x="719" y="357" type="curve" smooth="yes"/>
      <point x="719" y="214"/>
      <point x="605" y="108"/>
      <point x="390" y="108" type="curve" smooth="yes"/>
      <point x="247" y="108"/>
      <point x="121" y="157"/>
      <point x="17" y="249" type="curve"/>
      <point x="9" y="243" type="line"/>
    </contour>
  </outline>
  <guideline angle="76.0015" x="-40.3262" y="0"/>
</glyph>
<glyph name="T" format="2">
  <advance width="1026"/>
  <unicode hex="0054"/>
  <anchor x="388" y="0" name="bottom"/>
  <anchor x="723" y="1314" name="top"/>
  <outline>
    <contour>
      <point x="299" y="0" type="line"/>
      <point x="602" y="1215" type="line"/>
      <point x="788" y="1215" type="line"/>
      <point x="484" y="0" type="line"/>
    </contour>
    <contour>
      <point x="198" y="1185" type="line"/>
      <point x="230" y="1314" type="line"/>
      <point x="1216" y="1314" type="line"/>
      <point x="1166" y="1185" type="line"/>
    </contour>
  </outline>
</glyph>
<glyph name="U" format="2">
  <advance width="1279"/>
  <unicode hex="0055"/>
  <anchor x="577" y="0" name="bottom"/>
  <anchor x="861" y="1314" name="top"/>
  <anchor x="1486" y="1314" name="topright"/>
  <outline>
    <contour>
      <point x="351" y="1314" type="line"/>
      <point x="165" y="566" type="line" smooth="yes"/>
      <point x="146" y="488"/>
      <point x="136" y="424"/>
      <point x="136" y="365" type="curve" smooth="yes"/>
      <point x="136" y="124"/>
      <point x="301" y="-22"/>
      <point x="574" y="-22" type="curve" smooth="yes"/>
      <point x="908" y="-22"/>
      <point x="1057" y="184"/>
      <point x="1147" y="542" type="curve" smooth="yes"/>
      <point x="1341" y="1314" type="line"/>
      <point x="1194" y="1314" type="line"/>
      <point x="1002" y="545" type="line" smooth="yes"/>
      <point x="937" y="286"/>
      <point x="844" y="101"/>
      <point x="593" y="101" type="curve" smooth="yes"/>
      <point x="417" y="101"/>
      <point x="319" y="197"/>
      <point x="319" y="371" type="curve" smooth="yes"/>
      <point x="319" y="439"/>
      <point x="334" y="500"/>
      <point x="354" y="582" type="curve" smooth="yes"/>
      <point x="536" y="1314" type="line"/>
    </contour>
  </outline>
  <guideline angle="0" x="0" y="869"/>
  <guideline angle="76.0015" x="23.8291" y="0"/>
</glyph>
<glyph name="V" format="2">
  <advance width="1186"/>
  <unicode hex="0056"/>
  <anchor x="498" y="0" name="bottom"/>
  <anchor x="775" y="1314" name="top"/>
  <outline>
    <contour>
      <point x="413" y="0" type="line"/>
      <point x="219" y="1314" type="line"/>
      <point x="410" y="1314" type="line"/>
      <point x="546" y="255" type="line"/>
      <point x="554" y="255" type="line"/>
      <point x="1190" y="1314" type="line"/>
      <point x="1360" y="1314" type="line"/>
      <point x="544" y="0" type="line"/>
    </contour>
  </outline>
</glyph>
<glyph name="W" format="2">
  <advance width="1799"/>
  <unicode hex="0057"/>
  <anchor x="798" y="0" name="bottom"/>
  <anchor x="1075" y="1314" name="top"/>
  <anchor x="2046" y="1314" name="topright"/>
  <outline>
    <contour>
      <point x="298" y="0" type="line"/>
      <point x="489" y="0" type="line"/>
      <point x="898" y="830" type="line" smooth="yes"/>
      <point x="941" y="918"/>
      <point x="968" y="970"/>
      <point x="999" y="1039" type="curve"/>
      <point x="1006" y="1039" type="line"/>
      <point x="1010" y="968"/>
      <point x="1012" y="900"/>
      <point x="1017" y="827" type="curve" smooth="yes"/>
      <point x="1066" y="0" type="line"/>
      <point x="1260" y="0" type="line"/>
      <point x="1966" y="1314" type="line"/>
      <point x="1808" y="1314" type="line"/>
      <point x="1314" y="398" type="line" smooth="yes"/>
      <point x="1277" y="329"/>
      <point x="1252" y="269"/>
      <point x="1235" y="221" type="curve"/>
      <point x="1228" y="221" type="line"/>
      <point x="1229" y="247"/>
      <point x="1225" y="323"/>
      <point x="1220" y="394" type="curve" smooth="yes"/>
      <point x="1167" y="1314" type="line"/>
      <point x="986" y="1314" type="line"/>
      <point x="547" y="412" type="line" smooth="yes"/>
      <point x="519" y="353"/>
      <point x="495" y="303"/>
      <point x="462" y="224" type="curve"/>
      <point x="455" y="224" type="line"/>
      <point x="458" y="290"/>
      <point x="457" y="353"/>
      <point x="455" y="413" type="curve" smooth="yes"/>
      <point x="428" y="1314" type="line"/>
      <point x="243" y="1314" type="line"/>
    </contour>
  </outline>
  <guideline angle="0" x="0" y="224"/>
  <guideline angle="0" x="0" y="1039"/>
</glyph>
<glyph name="X" format="2">
  <advance width="1066"/>
  <unicode hex="0058"/>
  <anchor x="426" y="0" name="bottom"/>
  <anchor x="740" y="1314" name="top"/>
  <outline>
    <contour>
      <point x="748" y="0" type="line"/>
      <point x="225" y="1314" type="line"/>
      <point x="412" y="1314" type="line"/>
      <point x="935" y="0" type="line"/>
    </contour>
    <contour>
      <point x="-112" y="0" type="line"/>
      <point x="501" y="689" type="line"/>
      <point x="555" y="555" type="line"/>
      <point x="73" y="0" type="line"/>
    </contour>
    <contour>
      <point x="600" y="776" type="line"/>
      <point x="1070" y="1314" type="line"/>
      <point x="1254" y="1314" type="line"/>
      <point x="653" y="641" type="line"/>
    </contour>
  </outline>
  <guideline angle="76.0015" x="-111.814" y="0"/>
</glyph>
<glyph name="Y" format="2">
  <advance width="1057"/>
  <unicode hex="0059"/>
  <anchor x="418" y="0" name="bottom"/>
  <anchor x="731" y="1314" name="top"/>
  <outline>
    <contour>
      <point x="317" y="0" type="line"/>
      <point x="450" y="534" type="line"/>
      <point x="202" y="1314" type="line"/>
      <point x="390" y="1314" type="line"/>
      <point x="587" y="681" type="line"/>
      <point x="595" y="681" type="line"/>
      <point x="1099" y="1314" type="line"/>
      <point x="1262" y="1314" type="line"/>
      <point x="628" y="524" type="line"/>
      <point x="498" y="0" type="line"/>
    </contour>
  </outline>
  <guideline angle="76.0123" x="464.668" y="0"/>
  <guideline angle="75.9422" x="285.033" y="0"/>
</glyph>
<glyph name="Z" format="2">
  <advance width="1029"/>
  <unicode hex="005A"/>
  <anchor x="405" y="0" name="bottom"/>
  <anchor x="732" y="1314" name="top"/>
  <anchor x="1256" y="1314" name="topright"/>
  <outline>
    <contour>
      <point x="-76" y="0" type="line"/>
      <point x="844" y="0" type="line"/>
      <point x="895" y="129" type="line"/>
      <point x="164" y="129" type="line"/>
      <point x="194" y="99" type="line"/>
      <point x="194" y="133" type="line"/>
      <point x="1150" y="1195" type="line"/>
      <point x="1180" y="1314" type="line"/>
      <point x="285" y="1314" type="line"/>
      <point x="253" y="1185" type="line"/>
      <point x="941" y="1185" type="line"/>
      <point x="911" y="1215" type="line"/>
      <point x="911" y="1180" type="line"/>
      <point x="-47" y="119" type="line"/>
    </contour>
  </outline>
  <guideline angle="76.0015" x="844.1" y="0"/>
  <guideline angle="76.0015" x="-42.1592" y="0"/>
</glyph>
<glyph name="bracketleft" format="2">
  <advance width="642"/>
  <unicode hex="005B"/>
  <outline>
    <contour>
      <point x="-43" y="-343" type="line"/>
      <point x="375" y="1338" type="line"/>
      <point x="810" y="1338" type="line"/>
      <point x="781" y="1222" type="line"/>
      <point x="432" y="1222" type="line"/>
      <point x="529" y="1298" type="line"/>
      <point x="130" y="-302" type="line"/>
      <point x="71" y="-226" type="line"/>
      <point x="421" y="-226" type="line"/>
      <point x="391" y="-343" type="line"/>
    </contour>
  </outline>
  <guideline angle="76.0015" x="537.988" y="0"/>
</glyph>
<glyph name="backslash" format="2">
  <advance width="846"/>
  <unicode hex="005C"/>
  <outline>
    <contour>
      <point x="527" y="-209" type="line"/>
      <point x="245" y="1414" type="line"/>
      <point x="407" y="1414" type="line"/>
      <point x="689" y="-209" type="line"/>
    </contour>
  </outline>
  <guideline angle="76.0015" x="-77.9028" y="0"/>
  <guideline angle="76.0015" x="741.452" y="0"/>
</glyph>
<glyph name="bracketright" format="2">
  <advance width="642"/>
  <unicode hex="005D"/>
  <outline>
    <contour>
      <point x="-162" y="-343" type="line"/>
      <point x="273" y="-343" type="line"/>
      <point x="691" y="1338" type="line"/>
      <point x="257" y="1338" type="line"/>
      <point x="227" y="1222" type="line"/>
      <point x="576" y="1222" type="line"/>
      <point x="518" y="1298" type="line"/>
      <point x="119" y="-302" type="line"/>
      <point x="216" y="-226" type="line"/>
      <point x="-133" y="-226" type="line"/>
    </contour>
  </outline>
</glyph>
<glyph name="asciicircum" format="2">
  <advance width="911"/>
  <unicode hex="005E"/>
  <outline>
    <contour>
      <point x="513" y="1196" type="line"/>
      <point x="471" y="1196" type="line"/>
      <point x="766" y="525" type="line"/>
      <point x="888" y="578" type="line"/>
      <point x="552" y="1314" type="line"/>
      <point x="433" y="1314" type="line"/>
      <point x="96" y="578" type="line"/>
      <point x="218" y="525" type="line"/>
    </contour>
  </outline>
</glyph>
<glyph name="a" format="2">
  <advance width="1080"/>
  <unicode hex="0061"/>
  <anchor x="472" y="0" name="bottom"/>
  <anchor x="644" y="938" name="top"/>
  <outline>
    <contour>
      <point x="703" y="175" type="line"/>
      <point x="644" y="61"/>
      <point x="507" y="-22"/>
      <point x="372" y="-22" type="curve" smooth="yes"/>
      <point x="189" y="-22"/>
      <point x="75" y="118"/>
      <point x="75" y="345" type="curve" smooth="yes"/>
      <point x="75" y="685"/>
      <point x="325" y="960"/>
      <point x="635" y="960" type="curve" smooth="yes"/>
      <point x="730" y="960"/>
      <point x="809" y="934"/>
      <point x="880" y="880" type="curve"/>
      <point x="852" y="768" type="line"/>
      <point x="783" y="819"/>
      <point x="714" y="843"/>
      <point x="638" y="843" type="curve" smooth="yes"/>
      <point x="402" y="843"/>
      <point x="256" y="610"/>
      <point x="256" y="355" type="curve" smooth="yes"/>
      <point x="256" y="189"/>
      <point x="322" y="97"/>
      <point x="439" y="97" type="curve" smooth="yes"/>
      <point x="552" y="97"/>
      <point x="663" y="184"/>
      <point x="743" y="336" type="curve"/>
    </contour>
    <contour>
      <point x="677" y="0" type="line"/>
      <point x="670" y="27"/>
      <point x="667" y="57"/>
      <point x="667" y="87" type="curve" smooth="yes"/>
      <point x="667" y="133"/>
      <point x="674" y="181"/>
      <point x="691" y="247" type="curve" smooth="yes"/>
      <point x="838" y="834" type="line"/>
      <point x="878" y="938" type="line"/>
      <point x="1038" y="938" type="line"/>
      <point x="859" y="217" type="line" smooth="yes"/>
      <point x="844" y="156"/>
      <point x="836" y="99"/>
      <point x="836" y="47" type="curve" smooth="yes"/>
      <point x="836" y="28"/>
      <point x="837" y="14"/>
      <point x="838" y="0" type="curve"/>
    </contour>
  </outline>
  <guideline angle="76.0015" x="410" y="0"/>
  <guideline angle="90" x="83" y="0"/>
  <guideline angle="255.941" x="868" y="834"/>
</glyph>
<glyph name="b" format="2">
  <advance width="1083"/>
  <unicode hex="0062"/>
  <anchor x="431" y="0" name="bottom"/>
  <anchor x="689" y="1417" name="top"/>
  <anchor x="1106" y="938" name="topright"/>
  <outline>
    <contour>
      <point x="33" y="0" type="line"/>
      <point x="194" y="0" type="line"/>
      <point x="235" y="104" type="line"/>
      <point x="565" y="1430" type="line"/>
      <point x="383" y="1402" type="line"/>
    </contour>
    <contour>
      <point x="185" y="66" type="line"/>
      <point x="261" y="6"/>
      <point x="345" y="-22"/>
      <point x="446" y="-22" type="curve" smooth="yes"/>
      <point x="755" y="-22"/>
      <point x="1001" y="249"/>
      <point x="1001" y="588" type="curve" smooth="yes"/>
      <point x="1001" y="819"/>
      <point x="885" y="960"/>
      <point x="694" y="960" type="curve" smooth="yes"/>
      <point x="576" y="960"/>
      <point x="439" y="897"/>
      <point x="385" y="821" type="curve"/>
      <point x="348" y="676" type="line"/>
      <point x="415" y="777"/>
      <point x="523" y="840"/>
      <point x="628" y="840" type="curve" smooth="yes"/>
      <point x="752" y="840"/>
      <point x="820" y="748"/>
      <point x="820" y="579" type="curve" smooth="yes"/>
      <point x="820" y="302"/>
      <point x="657" y="94"/>
      <point x="440" y="94" type="curve" smooth="yes"/>
      <point x="365" y="94"/>
      <point x="299" y="117"/>
      <point x="221" y="171" type="curve"/>
    </contour>
  </outline>
  <guideline angle="76.0248" x="205" y="104"/>
</glyph>
<glyph name="c" format="2">
  <advance width="895"/>
  <unicode hex="0063"/>
  <anchor x="424" y="0" name="bottom"/>
  <anchor x="618" y="938" name="top"/>
  <outline>
    <contour>
      <point x="865" y="783" type="line"/>
      <point x="799" y="816"/>
      <point x="729" y="833"/>
      <point x="658" y="833" type="curve" smooth="yes"/>
      <point x="427" y="833"/>
      <point x="258" y="641"/>
      <point x="258" y="381" type="curve" smooth="yes"/>
      <point x="258" y="199"/>
      <point x="344" y="104"/>
      <point x="510" y="104" type="curve" smooth="yes"/>
      <point x="592" y="104"/>
      <point x="694" y="127"/>
      <point x="755" y="159" type="curve"/>
      <point x="762" y="154" type="line"/>
      <point x="702" y="32" type="line"/>
      <point x="641" y="-1"/>
      <point x="544" y="-22"/>
      <point x="456" y="-22" type="curve" smooth="yes"/>
      <point x="220" y="-22"/>
      <point x="77" y="124"/>
      <point x="77" y="365" type="curve" smooth="yes"/>
      <point x="77" y="697"/>
      <point x="335" y="960"/>
      <point x="659" y="960" type="curve" smooth="yes"/>
      <point x="748" y="960"/>
      <point x="831" y="940"/>
      <point x="895" y="902" type="curve"/>
    </contour>
  </outline>
  <guideline angle="76.0015" x="670.881" y="0"/>
</glyph>
<glyph name="d" format="2">
  <advance width="1084"/>
  <unicode hex="0064"/>
  <anchor x="457" y="0" name="bottom"/>
  <anchor x="809" y="1417" name="top"/>
  <outline>
    <contour>
      <point x="711" y="186" type="line"/>
      <point x="653" y="67"/>
      <point x="512" y="-22"/>
      <point x="372" y="-22" type="curve" smooth="yes"/>
      <point x="188" y="-22"/>
      <point x="75" y="117"/>
      <point x="75" y="344" type="curve" smooth="yes"/>
      <point x="75" y="684"/>
      <point x="325" y="960"/>
      <point x="634" y="960" type="curve" smooth="yes"/>
      <point x="726" y="960"/>
      <point x="813" y="935"/>
      <point x="886" y="889" type="curve"/>
      <point x="858" y="778" type="line"/>
      <point x="784" y="821"/>
      <point x="711" y="843"/>
      <point x="639" y="843" type="curve" smooth="yes"/>
      <point x="420" y="843"/>
      <point x="256" y="632"/>
      <point x="256" y="354" type="curve" smooth="yes"/>
      <point x="256" y="189"/>
      <point x="321" y="97"/>
      <point x="438" y="97" type="curve" smooth="yes"/>
      <point x="554" y="97"/>
      <point x="666" y="187"/>
      <point x="752" y="350" type="curve"/>
    </contour>
    <contour>
      <point x="682" y="0" type="line"/>
      <point x="675" y="27"/>
      <point x="672" y="57"/>
      <point x="672" y="87" type="curve" smooth="yes"/>
      <point x="672" y="133"/>
      <point x="680" y="181"/>
      <point x="696" y="247" type="curve" smooth="yes"/>
      <point x="983" y="1402" type="line"/>
      <point x="1166" y="1430" type="line"/>
      <point x="863" y="217" type="line" smooth="yes"/>
      <point x="848" y="156"/>
      <point x="840" y="99"/>
      <point x="840" y="47" type="curve" smooth="yes"/>
      <point x="840" y="28"/>
      <point x="841" y="14"/>
      <point x="842" y="0" type="curve"/>
    </contour>
  </outline>
</glyph>
<glyph name="e" format="2">
  <advance width="939"/>
  <unicode hex="0065"/>
  <anchor x="406" y="0" name="bottom"/>
  <anchor x="603" y="938" name="top"/>
  <outline>
    <contour>
      <point x="224" y="505" type="line"/>
      <point x="571" y="530"/>
      <point x="739" y="603"/>
      <point x="739" y="730" type="curve" smooth="yes"/>
      <point x="739" y="801"/>
      <point x="690" y="846"/>
      <point x="611" y="846" type="curve" smooth="yes"/>
      <point x="425" y="846"/>
      <point x="254" y="617"/>
      <point x="254" y="369" type="curve" smooth="yes"/>
      <point x="254" y="194"/>
      <point x="336" y="104"/>
      <point x="495" y="104" type="curve" smooth="yes"/>
      <point x="593" y="104"/>
      <point x="715" y="139"/>
      <point x="780" y="186" type="curve"/>
      <point x="786" y="181" type="line"/>
      <point x="722" y="49" type="line"/>
      <point x="654" y="5"/>
      <point x="543" y="-23"/>
      <point x="441" y="-23" type="curve" smooth="yes"/>
      <point x="211" y="-23"/>
      <point x="75" y="117"/>
      <point x="75" y="354" type="curve" smooth="yes"/>
      <point x="75" y="678"/>
      <point x="337" y="960"/>
      <point x="639" y="960" type="curve" smooth="yes"/>
      <point x="803" y="960"/>
      <point x="907" y="874"/>
      <point x="907" y="739" type="curve" smooth="yes"/>
      <point x="907" y="546"/>
      <point x="692" y="439"/>
      <point x="224" y="406" type="curve"/>
    </contour>
  </outline>
  <guideline angle="90" x="971" y="0"/>
  <guideline angle="76.0015" x="413.343" y="0"/>
  <guideline angle="76.0015" x="743.285" y="0"/>
  <guideline angle="90" x="224" y="0"/>
</glyph>
<glyph name="f" format="2">
  <advance width="590"/>
  <unicode hex="0066"/>
  <anchor x="154" y="0" name="bottom"/>
  <anchor x="626" y="1417" name="top"/>
  <outline>
    <contour>
      <point x="33" y="0" type="line"/>
      <point x="288" y="1024" type="line" smooth="yes"/>
      <point x="354" y="1290"/>
      <point x="503" y="1430"/>
      <point x="719" y="1430" type="curve" smooth="yes"/>
      <point x="778" y="1430"/>
      <point x="843" y="1418"/>
      <point x="883" y="1400" type="curve"/>
      <point x="852" y="1280" type="line"/>
      <point x="813" y="1294"/>
      <point x="771" y="1302"/>
      <point x="729" y="1302" type="curve" smooth="yes"/>
      <point x="595" y="1302"/>
      <point x="514" y="1227"/>
      <point x="473" y="1063" type="curve" smooth="yes"/>
      <point x="207" y="0" type="line"/>
    </contour>
    <contour>
      <point x="100" y="811" type="line"/>
      <point x="142" y="921" type="line"/>
      <point x="361" y="928" type="line"/>
      <point x="685" y="928" type="line"/>
      <point x="655" y="811" type="line"/>
    </contour>
  </outline>
  <guideline angle="76.0015" x="528.823" y="0"/>
</glyph>
<glyph name="g" format="2">
  <advance width="1085"/>
  <unicode hex="0067"/>
  <anchor x="363" y="-419" name="bottom"/>
  <anchor x="644" y="938" name="top"/>
  <outline>
    <contour>
      <point x="709" y="177" type="line"/>
      <point x="642" y="61"/>
      <point x="507" y="-22"/>
      <point x="372" y="-22" type="curve" smooth="yes"/>
      <point x="189" y="-22"/>
      <point x="75" y="119"/>
      <point x="75" y="345" type="curve" smooth="yes"/>
      <point x="75" y="686"/>
      <point x="325" y="960"/>
      <point x="635" y="960" type="curve" smooth="yes"/>
      <point x="731" y="960"/>
      <point x="809" y="934"/>
      <point x="884" y="878" type="curve"/>
      <point x="856" y="766" type="line"/>
      <point x="786" y="818"/>
      <point x="715" y="843"/>
      <point x="638" y="843" type="curve" smooth="yes"/>
      <point x="400" y="843"/>
      <point x="256" y="604"/>
      <point x="256" y="355" type="curve" smooth="yes"/>
      <point x="256" y="190"/>
      <point x="322" y="97"/>
      <point x="439" y="97" type="curve" smooth="yes"/>
      <point x="554" y="97"/>
      <point x="665" y="187"/>
      <point x="752" y="351" type="curve"/>
    </contour>
    <contour>
      <point x="-3" y="-215" type="line"/>
      <point x="91" y="-276"/>
      <point x="208" y="-312"/>
      <point x="313" y="-312" type="curve" smooth="yes"/>
      <point x="484" y="-312"/>
      <point x="577" y="-231"/>
      <point x="625" y="-37" type="curve" smooth="yes"/>
      <point x="850" y="864" type="line"/>
      <point x="878" y="938" type="line"/>
      <point x="1043" y="938" type="line"/>
      <point x="806" y="-22" type="line" smooth="yes"/>
      <point x="738" y="-296"/>
      <point x="585" y="-433"/>
      <point x="346" y="-433" type="curve" smooth="yes"/>
      <point x="216" y="-433"/>
      <point x="71" y="-388"/>
      <point x="7" y="-335" type="curve"/>
      <point x="-10" y="-219" type="line"/>
    </contour>
  </outline>
  <guideline angle="255.979" x="880" y="864"/>
</glyph>
<glyph name="h" format="2">
  <advance width="1082"/>
  <unicode hex="0068"/>
  <anchor x="434" y="0" name="bottom"/>
  <anchor x="735" y="1417" name="top"/>
  <anchor x="1135" y="938" name="topright"/>
  <outline>
    <contour>
      <point x="33" y="0" type="line"/>
      <point x="209" y="0" type="line"/>
      <point x="565" y="1430" type="line"/>
      <point x="383" y="1402" type="line"/>
    </contour>
    <contour>
      <point x="643" y="0" type="line"/>
      <point x="819" y="0" type="line"/>
      <point x="967" y="598" type="line" smooth="yes"/>
      <point x="978" y="643"/>
      <point x="984" y="683"/>
      <point x="984" y="721" type="curve" smooth="yes"/>
      <point x="984" y="874"/>
      <point x="895" y="960"/>
      <point x="737" y="960" type="curve" smooth="yes"/>
      <point x="603" y="960"/>
      <point x="487" y="901"/>
      <point x="372" y="774" type="curve"/>
      <point x="336" y="597" type="line"/>
      <point x="371" y="717"/>
      <point x="525" y="824"/>
      <point x="664" y="824" type="curve" smooth="yes"/>
      <point x="756" y="824"/>
      <point x="806" y="778"/>
      <point x="806" y="693" type="curve" smooth="yes"/>
      <point x="806" y="669"/>
      <point x="802" y="641"/>
      <point x="791" y="597" type="curve" smooth="yes"/>
    </contour>
  </outline>
  <guideline angle="76.0203" x="122" y="0"/>
  <guideline angle="90" x="471" y="0"/>
  <guideline angle="0" x="0" y="1402"/>
</glyph>
<glyph name="i" format="2">
  <advance width="484"/>
  <unicode hex="0069"/>
  <anchor x="121" y="0" name="bottom"/>
  <anchor x="466" y="1370" name="top.mkmk"/>
  <outline>
    <contour>
      <point x="33" y="0" type="line"/>
      <point x="267" y="938" type="line"/>
      <point x="443" y="938" type="line"/>
      <point x="209" y="0" type="line"/>
    </contour>
    <contour>
      <point x="411" y="1120" type="curve" smooth="yes"/>
      <point x="352" y="1120"/>
      <point x="313" y="1157"/>
      <point x="313" y="1215" type="curve" smooth="yes"/>
      <point x="313" y="1284"/>
      <point x="368" y="1338"/>
      <point x="440" y="1338" type="curve" smooth="yes"/>
      <point x="500" y="1338"/>
      <point x="538" y="1300"/>
      <point x="538" y="1242" type="curve" smooth="yes"/>
      <point x="538" y="1173"/>
      <point x="483" y="1120"/>
    </contour>
  </outline>
  <guideline angle="90" x="121" y="0"/>
  <guideline angle="76.0015" x="120.978" y="0"/>
</glyph>
<glyph name="j" format="2">
  <advance width="483"/>
  <unicode hex="006A"/>
  <anchor x="-72" y="-419" name="bottom"/>
  <anchor x="466" y="1370" name="top.mkmk"/>
  <outline>
    <contour>
      <point x="-299" y="-274" type="line"/>
      <point x="-257" y="-303"/>
      <point x="-210" y="-313"/>
      <point x="-172" y="-313" type="curve" smooth="yes"/>
      <point x="-46" y="-313"/>
      <point x="-19" y="-209"/>
      <point x="8" y="-99" type="curve" smooth="yes"/>
      <point x="267" y="938" type="line"/>
      <point x="442" y="938" type="line"/>
      <point x="186" y="-85" type="line" smooth="yes"/>
      <point x="163" y="-178"/>
      <point x="104" y="-428"/>
      <point x="-137" y="-428" type="curve" smooth="yes"/>
      <point x="-191" y="-428"/>
      <point x="-244" y="-415"/>
      <point x="-290" y="-388" type="curve"/>
      <point x="-306" y="-278" type="line"/>
    </contour>
    <contour>
      <point x="411" y="1120" type="curve" smooth="yes"/>
      <point x="352" y="1120"/>
      <point x="313" y="1157"/>
      <point x="313" y="1215" type="curve" smooth="yes"/>
      <point x="313" y="1284"/>
      <point x="368" y="1338"/>
      <point x="440" y="1338" type="curve" smooth="yes"/>
      <point x="500" y="1338"/>
      <point x="538" y="1300"/>
      <point x="538" y="1242" type="curve" smooth="yes"/>
      <point x="538" y="1173"/>
      <point x="483" y="1120"/>
    </contour>
  </outline>
</glyph>
<glyph name="k" format="2">
  <advance width="975"/>
  <unicode hex="006B"/>
  <anchor x="416" y="0" name="bottom"/>
  <anchor x="705" y="1417" name="top"/>
  <anchor x="1098" y="938" name="topright"/>
  <outline>
    <contour>
      <point x="33" y="0" type="line"/>
      <point x="209" y="0" type="line"/>
      <point x="565" y="1430" type="line"/>
      <point x="383" y="1402" type="line"/>
    </contour>
    <contour>
      <point x="634" y="0" type="line"/>
      <point x="833" y="0" type="line"/>
      <point x="502" y="535" type="line"/>
      <point x="494" y="503" type="line"/>
      <point x="1014" y="938" type="line"/>
      <point x="823" y="938" type="line"/>
      <point x="323" y="515" type="line"/>
    </contour>
  </outline>
  <guideline angle="76.0015" x="827.603" y="0"/>
</glyph>
<glyph name="l" format="2">
  <advance width="484"/>
  <unicode hex="006C"/>
  <anchor x="122" y="0" name="bottom"/>
  <anchor x="479" y="1417" name="top"/>
  <anchor x="716" y="1417" name="topright"/>
  <outline>
    <contour>
      <point x="34" y="0" type="line"/>
      <point x="210" y="0" type="line"/>
      <point x="566" y="1430" type="line"/>
      <point x="384" y="1402" type="line"/>
    </contour>
  </outline>
</glyph>
<glyph name="m" format="2">
  <advance width="1655"/>
  <unicode hex="006D"/>
  <anchor x="728" y="0" name="bottom"/>
  <anchor x="933" y="938" name="top"/>
  <anchor x="1708" y="938" name="topright"/>
  <outline>
    <contour>
      <point x="33" y="0" type="line"/>
      <point x="208" y="0" type="line"/>
      <point x="389" y="722" type="line"/>
      <point x="394" y="748" type="line" smooth="yes"/>
      <point x="399" y="772"/>
      <point x="404" y="821"/>
      <point x="404" y="856" type="curve" smooth="yes"/>
      <point x="404" y="885"/>
      <point x="401" y="914"/>
      <point x="394" y="938" type="curve"/>
      <point x="239" y="938" type="line"/>
      <point x="237" y="861"/>
      <point x="220" y="751"/>
      <point x="199" y="665" type="curve" smooth="yes"/>
    </contour>
    <contour>
      <point x="625" y="0" type="line"/>
      <point x="801" y="0" type="line"/>
      <point x="949" y="598" type="line" smooth="yes"/>
      <point x="961" y="648"/>
      <point x="966" y="686"/>
      <point x="966" y="723" type="curve" smooth="yes"/>
      <point x="966" y="874"/>
      <point x="879" y="960"/>
      <point x="724" y="960" type="curve" smooth="yes"/>
      <point x="595" y="960"/>
      <point x="484" y="903"/>
      <point x="373" y="777" type="curve"/>
      <point x="338" y="585" type="line"/>
      <point x="358" y="707"/>
      <point x="512" y="824"/>
      <point x="651" y="824" type="curve" smooth="yes"/>
      <point x="739" y="824"/>
      <point x="787" y="777"/>
      <point x="787" y="693" type="curve" smooth="yes"/>
      <point x="787" y="667"/>
      <point x="783" y="636"/>
      <point x="773" y="597" type="curve" smooth="yes"/>
    </contour>
    <contour>
      <point x="1216" y="0" type="line"/>
      <point x="1392" y="0" type="line"/>
      <point x="1540" y="598" type="line" smooth="yes"/>
      <point x="1551" y="644"/>
      <point x="1557" y="687"/>
      <point x="1557" y="723" type="curve" smooth="yes"/>
      <point x="1557" y="874"/>
      <point x="1470" y="960"/>
      <point x="1315" y="960" type="curve" smooth="yes"/>
      <point x="1179" y="960"/>
      <point x="1061" y="897"/>
      <point x="940" y="760" type="curve"/>
      <point x="935" y="597" type="line"/>
      <point x="952" y="710"/>
      <point x="1106" y="824"/>
      <point x="1241" y="824" type="curve" smooth="yes"/>
      <point x="1329" y="824"/>
      <point x="1378" y="778"/>
      <point x="1378" y="694" type="curve" smooth="yes"/>
      <point x="1378" y="667"/>
      <point x="1373" y="634"/>
      <point x="1364" y="597" type="curve" smooth="yes"/>
    </contour>
  </outline>
  <guideline angle="0" x="0" y="629"/>
</glyph>
<glyph name="n" format="2">
  <advance width="1084"/>
  <unicode hex="006E"/>
  <anchor x="434" y="0" name="bottom"/>
  <anchor x="650" y="938" name="top"/>
  <outline>
    <contour>
      <point x="33" y="0" type="line"/>
      <point x="199" y="665" type="line" smooth="yes"/>
      <point x="220" y="751"/>
      <point x="237" y="861"/>
      <point x="239" y="938" type="curve"/>
      <point x="394" y="938" type="line"/>
      <point x="401" y="914"/>
      <point x="404" y="885"/>
      <point x="404" y="856" type="curve" smooth="yes"/>
      <point x="404" y="821"/>
      <point x="399" y="772"/>
      <point x="394" y="748" type="curve" smooth="yes"/>
      <point x="389" y="722" type="line"/>
      <point x="208" y="0" type="line"/>
    </contour>
    <contour>
      <point x="643" y="0" type="line"/>
      <point x="791" y="597" type="line" smooth="yes"/>
      <point x="802" y="641"/>
      <point x="806" y="669"/>
      <point x="806" y="693" type="curve" smooth="yes"/>
      <point x="806" y="778"/>
      <point x="756" y="824"/>
      <point x="664" y="824" type="curve" smooth="yes"/>
      <point x="529" y="824"/>
      <point x="376" y="719"/>
      <point x="335" y="596" type="curve"/>
      <point x="370" y="771" type="line"/>
      <point x="483" y="899"/>
      <point x="599" y="960"/>
      <point x="736" y="960" type="curve" smooth="yes"/>
      <point x="896" y="960"/>
      <point x="984" y="873"/>
      <point x="984" y="722" type="curve" smooth="yes"/>
      <point x="984" y="687"/>
      <point x="978" y="644"/>
      <point x="967" y="598" type="curve" smooth="yes"/>
      <point x="819" y="0" type="line"/>
    </contour>
  </outline>
</glyph>
<glyph name="o" format="2">
  <advance width="1091"/>
  <unicode hex="006F"/>
  <anchor x="448" y="0" name="bottom"/>
  <anchor x="653" y="938" name="top"/>
  <outline>
    <contour>
      <point x="451" y="-22" type="curve" smooth="yes"/>
      <point x="213" y="-22"/>
      <point x="77" y="118"/>
      <point x="77" y="359" type="curve" smooth="yes"/>
      <point x="77" y="662"/>
      <point x="293" y="960"/>
      <point x="639" y="960" type="curve" smooth="yes"/>
      <point x="875" y="960"/>
      <point x="1010" y="821"/>
      <point x="1010" y="581" type="curve" smooth="yes"/>
      <point x="1010" y="282"/>
      <point x="801" y="-22"/>
    </contour>
    <contour>
      <point x="469" y="95" type="curve" smooth="yes"/>
      <point x="667" y="95"/>
      <point x="829" y="312"/>
      <point x="829" y="579" type="curve" smooth="yes"/>
      <point x="829" y="750"/>
      <point x="757" y="843"/>
      <point x="620" y="843" type="curve" smooth="yes"/>
      <point x="382" y="843"/>
      <point x="258" y="575"/>
      <point x="258" y="364" type="curve" smooth="yes"/>
      <point x="258" y="192"/>
      <point x="334" y="95"/>
    </contour>
  </outline>
  <guideline angle="90" x="541" y="0"/>
</glyph>
<glyph name="p" format="2">
  <advance width="1081"/>
  <unicode hex="0070"/>
  <anchor x="264" y="-419" name="bottom"/>
  <anchor x="607" y="938" name="top"/>
  <outline>
    <contour>
      <point x="-71" y="-419" type="line"/>
      <point x="199" y="665" type="line" smooth="yes"/>
      <point x="221" y="754"/>
      <point x="237" y="866"/>
      <point x="239" y="938" type="curve"/>
      <point x="394" y="938" type="line"/>
      <point x="400" y="915"/>
      <point x="404" y="886"/>
      <point x="404" y="857" type="curve" smooth="yes"/>
      <point x="404" y="819"/>
      <point x="398" y="759"/>
      <point x="389" y="722" type="curve" smooth="yes"/>
      <point x="104" y="-419" type="line"/>
    </contour>
    <contour>
      <point x="191" y="49" type="curve"/>
      <point x="219" y="160" type="line"/>
      <point x="290" y="116"/>
      <point x="363" y="94"/>
      <point x="437" y="94" type="curve" smooth="yes"/>
      <point x="665" y="94"/>
      <point x="820" y="309"/>
      <point x="820" y="578" type="curve" smooth="yes"/>
      <point x="820" y="748"/>
      <point x="753" y="840"/>
      <point x="629" y="840" type="curve" smooth="yes"/>
      <point x="518" y="840"/>
      <point x="399" y="764"/>
      <point x="344" y="657" type="curve"/>
      <point x="378" y="811" type="line"/>
      <point x="434" y="894"/>
      <point x="574" y="960"/>
      <point x="694" y="960" type="curve" smooth="yes"/>
      <point x="885" y="960"/>
      <point x="1001" y="819"/>
      <point x="1001" y="588" type="curve" smooth="yes"/>
      <point x="1001" y="247"/>
      <point x="754" y="-22"/>
      <point x="442" y="-22" type="curve" smooth="yes"/>
      <point x="350" y="-22"/>
      <point x="261" y="3"/>
    </contour>
  </outline>
  <guideline angle="75.9756" x="74" y="-419"/>
</glyph>
<glyph name="q" format="2">
  <advance width="1084"/>
  <unicode hex="0071"/>
  <anchor x="425" y="-419" name="bottom"/>
  <anchor x="644" y="938" name="top"/>
  <anchor x="1197" y="938" name="topright"/>
  <outline>
    <contour>
      <point x="706" y="170" type="curve"/>
      <point x="752" y="355" type="line"/>
      <point x="670" y="189"/>
      <point x="558" y="97"/>
      <point x="436" y="97" type="curve" smooth="yes"/>
      <point x="319" y="97"/>
      <point x="256" y="185"/>
      <point x="256" y="350" type="curve" smooth="yes"/>
      <point x="256" y="621"/>
      <point x="411" y="843"/>
      <point x="640" y="843" type="curve" smooth="yes"/>
      <point x="716" y="843"/>
      <point x="786" y="818"/>
      <point x="855" y="767" type="curve"/>
      <point x="883" y="878" type="line"/>
      <point x="810" y="934"/>
      <point x="731" y="960"/>
      <point x="635" y="960" type="curve" smooth="yes"/>
      <point x="325" y="960"/>
      <point x="75" y="685"/>
      <point x="75" y="342" type="curve" smooth="yes"/>
      <point x="75" y="115"/>
      <point x="186" y="-22"/>
      <point x="370" y="-22" type="curve" smooth="yes"/>
      <point x="504" y="-22"/>
      <point x="630" y="54"/>
    </contour>
    <contour>
      <point x="529" y="-419" type="line"/>
      <point x="705" y="-419" type="line"/>
      <point x="1043" y="938" type="line"/>
      <point x="877" y="938" type="line"/>
      <point x="849" y="864" type="line"/>
    </contour>
  </outline>
</glyph>
<glyph name="r" format="2">
  <advance width="665"/>
  <unicode hex="0072"/>
  <anchor x="151" y="0" name="bottom"/>
  <anchor x="499" y="938" name="top"/>
  <anchor x="828" y="938" name="topright"/>
  <outline>
    <contour>
      <point x="33" y="0" type="line"/>
      <point x="208" y="0" type="line"/>
      <point x="378" y="678" type="line" smooth="yes"/>
      <point x="396" y="751"/>
      <point x="404" y="805"/>
      <point x="404" y="854" type="curve" smooth="yes"/>
      <point x="404" y="885"/>
      <point x="401" y="915"/>
      <point x="394" y="938" type="curve"/>
      <point x="239" y="938" type="line"/>
      <point x="237" y="866"/>
      <point x="221" y="754"/>
      <point x="199" y="665" type="curve" smooth="yes"/>
    </contour>
    <contour>
      <point x="309" y="520" type="line"/>
      <point x="352" y="690"/>
      <point x="518" y="798"/>
      <point x="672" y="798" type="curve" smooth="yes"/>
      <point x="696" y="798"/>
      <point x="715" y="796"/>
      <point x="732" y="792" type="curve"/>
      <point x="771" y="947" type="line"/>
      <point x="748" y="953"/>
      <point x="725" y="956"/>
      <point x="703" y="956" type="curve" smooth="yes"/>
      <point x="579" y="956"/>
      <point x="451" y="872"/>
      <point x="362" y="731" type="curve"/>
    </contour>
  </outline>
  <guideline angle="76.0015" x="535.238" y="0"/>
  <guideline angle="255.924" x="348" y="678"/>
</glyph>
<glyph name="s" format="2">
  <advance width="818"/>
  <unicode hex="0073"/>
  <anchor x="315" y="0" name="bottom"/>
  <anchor x="516" y="938" name="top"/>
  <outline>
    <contour>
      <point x="16" y="82" type="curve"/>
      <point x="0" y="197" type="line"/>
      <point x="7" y="201" type="line"/>
      <point x="87" y="142"/>
      <point x="203" y="104"/>
      <point x="305" y="104" type="curve" smooth="yes"/>
      <point x="436" y="104"/>
      <point x="523" y="163"/>
      <point x="523" y="251" type="curve" smooth="yes"/>
      <point x="523" y="330"/>
      <point x="456" y="366"/>
      <point x="357" y="417" type="curve" smooth="yes"/>
      <point x="251" y="472"/>
      <point x="134" y="532"/>
      <point x="134" y="679" type="curve" smooth="yes"/>
      <point x="134" y="844"/>
      <point x="290" y="960"/>
      <point x="511" y="960" type="curve" smooth="yes"/>
      <point x="614" y="960"/>
      <point x="724" y="933"/>
      <point x="790" y="893" type="curve"/>
      <point x="760" y="774" type="line"/>
      <point x="699" y="812"/>
      <point x="606" y="835"/>
      <point x="518" y="835" type="curve" smooth="yes"/>
      <point x="387" y="835"/>
      <point x="300" y="782"/>
      <point x="300" y="702" type="curve" smooth="yes"/>
      <point x="300" y="636"/>
      <point x="357" y="603"/>
      <point x="453" y="553" type="curve" smooth="yes"/>
      <point x="562" y="496"/>
      <point x="689" y="430"/>
      <point x="689" y="269" type="curve" smooth="yes"/>
      <point x="689" y="99"/>
      <point x="539" y="-22"/>
      <point x="329" y="-22" type="curve" smooth="yes"/>
      <point x="211" y="-22"/>
      <point x="92" y="17"/>
    </contour>
  </outline>
  <guideline angle="76.0015" x="630.555" y="0"/>
</glyph>
<glyph name="t" format="2">
  <advance width="627"/>
  <unicode hex="0074"/>
  <anchor x="267" y="0" name="bottom"/>
  <anchor x="423" y="1188" name="top"/>
  <outline>
    <contour>
      <point x="469" y="40" type="line"/>
      <point x="415" y="1"/>
      <point x="343" y="-22"/>
      <point x="273" y="-22" type="curve" smooth="yes"/>
      <point x="155" y="-22"/>
      <point x="88" y="39"/>
      <point x="88" y="146" type="curve" smooth="yes"/>
      <point x="88" y="171"/>
      <point x="92" y="200"/>
      <point x="102" y="240" type="curve" smooth="yes"/>
      <point x="335" y="1173" type="line"/>
      <point x="515" y="1201" type="line"/>
      <point x="280" y="260" type="line" smooth="yes"/>
      <point x="268" y="213"/>
      <point x="265" y="195"/>
      <point x="265" y="175" type="curve" smooth="yes"/>
      <point x="265" y="124"/>
      <point x="291" y="103"/>
      <point x="352" y="103" type="curve" smooth="yes"/>
      <point x="405" y="103"/>
      <point x="451" y="118"/>
      <point x="518" y="159" type="curve"/>
      <point x="524" y="153" type="line"/>
    </contour>
    <contour>
      <point x="105" y="811" type="line"/>
      <point x="148" y="921" type="line"/>
      <point x="357" y="928" type="line"/>
      <point x="677" y="928" type="line"/>
      <point x="648" y="811" type="line"/>
    </contour>
  </outline>
  <guideline angle="76.0015" x="526.99" y="0"/>
</glyph>
<glyph name="u" format="2">
  <advance width="1078"/>
  <unicode hex="0075"/>
  <anchor x="465" y="0" name="bottom"/>
  <anchor x="639" y="938" name="top"/>
  <anchor x="1191" y="938" name="topright"/>
  <outline>
    <contour>
      <point x="703" y="183" type="curve"/>
      <point x="729" y="349" type="line"/>
      <point x="703" y="224"/>
      <point x="555" y="114"/>
      <point x="412" y="114" type="curve" smooth="yes"/>
      <point x="319" y="114"/>
      <point x="270" y="160"/>
      <point x="270" y="245" type="curve" smooth="yes"/>
      <point x="270" y="269"/>
      <point x="274" y="297"/>
      <point x="285" y="341" type="curve" smooth="yes"/>
      <point x="433" y="938" type="line"/>
      <point x="257" y="938" type="line"/>
      <point x="109" y="340" type="line" smooth="yes"/>
      <point x="98" y="294"/>
      <point x="92" y="252"/>
      <point x="92" y="214" type="curve" smooth="yes"/>
      <point x="92" y="65"/>
      <point x="183" y="-22"/>
      <point x="337" y="-22" type="curve" smooth="yes"/>
      <point x="475" y="-22"/>
      <point x="594" y="45"/>
    </contour>
    <contour>
      <point x="675" y="0" type="curve"/>
      <point x="836" y="0" type="line"/>
      <point x="835" y="14"/>
      <point x="834" y="28"/>
      <point x="834" y="47" type="curve" smooth="yes"/>
      <point x="834" y="99"/>
      <point x="842" y="156"/>
      <point x="857" y="217" type="curve" smooth="yes"/>
      <point x="1037" y="938" type="line"/>
      <point x="862" y="938" type="line"/>
      <point x="689" y="247" type="line" smooth="yes"/>
      <point x="672" y="181"/>
      <point x="665" y="133"/>
      <point x="665" y="87" type="curve" smooth="yes"/>
      <point x="665" y="57"/>
      <point x="668" y="27"/>
    </contour>
  </outline>
</glyph>
<glyph name="v" format="2">
  <advance width="929"/>
  <unicode hex="0076"/>
  <anchor x="360" y="0" name="bottom"/>
  <anchor x="560" y="938" name="top"/>
  <anchor x="1072" y="938" name="topright"/>
  <outline>
    <contour>
      <point x="257" y="0" type="line"/>
      <point x="440" y="0" type="line"/>
      <point x="1025" y="938" type="line"/>
      <point x="862" y="938" type="line"/>
      <point x="399" y="168" type="line"/>
      <point x="390" y="168" type="line"/>
      <point x="287" y="938" type="line"/>
      <point x="111" y="938" type="line"/>
    </contour>
  </outline>
</glyph>
<glyph name="w" format="2">
  <advance width="1401"/>
  <unicode hex="0077"/>
  <anchor x="592" y="0" name="bottom"/>
  <anchor x="807" y="938" name="top"/>
  <outline>
    <contour>
      <point x="164" y="0" type="line"/>
      <point x="136" y="938" type="line"/>
      <point x="310" y="938" type="line"/>
      <point x="316" y="337" type="line" smooth="yes"/>
      <point x="317" y="279"/>
      <point x="317" y="222"/>
      <point x="310" y="162" type="curve"/>
      <point x="317" y="162" type="line"/>
      <point x="343" y="222"/>
      <point x="377" y="281"/>
      <point x="407" y="340" type="curve" smooth="yes"/>
      <point x="717" y="938" type="line"/>
      <point x="911" y="938" type="line"/>
      <point x="942" y="337" type="line" smooth="yes"/>
      <point x="946" y="273"/>
      <point x="947" y="229"/>
      <point x="942" y="162" type="curve"/>
      <point x="949" y="162" type="line"/>
      <point x="976" y="231"/>
      <point x="996" y="270"/>
      <point x="1031" y="340" type="curve" smooth="yes"/>
      <point x="1327" y="938" type="line"/>
      <point x="1493" y="938" type="line"/>
      <point x="993" y="0" type="line"/>
      <point x="796" y="0" type="line"/>
      <point x="763" y="591" type="line" smooth="yes"/>
      <point x="760" y="648"/>
      <point x="760" y="703"/>
      <point x="763" y="757" type="curve"/>
      <point x="755" y="757" type="line"/>
      <point x="733" y="708"/>
      <point x="700" y="650"/>
      <point x="671" y="592" type="curve" smooth="yes"/>
      <point x="368" y="0" type="line"/>
    </contour>
  </outline>
  <guideline angle="107.087" x="253.872" y="0"/>
</glyph>
<glyph name="x" format="2">
  <advance width="898"/>
  <unicode hex="0078"/>
  <anchor x="331" y="0" name="bottom"/>
  <anchor x="546" y="938" name="top"/>
  <anchor x="1041" y="938" name="topright"/>
  <outline>
    <contour>
      <point x="573" y="0" type="line"/>
      <point x="761" y="0" type="line"/>
      <point x="324" y="938" type="line"/>
      <point x="137" y="938" type="line"/>
    </contour>
    <contour>
      <point x="-109" y="0" type="line"/>
      <point x="63" y="0" type="line"/>
      <point x="426" y="387" type="line"/>
      <point x="372" y="500" type="line"/>
    </contour>
    <contour>
      <point x="463" y="572" type="line"/>
      <point x="516" y="459" type="line"/>
      <point x="982" y="938" type="line"/>
      <point x="811" y="938" type="line"/>
    </contour>
  </outline>
  <guideline angle="76.0015" x="-109.064" y="0"/>
  <guideline angle="76.0015" x="760.698" y="0"/>
</glyph>
<glyph name="y" format="2">
  <advance width="929"/>
  <unicode hex="0079"/>
  <anchor x="263" y="-419" name="bottom"/>
  <anchor x="566" y="938" name="top"/>
  <anchor x="1072" y="938" name="topright"/>
  <outline>
    <contour>
      <point x="-139" y="-234" type="curve"/>
      <point x="-146" y="-238" type="line"/>
      <point x="-124" y="-395" type="line"/>
      <point x="-87" y="-416"/>
      <point x="-45" y="-426"/>
      <point x="3" y="-426" type="curve" smooth="yes"/>
      <point x="124" y="-426"/>
      <point x="218" y="-357"/>
      <point x="320" y="-194" type="curve" smooth="yes"/>
      <point x="1027" y="938" type="line"/>
      <point x="865" y="938" type="line"/>
      <point x="221" y="-125" type="line" smooth="yes"/>
      <point x="161" y="-224"/>
      <point x="100" y="-267"/>
      <point x="10" y="-267" type="curve" smooth="yes"/>
      <point x="-40" y="-267"/>
      <point x="-85" y="-257"/>
    </contour>
    <contour>
      <point x="284" y="-21" type="line"/>
      <point x="290" y="-25"/>
      <point x="302" y="-27"/>
      <point x="325" y="-27" type="curve"/>
      <point x="449" y="199" type="line"/>
      <point x="409" y="199" type="line"/>
      <point x="283" y="938" type="line"/>
      <point x="107" y="938" type="line"/>
    </contour>
  </outline>
</glyph>
<glyph name="z" format="2">
  <advance width="884"/>
  <unicode hex="007A"/>
  <anchor x="343" y="0" name="bottom"/>
  <anchor x="562" y="938" name="top"/>
  <outline>
    <contour>
      <point x="-49" y="0" type="line"/>
      <point x="-21" y="114" type="line"/>
      <point x="640" y="807" type="line"/>
      <point x="640" y="842" type="line"/>
      <point x="670" y="812" type="line"/>
      <point x="170" y="812" type="line"/>
      <point x="202" y="938" type="line"/>
      <point x="905" y="938" type="line"/>
      <point x="875" y="824" type="line"/>
      <point x="216" y="129" type="line"/>
      <point x="216" y="96" type="line"/>
      <point x="186" y="126" type="line"/>
      <point x="731" y="126" type="line"/>
      <point x="682" y="0" type="line"/>
    </contour>
  </outline>
  <guideline angle="76.0015" x="-49.4912" y="0"/>
  <guideline angle="76.0015" x="695.626" y="0"/>
</glyph>
<glyph name="braceleft" format="2">
  <advance width="737"/>
  <unicode hex="007B"/>
  <outline>
    <contour>
      <point x="61" y="445" type="line"/>
      <point x="188" y="429"/>
      <point x="245" y="395"/>
      <point x="245" y="310" type="curve" smooth="yes"/>
      <point x="245" y="285"/>
      <point x="240" y="260"/>
      <point x="232" y="226" type="curve" smooth="yes"/>
      <point x="198" y="85"/>
      <point x="143" y="-40"/>
      <point x="143" y="-142" type="curve" smooth="yes"/>
      <point x="143" y="-251"/>
      <point x="206" y="-348"/>
      <point x="395" y="-348" type="curve" smooth="yes"/>
      <point x="421" y="-348"/>
      <point x="453" y="-347"/>
      <point x="487" y="-343" type="curve"/>
      <point x="516" y="-225" type="line"/>
      <point x="492" y="-228"/>
      <point x="471" y="-230"/>
      <point x="449" y="-230" type="curve" smooth="yes"/>
      <point x="336" y="-230"/>
      <point x="304" y="-184"/>
      <point x="304" y="-124" type="curve" smooth="yes"/>
      <point x="304" y="-96"/>
      <point x="312" y="-64"/>
      <point x="320" y="-33" type="curve" smooth="yes"/>
      <point x="362" y="132"/>
      <point x="401" y="227"/>
      <point x="401" y="309" type="curve" smooth="yes"/>
      <point x="401" y="396"/>
      <point x="358" y="455"/>
      <point x="246" y="490" type="curve"/>
      <point x="247" y="498" type="line"/>
      <point x="423" y="535"/>
      <point x="494" y="626"/>
      <point x="532" y="774" type="curve" smooth="yes"/>
      <point x="548" y="837"/>
      <point x="564" y="935"/>
      <point x="584" y="1016" type="curve" smooth="yes"/>
      <point x="611" y="1120"/>
      <point x="650" y="1225"/>
      <point x="812" y="1225" type="curve" smooth="yes"/>
      <point x="833" y="1225"/>
      <point x="853" y="1224"/>
      <point x="876" y="1221" type="curve"/>
      <point x="906" y="1337" type="line"/>
      <point x="867" y="1342"/>
      <point x="831" y="1345"/>
      <point x="791" y="1345" type="curve" smooth="yes"/>
      <point x="567" y="1345"/>
      <point x="471" y="1235"/>
      <point x="422" y="1043" type="curve" smooth="yes"/>
      <point x="402" y="965"/>
      <point x="381" y="839"/>
      <point x="365" y="773" type="curve" smooth="yes"/>
      <point x="330" y="631"/>
      <point x="265" y="570"/>
      <point x="88" y="551" type="curve"/>
    </contour>
  </outline>
  <guideline angle="0" x="0" y="567"/>
  <guideline angle="76.0015" x="571.898" y="0"/>
  <guideline angle="76.0015" x="251.122" y="0"/>
  <guideline angle="76.0015" x="769.863" y="0"/>
</glyph>
<glyph name="bar" format="2">
  <advance width="658"/>
  <unicode hex="007C"/>
  <outline>
    <contour>
      <point x="11" y="-456" type="line"/>
      <point x="178" y="-456" type="line"/>
      <point x="655" y="1460" type="line"/>
      <point x="488" y="1460" type="line"/>
    </contour>
  </outline>
</glyph>
<glyph name="braceright" format="2">
  <advance width="737"/>
  <unicode hex="007D"/>
  <outline>
    <contour>
      <point x="-162" y="-340" type="line"/>
      <point x="-123" y="-345"/>
      <point x="-88" y="-348"/>
      <point x="-48" y="-348" type="curve" smooth="yes"/>
      <point x="176" y="-348"/>
      <point x="273" y="-238"/>
      <point x="322" y="-46" type="curve" smooth="yes"/>
      <point x="342" y="32"/>
      <point x="363" y="159"/>
      <point x="379" y="225" type="curve" smooth="yes"/>
      <point x="414" y="367"/>
      <point x="478" y="427"/>
      <point x="655" y="446" type="curve"/>
      <point x="682" y="553" type="line"/>
      <point x="555" y="569"/>
      <point x="499" y="602"/>
      <point x="499" y="687" type="curve" smooth="yes"/>
      <point x="499" y="712"/>
      <point x="503" y="737"/>
      <point x="511" y="771" type="curve" smooth="yes"/>
      <point x="545" y="912"/>
      <point x="600" y="1037"/>
      <point x="600" y="1139" type="curve" smooth="yes"/>
      <point x="600" y="1248"/>
      <point x="537" y="1345"/>
      <point x="348" y="1345" type="curve" smooth="yes"/>
      <point x="322" y="1345"/>
      <point x="292" y="1344"/>
      <point x="258" y="1340" type="curve"/>
      <point x="228" y="1223" type="line"/>
      <point x="252" y="1226"/>
      <point x="272" y="1227"/>
      <point x="294" y="1227" type="curve" smooth="yes"/>
      <point x="407" y="1227"/>
      <point x="439" y="1181"/>
      <point x="439" y="1121" type="curve" smooth="yes"/>
      <point x="439" y="1093"/>
      <point x="431" y="1061"/>
      <point x="423" y="1030" type="curve" smooth="yes"/>
      <point x="381" y="865"/>
      <point x="342" y="770"/>
      <point x="342" y="688" type="curve" smooth="yes"/>
      <point x="342" y="601"/>
      <point x="386" y="542"/>
      <point x="498" y="507" type="curve"/>
      <point x="497" y="499" type="line"/>
      <point x="321" y="462"/>
      <point x="250" y="372"/>
      <point x="212" y="224" type="curve" smooth="yes"/>
      <point x="196" y="161"/>
      <point x="179" y="62"/>
      <point x="159" y="-19" type="curve" smooth="yes"/>
      <point x="132" y="-123"/>
      <point x="93" y="-228"/>
      <point x="-69" y="-228" type="curve" smooth="yes"/>
      <point x="-90" y="-228"/>
      <point x="-110" y="-227"/>
      <point x="-133" y="-224" type="curve"/>
    </contour>
  </outline>
</glyph>
<glyph name="asciitilde" format="2">
  <advance width="1118"/>
  <unicode hex="007E"/>
  <outline>
    <contour>
      <point x="1083" y="574" type="curve"/>
      <point x="961" y="610" type="line"/>
      <point x="931" y="521"/>
      <point x="879" y="460"/>
      <point x="790" y="460" type="curve" smooth="yes"/>
      <point x="729" y="460"/>
      <point x="679" y="490"/>
      <point x="609" y="532" type="curve" smooth="yes"/>
      <point x="528" y="581"/>
      <point x="460" y="621"/>
      <point x="362" y="621" type="curve" smooth="yes"/>
      <point x="225" y="621"/>
      <point x="106" y="540"/>
      <point x="62" y="371" type="curve"/>
      <point x="184" y="335" type="line"/>
      <point x="216" y="430"/>
      <point x="275" y="484"/>
      <point x="359" y="484" type="curve" smooth="yes"/>
      <point x="419" y="484"/>
      <point x="464" y="457"/>
      <point x="536" y="413" type="curve" smooth="yes"/>
      <point x="616" y="364"/>
      <point x="687" y="324"/>
      <point x="784" y="324" type="curve" smooth="yes"/>
      <point x="921" y="324"/>
      <point x="1039" y="405"/>
    </contour>
  </outline>
</glyph>
<glyph name="exclamdown" format="2">
  <advance width="538"/>
  <unicode hex="00A1"/>
  <outline>
    <contour>
      <point x="-67" y="-415" type="line"/>
      <point x="145" y="-384" type="line"/>
      <point x="334" y="547" type="line"/>
      <point x="217" y="547" type="line"/>
    </contour>
    <contour>
      <point x="315" y="697" type="curve" smooth="yes"/>
      <point x="394" y="697"/>
      <point x="456" y="756"/>
      <point x="456" y="831" type="curve" smooth="yes"/>
      <point x="456" y="895"/>
      <point x="413" y="938"/>
      <point x="347" y="938" type="curve" smooth="yes"/>
      <point x="268" y="938"/>
      <point x="207" y="879"/>
      <point x="207" y="803" type="curve" smooth="yes"/>
      <point x="207" y="739"/>
      <point x="249" y="697"/>
    </contour>
  </outline>
</glyph>
<glyph name="sterling" format="2">
  <advance width="1017"/>
  <unicode hex="00A3"/>
  <outline>
    <contour>
      <point x="-24" y="0" type="line"/>
      <point x="6" y="120" type="line"/>
      <point x="176" y="230"/>
      <point x="303" y="359"/>
      <point x="303" y="543" type="curve" smooth="yes"/>
      <point x="303" y="587"/>
      <point x="296" y="623"/>
      <point x="283" y="679" type="curve" smooth="yes"/>
      <point x="270" y="735"/>
      <point x="257" y="794"/>
      <point x="257" y="868" type="curve" smooth="yes"/>
      <point x="257" y="1159"/>
      <point x="469" y="1338"/>
      <point x="745" y="1338" type="curve" smooth="yes"/>
      <point x="874" y="1338"/>
      <point x="1009" y="1298"/>
      <point x="1069" y="1257" type="curve"/>
      <point x="1032" y="1131" type="line"/>
      <point x="963" y="1171"/>
      <point x="866" y="1209"/>
      <point x="755" y="1209" type="curve" smooth="yes"/>
      <point x="546" y="1209"/>
      <point x="432" y="1078"/>
      <point x="432" y="893" type="curve" smooth="yes"/>
      <point x="432" y="836"/>
      <point x="443" y="791"/>
      <point x="456" y="728" type="curve" smooth="yes"/>
      <point x="467" y="675"/>
      <point x="476" y="620"/>
      <point x="476" y="566" type="curve" smooth="yes"/>
      <point x="476" y="388"/>
      <point x="376" y="257"/>
      <point x="205" y="141" type="curve"/>
      <point x="196" y="104" type="line"/>
      <point x="166" y="134" type="line"/>
      <point x="857" y="134" type="line"/>
      <point x="805" y="0" type="line"/>
    </contour>
    <contour>
      <point x="95" y="550" type="line"/>
      <point x="125" y="666" type="line"/>
      <point x="866" y="666" type="line"/>
      <point x="837" y="550" type="line"/>
    </contour>
  </outline>
  <guideline angle="68.6942" x="773.529" y="0"/>
  <guideline angle="76.0015" x="896.341" y="0"/>
  <guideline angle="76.0015" x="-63.2388" y="0"/>
</glyph>
<glyph name="currency" format="2">
  <advance width="1225"/>
  <unicode hex="00A4"/>
  <outline>
    <contour>
      <point x="652" y="209" type="curve" smooth="yes"/>
      <point x="915" y="209"/>
      <point x="1108" y="399"/>
      <point x="1108" y="658" type="curve" smooth="yes"/>
      <point x="1108" y="917"/>
      <point x="915" y="1108"/>
      <point x="652" y="1108" type="curve" smooth="yes"/>
      <point x="388" y="1108"/>
      <point x="196" y="918"/>
      <point x="196" y="658" type="curve" smooth="yes"/>
      <point x="196" y="399"/>
      <point x="389" y="209"/>
    </contour>
    <contour>
      <point x="652" y="335" type="curve" smooth="yes"/>
      <point x="466" y="335"/>
      <point x="335" y="468"/>
      <point x="335" y="658" type="curve" smooth="yes"/>
      <point x="335" y="849"/>
      <point x="465" y="982"/>
      <point x="652" y="982" type="curve" smooth="yes"/>
      <point x="839" y="982"/>
      <point x="969" y="849"/>
      <point x="969" y="658" type="curve" smooth="yes"/>
      <point x="969" y="468"/>
      <point x="838" y="335"/>
    </contour>
    <contour>
      <point x="218" y="130" type="line"/>
      <point x="398" y="309" type="line"/>
      <point x="303" y="403" type="line"/>
      <point x="124" y="225" type="line"/>
    </contour>
    <contour>
      <point x="1180" y="225" type="line"/>
      <point x="999" y="403" type="line"/>
      <point x="905" y="309" type="line"/>
      <point x="1085" y="130" type="line"/>
    </contour>
    <contour>
      <point x="1085" y="1186" type="line"/>
      <point x="905" y="1006" type="line"/>
      <point x="999" y="912" type="line"/>
      <point x="1180" y="1092" type="line"/>
    </contour>
    <contour>
      <point x="124" y="1092" type="line"/>
      <point x="303" y="912" type="line"/>
      <point x="398" y="1006" type="line"/>
      <point x="218" y="1186" type="line"/>
    </contour>
  </outline>
  <guideline angle="0" x="0" y="658"/>
</glyph>
<glyph name="yen" format="2">
  <advance width="1022"/>
  <unicode hex="00A5"/>
  <outline>
    <contour>
      <point x="301" y="0" type="line"/>
      <point x="481" y="0" type="line"/>
      <point x="629" y="595" type="line"/>
      <point x="1215" y="1314" type="line"/>
      <point x="1052" y="1314" type="line"/>
      <point x="596" y="752" type="line"/>
      <point x="588" y="752" type="line"/>
      <point x="405" y="1314" type="line"/>
      <point x="216" y="1314" type="line"/>
      <point x="451" y="605" type="line"/>
    </contour>
    <contour>
      <point x="77" y="248" type="line"/>
      <point x="829" y="248" type="line"/>
      <point x="858" y="365" type="line"/>
      <point x="105" y="365" type="line"/>
    </contour>
    <contour>
      <point x="133" y="475" type="line"/>
      <point x="885" y="475" type="line"/>
      <point x="915" y="591" type="line"/>
      <point x="162" y="591" type="line"/>
    </contour>
  </outline>
  <guideline angle="76.0015" x="300.613" y="0"/>
  <guideline angle="76.0339" x="481.165" y="0"/>
  <guideline angle="76.0015" x="-1862.34" y="0"/>
</glyph>
<glyph name="brokenbar" format="2">
  <advance width="603"/>
  <unicode hex="00A6"/>
  <outline>
    <contour>
      <point x="242" y="581" type="line"/>
      <point x="97" y="0" type="line"/>
      <point x="264" y="0" type="line"/>
      <point x="409" y="581" type="line"/>
    </contour>
    <contour>
      <point x="424" y="1314" type="line"/>
      <point x="280" y="733" type="line"/>
      <point x="446" y="733" type="line"/>
      <point x="591" y="1314" type="line"/>
    </contour>
  </outline>
  <guideline angle="76.0015" x="96.2329" y="0"/>
  <guideline angle="76.0015" x="263.037" y="0"/>
</glyph>
<glyph name="section" format="2">
  <advance width="968"/>
  <unicode hex="00A7"/>
  <outline>
    <contour>
      <point x="611" y="218" type="curve"/>
      <point x="525" y="299" type="line"/>
      <point x="638" y="326"/>
      <point x="721" y="400"/>
      <point x="721" y="504" type="curve" smooth="yes"/>
      <point x="721" y="607"/>
      <point x="638" y="653"/>
      <point x="523" y="719" type="curve" smooth="yes"/>
      <point x="413" y="782"/>
      <point x="296" y="851"/>
      <point x="296" y="1008" type="curve" smooth="yes"/>
      <point x="296" y="1197"/>
      <point x="468" y="1335"/>
      <point x="703" y="1335" type="curve" smooth="yes"/>
      <point x="806" y="1335"/>
      <point x="919" y="1307"/>
      <point x="971" y="1269" type="curve"/>
      <point x="940" y="1147" type="line"/>
      <point x="866" y="1190"/>
      <point x="794" y="1210"/>
      <point x="714" y="1210" type="curve" smooth="yes"/>
      <point x="564" y="1210"/>
      <point x="461" y="1141"/>
      <point x="461" y="1039" type="curve" smooth="yes"/>
      <point x="461" y="949"/>
      <point x="545" y="901"/>
      <point x="650" y="838" type="curve" smooth="yes"/>
      <point x="765" y="769"/>
      <point x="888" y="692"/>
      <point x="888" y="536" type="curve" smooth="yes"/>
      <point x="888" y="384"/>
      <point x="773" y="280"/>
    </contour>
    <contour>
      <point x="11" y="-171" type="curve"/>
      <point x="-5" y="-57" type="line"/>
      <point x="2" y="-53" type="line"/>
      <point x="81" y="-110"/>
      <point x="197" y="-147"/>
      <point x="294" y="-147" type="curve" smooth="yes"/>
      <point x="434" y="-147"/>
      <point x="523" y="-77"/>
      <point x="523" y="33" type="curve" smooth="yes"/>
      <point x="523" y="138"/>
      <point x="445" y="186"/>
      <point x="338" y="247" type="curve" smooth="yes"/>
      <point x="226" y="311"/>
      <point x="105" y="380"/>
      <point x="105" y="539" type="curve" smooth="yes"/>
      <point x="105" y="693"/>
      <point x="221" y="799"/>
      <point x="389" y="851" type="curve"/>
      <point x="481" y="774" type="line"/>
      <point x="360" y="748"/>
      <point x="271" y="675"/>
      <point x="271" y="576" type="curve" smooth="yes"/>
      <point x="271" y="483"/>
      <point x="346" y="439"/>
      <point x="439" y="385" type="curve" smooth="yes"/>
      <point x="570" y="309"/>
      <point x="691" y="230"/>
      <point x="691" y="60" type="curve" smooth="yes"/>
      <point x="691" y="-132"/>
      <point x="532" y="-272"/>
      <point x="315" y="-272" type="curve" smooth="yes"/>
      <point x="211" y="-272"/>
      <point x="68" y="-224"/>
    </contour>
  </outline>
  <guideline angle="76.0015" x="763.448" y="0"/>
</glyph>
<glyph name="copyright" format="2">
  <advance width="1619"/>
  <unicode hex="00A9"/>
  <outline>
    <contour>
      <point x="852" y="-24" type="curve" smooth="yes"/>
      <point x="1253" y="-24"/>
      <point x="1537" y="258"/>
      <point x="1537" y="656" type="curve" smooth="yes"/>
      <point x="1537" y="1055"/>
      <point x="1253" y="1338"/>
      <point x="852" y="1338" type="curve" smooth="yes"/>
      <point x="451" y="1338"/>
      <point x="168" y="1055"/>
      <point x="168" y="656" type="curve" smooth="yes"/>
      <point x="168" y="257"/>
      <point x="451" y="-24"/>
    </contour>
    <contour>
      <point x="851" y="87" type="curve" smooth="yes"/>
      <point x="526" y="87"/>
      <point x="300" y="321"/>
      <point x="300" y="656" type="curve" smooth="yes"/>
      <point x="300" y="993"/>
      <point x="526" y="1227"/>
      <point x="851" y="1227" type="curve" smooth="yes"/>
      <point x="1177" y="1227"/>
      <point x="1405" y="992"/>
      <point x="1405" y="656" type="curve" smooth="yes"/>
      <point x="1405" y="321"/>
      <point x="1177" y="87"/>
    </contour>
    <contour>
      <point x="1110" y="907" type="curve"/>
      <point x="1110" y="1028" type="line"/>
      <point x="1051" y="1062"/>
      <point x="972" y="1080"/>
      <point x="888" y="1080" type="curve" smooth="yes"/>
      <point x="619" y="1080"/>
      <point x="450" y="914"/>
      <point x="450" y="650" type="curve" smooth="yes"/>
      <point x="450" y="395"/>
      <point x="609" y="236"/>
      <point x="865" y="236" type="curve" smooth="yes"/>
      <point x="963" y="236"/>
      <point x="1053" y="261"/>
      <point x="1111" y="305" type="curve"/>
      <point x="1139" y="416" type="line"/>
      <point x="1132" y="423" type="line"/>
      <point x="1062" y="376"/>
      <point x="996" y="356"/>
      <point x="914" y="356" type="curve" smooth="yes"/>
      <point x="728" y="356"/>
      <point x="622" y="467"/>
      <point x="622" y="664" type="curve" smooth="yes"/>
      <point x="622" y="856"/>
      <point x="722" y="961"/>
      <point x="903" y="961" type="curve" smooth="yes"/>
      <point x="976" y="961"/>
      <point x="1041" y="944"/>
    </contour>
  </outline>
  <guideline angle="0" x="0" y="236"/>
  <guideline angle="0" x="0" y="1080"/>
  <guideline angle="0" x="0" y="792"/>
  <guideline angle="63.9553" x="835.852" y="0"/>
  <guideline angle="76.0015" x="883.51" y="0"/>
  <guideline angle="76.0015" x="603.976" y="0"/>
  <guideline angle="76.0015" x="1397.67" y="0"/>
</glyph>
<glyph name="ordfeminine" format="2">
  <advance width="734"/>
  <unicode hex="00AA"/>
  <outline>
    <contour>
      <point x="558" y="656" type="line"/>
      <point x="513" y="577"/>
      <point x="427" y="526"/>
      <point x="340" y="526" type="curve" smooth="yes"/>
      <point x="216" y="526"/>
      <point x="137" y="622"/>
      <point x="137" y="774" type="curve" smooth="yes"/>
      <point x="137" y="998"/>
      <point x="299" y="1175"/>
      <point x="504" y="1175" type="curve" smooth="yes"/>
      <point x="569" y="1175"/>
      <point x="622" y="1157"/>
      <point x="673" y="1117" type="curve"/>
      <point x="653" y="1036" type="line"/>
      <point x="608" y="1072"/>
      <point x="567" y="1088"/>
      <point x="519" y="1088" type="curve" smooth="yes"/>
      <point x="390" y="1088"/>
      <point x="290" y="952"/>
      <point x="290" y="777" type="curve" smooth="yes"/>
      <point x="290" y="676"/>
      <point x="330" y="619"/>
      <point x="400" y="619" type="curve" smooth="yes"/>
      <point x="471" y="619"/>
      <point x="538" y="676"/>
      <point x="585" y="778" type="curve"/>
    </contour>
    <contour>
      <point x="533" y="541" type="line"/>
      <point x="528" y="563"/>
      <point x="525" y="584"/>
      <point x="525" y="602" type="curve" smooth="yes"/>
      <point x="525" y="628"/>
      <point x="529" y="657"/>
      <point x="540" y="702" type="curve" smooth="yes"/>
      <point x="634" y="1081" type="line"/>
      <point x="665" y="1160" type="line"/>
      <point x="803" y="1160" type="line"/>
      <point x="686" y="690" type="line" smooth="yes"/>
      <point x="675" y="645"/>
      <point x="669" y="607"/>
      <point x="669" y="571" type="curve" smooth="yes"/>
      <point x="669" y="559"/>
      <point x="669" y="550"/>
      <point x="670" y="541" type="curve"/>
    </contour>
  </outline>
  <guideline angle="76.0015" color="1,0,0,1" x="764.364" y="0"/>
  <guideline angle="90" x="76" y="0"/>
</glyph>
<glyph name="guillemotleft" format="2">
  <advance width="953"/>
  <unicode hex="00AB"/>
  <outline>
    <contour>
      <point x="82" y="499" type="line"/>
      <point x="331" y="123" type="line"/>
      <point x="422" y="147" type="line"/>
      <point x="270" y="485" type="line"/>
      <point x="564" y="827" type="line"/>
      <point x="460" y="850" type="line"/>
    </contour>
    <contour>
      <point x="457" y="490" type="line"/>
      <point x="688" y="123" type="line"/>
      <point x="779" y="147" type="line"/>
      <point x="646" y="476" type="line"/>
      <point x="949" y="827" type="line"/>
      <point x="845" y="850" type="line"/>
    </contour>
  </outline>
  <guideline angle="0" x="0" y="481"/>
</glyph>
<glyph name="logicalnot" format="2">
  <advance width="1118"/>
  <unicode hex="00AC"/>
  <outline>
    <contour>
      <point x="109" y="578" type="line"/>
      <point x="907" y="578" type="line"/>
      <point x="907" y="170" type="line"/>
      <point x="1041" y="170" type="line"/>
      <point x="1041" y="708" type="line"/>
      <point x="109" y="708" type="line"/>
    </contour>
  </outline>
</glyph>
<glyph name="registered" format="2">
  <advance width="1286"/>
  <unicode hex="00AE"/>
  <outline>
    <contour>
      <point x="752" y="404" type="curve" smooth="yes"/>
      <point x="1059" y="404"/>
      <point x="1276" y="620"/>
      <point x="1276" y="925" type="curve" smooth="yes"/>
      <point x="1276" y="1230"/>
      <point x="1058" y="1446"/>
      <point x="752" y="1446" type="curve" smooth="yes"/>
      <point x="446" y="1446"/>
      <point x="228" y="1229"/>
      <point x="228" y="925" type="curve" smooth="yes"/>
      <point x="228" y="620"/>
      <point x="446" y="404"/>
    </contour>
    <contour>
      <point x="752" y="499" type="curve" smooth="yes"/>
      <point x="509" y="499"/>
      <point x="340" y="674"/>
      <point x="340" y="925" type="curve" smooth="yes"/>
      <point x="340" y="1176"/>
      <point x="509" y="1351"/>
      <point x="752" y="1351" type="curve" smooth="yes"/>
      <point x="995" y="1351"/>
      <point x="1164" y="1176"/>
      <point x="1164" y="925" type="curve" smooth="yes"/>
      <point x="1164" y="674"/>
      <point x="995" y="499"/>
    </contour>
    <contour>
      <point x="456" y="612" type="line"/>
      <point x="613" y="1243" type="line"/>
      <point x="807" y="1243" type="line" smooth="yes"/>
      <point x="954" y="1243"/>
      <point x="1029" y="1189"/>
      <point x="1029" y="1084" type="curve" smooth="yes"/>
      <point x="1029" y="954"/>
      <point x="912" y="871"/>
      <point x="727" y="871" type="curve" smooth="yes"/>
      <point x="622" y="871" type="line"/>
      <point x="643" y="953" type="line"/>
      <point x="734" y="953" type="line" smooth="yes"/>
      <point x="837" y="953"/>
      <point x="895" y="998"/>
      <point x="895" y="1076" type="curve" smooth="yes"/>
      <point x="895" y="1136"/>
      <point x="861" y="1160"/>
      <point x="777" y="1160" type="curve" smooth="yes"/>
      <point x="703" y="1160" type="line"/>
      <point x="732" y="1189" type="line"/>
      <point x="587" y="612" type="line"/>
    </contour>
    <contour>
      <point x="818" y="612" type="line"/>
      <point x="700" y="898" type="line"/>
      <point x="831" y="898" type="line"/>
      <point x="960" y="612" type="line"/>
    </contour>
  </outline>
  <guideline angle="76.0015" x="1064.06" y="0"/>
  <guideline angle="0" x="0" y="950"/>
</glyph>
<glyph name="degree" format="2">
  <advance width="875"/>
  <unicode hex="00B0"/>
  <outline>
    <contour>
      <point x="564" y="657" type="curve" smooth="yes"/>
      <point x="769" y="657"/>
      <point x="920" y="802"/>
      <point x="920" y="997" type="curve" smooth="yes"/>
      <point x="920" y="1193"/>
      <point x="768" y="1338"/>
      <point x="564" y="1338" type="curve" smooth="yes"/>
      <point x="360" y="1338"/>
      <point x="210" y="1193"/>
      <point x="210" y="997" type="curve" smooth="yes"/>
      <point x="210" y="801"/>
      <point x="360" y="657"/>
    </contour>
    <contour>
      <point x="564" y="789" type="curve" smooth="yes"/>
      <point x="446" y="789"/>
      <point x="364" y="875"/>
      <point x="364" y="997" type="curve" smooth="yes"/>
      <point x="364" y="1120"/>
      <point x="446" y="1206"/>
      <point x="564" y="1206" type="curve" smooth="yes"/>
      <point x="683" y="1206"/>
      <point x="766" y="1119"/>
      <point x="766" y="997" type="curve" smooth="yes"/>
      <point x="766" y="876"/>
      <point x="682" y="789"/>
    </contour>
  </outline>
  <guideline angle="90" x="437" y="0"/>
</glyph>
<glyph name="plusminus" format="2">
  <advance width="1118"/>
  <unicode hex="00B1"/>
  <outline>
    <contour>
      <point x="114" y="0" type="line"/>
      <point x="1059" y="0" type="line"/>
      <point x="1059" y="130" type="line"/>
      <point x="114" y="130" type="line"/>
    </contour>
    <contour>
      <point x="114" y="536" type="line"/>
      <point x="1059" y="536" type="line"/>
      <point x="1059" y="666" type="line"/>
      <point x="114" y="666" type="line"/>
    </contour>
    <contour>
      <point x="520" y="238" type="line"/>
      <point x="653" y="238" type="line"/>
      <point x="653" y="964" type="line"/>
      <point x="520" y="964" type="line"/>
    </contour>
  </outline>
</glyph>
<glyph name="twosuperior" format="2">
  <advance width="664"/>
  <unicode hex="00B2"/>
  <outline>
    <contour>
      <point x="56" y="571" type="line"/>
      <point x="608" y="571" type="line"/>
      <point x="649" y="672" type="line"/>
      <point x="214" y="672" type="line"/>
      <point x="239" y="647" type="line"/>
      <point x="246" y="678" type="line"/>
      <point x="603" y="937"/>
      <point x="761" y="1058"/>
      <point x="761" y="1225" type="curve" smooth="yes"/>
      <point x="761" y="1356"/>
      <point x="661" y="1441"/>
      <point x="507" y="1441" type="curve" smooth="yes"/>
      <point x="414" y="1441"/>
      <point x="315" y="1406"/>
      <point x="269" y="1371" type="curve"/>
      <point x="243" y="1265" type="line"/>
      <point x="305" y="1308"/>
      <point x="397" y="1338"/>
      <point x="463" y="1338" type="curve" smooth="yes"/>
      <point x="550" y="1338"/>
      <point x="603" y="1290"/>
      <point x="603" y="1210" type="curve" smooth="yes"/>
      <point x="603" y="1095"/>
      <point x="506" y="995"/>
      <point x="79" y="666" type="curve"/>
    </contour>
  </outline>
  <guideline angle="76" x="-86" y="0"/>
</glyph>
<glyph name="threesuperior" format="2">
  <advance width="695"/>
  <unicode hex="00B3"/>
  <outline>
    <contour>
      <point x="91" y="716" type="line"/>
      <point x="102" y="626" type="line"/>
      <point x="146" y="584"/>
      <point x="248" y="555"/>
      <point x="348" y="555" type="curve" smooth="yes"/>
      <point x="563" y="555"/>
      <point x="716" y="668"/>
      <point x="716" y="828" type="curve" smooth="yes"/>
      <point x="716" y="925"/>
      <point x="659" y="991"/>
      <point x="553" y="1018" type="curve"/>
      <point x="555" y="1023" type="line"/>
      <point x="695" y="1058"/>
      <point x="778" y="1141"/>
      <point x="778" y="1247" type="curve" smooth="yes"/>
      <point x="778" y="1363"/>
      <point x="675" y="1440"/>
      <point x="519" y="1440" type="curve" smooth="yes"/>
      <point x="446" y="1440"/>
      <point x="368" y="1423"/>
      <point x="293" y="1390" type="curve"/>
      <point x="269" y="1294" type="line"/>
      <point x="335" y="1323"/>
      <point x="412" y="1340"/>
      <point x="476" y="1340" type="curve" smooth="yes"/>
      <point x="574" y="1340"/>
      <point x="628" y="1299"/>
      <point x="628" y="1225" type="curve" smooth="yes"/>
      <point x="628" y="1123"/>
      <point x="529" y="1060"/>
      <point x="370" y="1060" type="curve" smooth="yes"/>
      <point x="354" y="1060"/>
      <point x="327" y="1060"/>
      <point x="301" y="1061" type="curve"/>
      <point x="277" y="963" type="line"/>
      <point x="316" y="966"/>
      <point x="346" y="967"/>
      <point x="363" y="967" type="curve" smooth="yes"/>
      <point x="496" y="967"/>
      <point x="563" y="921"/>
      <point x="563" y="830" type="curve" smooth="yes"/>
      <point x="563" y="723"/>
      <point x="473" y="657"/>
      <point x="329" y="657" type="curve" smooth="yes"/>
      <point x="242" y="657"/>
      <point x="153" y="681"/>
      <point x="96" y="721" type="curve"/>
    </contour>
  </outline>
  <guideline angle="76.089" x="430" y="0"/>
</glyph>
<glyph name="micro" format="2">
  <advance width="1102"/>
  <unicode hex="00B5"/>
  <outline>
    <contour>
      <point x="-70" y="-419" type="line"/>
      <point x="104" y="-419" type="line"/>
      <point x="289" y="325" type="line"/>
      <point x="293" y="336" type="line"/>
      <point x="442" y="938" type="line"/>
      <point x="266" y="938" type="line"/>
    </contour>
    <contour>
      <point x="214" y="336" type="line"/>
      <point x="205" y="286"/>
      <point x="200" y="249"/>
      <point x="200" y="214" type="curve" smooth="yes"/>
      <point x="200" y="90"/>
      <point x="265" y="-22"/>
      <point x="416" y="-22" type="curve" smooth="yes"/>
      <point x="531" y="-22"/>
      <point x="632" y="48"/>
      <point x="727" y="181" type="curve"/>
      <point x="757" y="362" type="line"/>
      <point x="732" y="221"/>
      <point x="573" y="114"/>
      <point x="430" y="114" type="curve" smooth="yes"/>
      <point x="338" y="114"/>
      <point x="279" y="156"/>
      <point x="279" y="243" type="curve" smooth="yes"/>
      <point x="279" y="268"/>
      <point x="284" y="299"/>
      <point x="293" y="336" type="curve"/>
    </contour>
    <contour>
      <point x="699" y="0" type="curve"/>
      <point x="860" y="0" type="line"/>
      <point x="859" y="14"/>
      <point x="858" y="28"/>
      <point x="858" y="47" type="curve" smooth="yes"/>
      <point x="858" y="90"/>
      <point x="863" y="145"/>
      <point x="881" y="217" type="curve" smooth="yes"/>
      <point x="1060" y="938" type="line"/>
      <point x="885" y="938" type="line"/>
      <point x="713" y="247" type="line" smooth="yes"/>
      <point x="700" y="196"/>
      <point x="689" y="143"/>
      <point x="689" y="87" type="curve" smooth="yes"/>
      <point x="689" y="59"/>
      <point x="692" y="29"/>
    </contour>
  </outline>
</glyph>
<glyph name="paragraph" format="2">
  <advance width="1189"/>
  <unicode hex="00B6"/>
  <outline>
    <contour>
      <point x="372" y="-295" type="line"/>
      <point x="545" y="-269" type="line"/>
      <point x="908" y="1187" type="line"/>
      <point x="1037" y="1187" type="line"/>
      <point x="680" y="-249" type="line"/>
      <point x="853" y="-223" type="line"/>
      <point x="1236" y="1314" type="line"/>
      <point x="776" y="1314" type="line" smooth="yes"/>
      <point x="399" y="1314"/>
      <point x="181" y="1146"/>
      <point x="181" y="864" type="curve" smooth="yes"/>
      <point x="181" y="649"/>
      <point x="322" y="536"/>
      <point x="578" y="531" type="curve"/>
    </contour>
  </outline>
  <guideline angle="8.42425" x="0" y="-349.188"/>
</glyph>
<glyph name="onesuperior" format="2">
  <advance width="519"/>
  <unicode hex="00B9"/>
  <outline>
    <contour>
      <point x="257" y="571" type="line"/>
      <point x="434" y="1281" type="line"/>
      <point x="369" y="1243"/>
      <point x="287" y="1208"/>
      <point x="206" y="1184" type="curve"/>
      <point x="200" y="1188" type="line"/>
      <point x="221" y="1270" type="line"/>
      <point x="312" y="1310"/>
      <point x="400" y="1360"/>
      <point x="493" y="1425" type="curve"/>
      <point x="622" y="1425" type="line"/>
      <point x="408" y="571" type="line"/>
    </contour>
  </outline>
  <guideline angle="76" x="266" y="0"/>
</glyph>
<glyph name="ordmasculine" format="2">
  <advance width="730"/>
  <unicode hex="00BA"/>
  <outline>
    <contour>
      <point x="400" y="525" type="curve" smooth="yes"/>
      <point x="637" y="525"/>
      <point x="775" y="721"/>
      <point x="775" y="919" type="curve" smooth="yes"/>
      <point x="775" y="1079"/>
      <point x="679" y="1174"/>
      <point x="516" y="1174" type="curve" smooth="yes"/>
      <point x="296" y="1174"/>
      <point x="137" y="1000"/>
      <point x="137" y="782" type="curve" smooth="yes"/>
      <point x="137" y="620"/>
      <point x="235" y="525"/>
    </contour>
    <contour>
      <point x="410" y="609" type="curve" smooth="yes"/>
      <point x="332" y="609"/>
      <point x="290" y="667"/>
      <point x="290" y="773" type="curve" smooth="yes"/>
      <point x="290" y="936"/>
      <point x="380" y="1091"/>
      <point x="506" y="1091" type="curve" smooth="yes"/>
      <point x="583" y="1091"/>
      <point x="624" y="1034"/>
      <point x="624" y="929" type="curve" smooth="yes"/>
      <point x="624" y="758"/>
      <point x="530" y="609"/>
    </contour>
  </outline>
  <guideline angle="90" color="1,0,0,1" x="532" y="0"/>
</glyph>
<glyph name="guillemotright" format="2">
  <advance width="953"/>
  <unicode hex="00BB"/>
  <outline>
    <contour>
      <point x="5" y="146" type="line"/>
      <point x="307" y="497" type="line"/>
      <point x="174" y="826" type="line"/>
      <point x="265" y="850" type="line"/>
      <point x="496" y="482" type="line"/>
      <point x="108" y="123" type="line"/>
    </contour>
    <contour>
      <point x="390" y="146" type="line"/>
      <point x="683" y="497" type="line"/>
      <point x="532" y="826" type="line"/>
      <point x="622" y="850" type="line"/>
      <point x="872" y="482" type="line"/>
      <point x="493" y="123" type="line"/>
    </contour>
  </outline>
  <guideline angle="0" x="0" y="481"/>
</glyph>
<glyph name="questiondown" format="2">
  <advance width="818"/>
  <unicode hex="00BF"/>
  <outline>
    <contour>
      <point x="537" y="-349" type="curve"/>
      <point x="570" y="-214" type="line"/>
      <point x="510" y="-244"/>
      <point x="403" y="-292"/>
      <point x="292" y="-292" type="curve" smooth="yes"/>
      <point x="184" y="-292"/>
      <point x="101" y="-247"/>
      <point x="101" y="-126" type="curve" smooth="yes"/>
      <point x="101" y="2"/>
      <point x="196" y="64"/>
      <point x="300" y="136" type="curve" smooth="yes"/>
      <point x="448" y="239"/>
      <point x="552" y="316"/>
      <point x="572" y="547" type="curve"/>
      <point x="456" y="547" type="line"/>
      <point x="435" y="397"/>
      <point x="365" y="344"/>
      <point x="197" y="231" type="curve" smooth="yes"/>
      <point x="67" y="144"/>
      <point x="-71" y="52"/>
      <point x="-71" y="-137" type="curve" smooth="yes"/>
      <point x="-71" y="-326"/>
      <point x="66" y="-423"/>
      <point x="249" y="-423" type="curve" smooth="yes"/>
      <point x="375" y="-423"/>
      <point x="488" y="-376"/>
    </contour>
    <contour>
      <point x="543" y="697" type="curve" smooth="yes"/>
      <point x="622" y="697"/>
      <point x="683" y="755"/>
      <point x="683" y="831" type="curve" smooth="yes"/>
      <point x="683" y="896"/>
      <point x="640" y="938"/>
      <point x="575" y="938" type="curve" smooth="yes"/>
      <point x="496" y="938"/>
      <point x="434" y="879"/>
      <point x="434" y="803" type="curve" smooth="yes"/>
      <point x="434" y="739"/>
      <point x="477" y="697"/>
    </contour>
  </outline>
  <guideline angle="76.0015" x="-65.9883" y="0"/>
</glyph>
<glyph name="AE" format="2">
  <advance width="1585"/>
  <unicode hex="00C6"/>
  <anchor x="716" y="0" name="bottom"/>
  <anchor x="1255" y="1314" name="top"/>
  <anchor x="1812" y="1314" name="topright"/>
  <outline>
    <contour>
      <point x="-171" y="0" type="line"/>
      <point x="14" y="0" type="line"/>
      <point x="916" y="1185" type="line"/>
      <point x="1667" y="1185" type="line"/>
      <point x="1718" y="1314" type="line"/>
      <point x="857" y="1314" type="line"/>
    </contour>
    <contour>
      <point x="336" y="462" type="line"/>
      <point x="795" y="462" type="line"/>
      <point x="827" y="589" type="line"/>
      <point x="432" y="589" type="line"/>
    </contour>
    <contour>
      <point x="651" y="0" type="line"/>
      <point x="1410" y="0" type="line"/>
      <point x="1443" y="129" type="line"/>
      <point x="829" y="129" type="line"/>
      <point x="860" y="98" type="line"/>
      <point x="1139" y="1215" type="line"/>
      <point x="953" y="1215" type="line"/>
    </contour>
    <contour>
      <point x="960" y="619" type="line"/>
      <point x="1449" y="619" type="line"/>
      <point x="1481" y="746" type="line"/>
      <point x="992" y="746" type="line"/>
    </contour>
  </outline>
  <guideline angle="0" x="0" y="741"/>
</glyph>
<glyph name="Eth" format="2">
  <advance width="1390"/>
  <unicode hex="00D0"/>
  <anchor x="532" y="0" name="bottom"/>
  <anchor x="847" y="1314" name="top"/>
  <anchor x="1497" y="1314" name="topright"/>
  <outline>
    <contour>
      <point x="84" y="0" type="line"/>
      <point x="422" y="0" type="line" smooth="yes"/>
      <point x="1201" y="0"/>
      <point x="1358" y="535"/>
      <point x="1358" y="819" type="curve" smooth="yes"/>
      <point x="1358" y="1131"/>
      <point x="1153" y="1314"/>
      <point x="763" y="1314" type="curve" smooth="yes"/>
      <point x="412" y="1314" type="line"/>
    </contour>
    <contour>
      <point x="271" y="129" type="line"/>
      <point x="294" y="100" type="line"/>
      <point x="572" y="1214" type="line"/>
      <point x="535" y="1185" type="line"/>
      <point x="732" y="1185" type="line" smooth="yes"/>
      <point x="1039" y="1185"/>
      <point x="1167" y="1069"/>
      <point x="1167" y="795" type="curve" smooth="yes"/>
      <point x="1167" y="396"/>
      <point x="895" y="129"/>
      <point x="441" y="129" type="curve" smooth="yes"/>
    </contour>
    <contour>
      <point x="86" y="619" type="line"/>
      <point x="719" y="619" type="line"/>
      <point x="769" y="746" type="line"/>
      <point x="118" y="746" type="line"/>
    </contour>
  </outline>
  <guideline angle="90" x="425" y="0"/>
</glyph>
<glyph name="multiply" format="2">
  <advance width="1118"/>
  <unicode hex="00D7"/>
  <outline>
    <contour>
      <point x="132" y="833" type="line"/>
      <point x="226" y="928" type="line"/>
      <point x="1041" y="113" type="line"/>
      <point x="947" y="18" type="line"/>
    </contour>
    <contour>
      <point x="132" y="113" type="line"/>
      <point x="947" y="928" type="line"/>
      <point x="1041" y="833" type="line"/>
      <point x="226" y="18" type="line"/>
    </contour>
  </outline>
</glyph>
<glyph name="Oslash" format="2">
  <advance width="1434"/>
  <unicode hex="00D8"/>
  <anchor x="630" y="0" name="bottom"/>
  <anchor x="927" y="1314" name="top"/>
  <outline>
    <contour>
      <point x="652" y="-24" type="curve" smooth="yes"/>
      <point x="319" y="-24"/>
      <point x="119" y="177"/>
      <point x="119" y="510" type="curve" smooth="yes"/>
      <point x="119" y="918"/>
      <point x="409" y="1338"/>
      <point x="875" y="1338" type="curve" smooth="yes"/>
      <point x="1204" y="1338"/>
      <point x="1401" y="1140"/>
      <point x="1401" y="810" type="curve" smooth="yes"/>
      <point x="1401" y="352"/>
      <point x="1077" y="-24"/>
    </contour>
    <contour>
      <point x="653" y="101" type="curve" smooth="yes"/>
      <point x="1005" y="101"/>
      <point x="1209" y="484"/>
      <point x="1209" y="817" type="curve" smooth="yes"/>
      <point x="1209" y="1072"/>
      <point x="1089" y="1213"/>
      <point x="873" y="1213" type="curve" smooth="yes"/>
      <point x="500" y="1213"/>
      <point x="310" y="814"/>
      <point x="310" y="505" type="curve" smooth="yes"/>
      <point x="310" y="251"/>
      <point x="438" y="101"/>
    </contour>
    <contour>
      <point x="175" y="-38" type="line"/>
      <point x="82" y="48" type="line"/>
      <point x="1345" y="1352" type="line"/>
      <point x="1438" y="1267" type="line"/>
    </contour>
  </outline>
  <guideline angle="0" x="0" y="1352"/>
</glyph>
<glyph name="Thorn" format="2">
  <advance width="1095"/>
  <unicode hex="00DE"/>
  <anchor x="386" y="0" name="bottom"/>
  <anchor x="709" y="1314" name="top"/>
  <outline>
    <contour>
      <point x="38" y="0" type="line"/>
      <point x="365" y="1314" type="line"/>
      <point x="550" y="1314" type="line"/>
      <point x="223" y="0" type="line"/>
    </contour>
    <contour>
      <point x="263" y="281" type="line"/>
      <point x="295" y="410" type="line"/>
      <point x="492" y="410" type="line" smooth="yes"/>
      <point x="743" y="410"/>
      <point x="888" y="524"/>
      <point x="888" y="723" type="curve" smooth="yes"/>
      <point x="888" y="879"/>
      <point x="801" y="944"/>
      <point x="595" y="944" type="curve" smooth="yes"/>
      <point x="428" y="944" type="line"/>
      <point x="460" y="1073" type="line"/>
      <point x="641" y="1073" type="line" smooth="yes"/>
      <point x="934" y="1073"/>
      <point x="1079" y="958"/>
      <point x="1079" y="736" type="curve" smooth="yes"/>
      <point x="1079" y="457"/>
      <point x="849" y="281"/>
      <point x="484" y="281" type="curve" smooth="yes"/>
    </contour>
  </outline>
  <guideline angle="90" x="323" y="0"/>
</glyph>
<glyph name="germandbls" format="2">
  <advance width="1062"/>
  <unicode hex="00DF"/>
  <anchor x="458" y="0" name="bottom"/>
  <anchor x="749" y="1417" name="top"/>
  <outline>
    <contour>
      <point x="33" y="0" type="line"/>
      <point x="276" y="976" type="line" smooth="yes"/>
      <point x="352" y="1281"/>
      <point x="503" y="1430"/>
      <point x="737" y="1430" type="curve" smooth="yes"/>
      <point x="935" y="1430"/>
      <point x="1059" y="1323"/>
      <point x="1059" y="1152" type="curve" smooth="yes"/>
      <point x="1059" y="1045"/>
      <point x="1015" y="969"/>
      <point x="905" y="874" type="curve" smooth="yes"/>
      <point x="822" y="802"/>
      <point x="773" y="769"/>
      <point x="773" y="704" type="curve" smooth="yes"/>
      <point x="773" y="664"/>
      <point x="788" y="637"/>
      <point x="850" y="566" type="curve" smooth="yes"/>
      <point x="934" y="470"/>
      <point x="966" y="402"/>
      <point x="966" y="302" type="curve" smooth="yes"/>
      <point x="966" y="112"/>
      <point x="819" y="-22"/>
      <point x="611" y="-22" type="curve" smooth="yes"/>
      <point x="511" y="-22"/>
      <point x="402" y="9"/>
      <point x="334" y="56" type="curve"/>
      <point x="317" y="170" type="line"/>
      <point x="324" y="174" type="line"/>
      <point x="391" y="133"/>
      <point x="501" y="104"/>
      <point x="586" y="104" type="curve" smooth="yes"/>
      <point x="720" y="104"/>
      <point x="800" y="173"/>
      <point x="800" y="289" type="curve" smooth="yes"/>
      <point x="800" y="376"/>
      <point x="757" y="424"/>
      <point x="703" y="488" type="curve" smooth="yes"/>
      <point x="634" y="570"/>
      <point x="609" y="619"/>
      <point x="609" y="685" type="curve" smooth="yes"/>
      <point x="609" y="764"/>
      <point x="647" y="824"/>
      <point x="758" y="919" type="curve" smooth="yes"/>
      <point x="874" y="1018"/>
      <point x="906" y="1067"/>
      <point x="906" y="1146" type="curve" smooth="yes"/>
      <point x="906" y="1246"/>
      <point x="839" y="1306"/>
      <point x="730" y="1306" type="curve" smooth="yes"/>
      <point x="580" y="1306"/>
      <point x="507" y="1197"/>
      <point x="460" y="1009" type="curve" smooth="yes"/>
      <point x="206" y="0" type="line"/>
    </contour>
  </outline>
  <guideline angle="90" x="1025" y="0"/>
  <guideline angle="76.0015" x="901.84" y="0"/>
</glyph>
<glyph name="ae" format="2">
  <advance width="1576"/>
  <unicode hex="00E6"/>
  <anchor x="737" y="0" name="bottom"/>
  <anchor x="913" y="938" name="top"/>
  <anchor x="1639" y="938" name="topright"/>
  <outline>
    <contour>
      <point x="689" y="172" type="curve"/>
      <point x="716" y="315" type="line"/>
      <point x="636" y="172"/>
      <point x="539" y="97"/>
      <point x="437" y="97" type="curve" smooth="yes"/>
      <point x="321" y="97"/>
      <point x="256" y="190"/>
      <point x="256" y="355" type="curve" smooth="yes"/>
      <point x="256" y="630"/>
      <point x="420" y="843"/>
      <point x="633" y="843" type="curve" smooth="yes"/>
      <point x="706" y="843"/>
      <point x="759" y="820"/>
      <point x="825" y="760" type="curve"/>
      <point x="858" y="867" type="line"/>
      <point x="783" y="935"/>
      <point x="722" y="960"/>
      <point x="631" y="960" type="curve" smooth="yes"/>
      <point x="325" y="960"/>
      <point x="75" y="682"/>
      <point x="75" y="343" type="curve" smooth="yes"/>
      <point x="75" y="118"/>
      <point x="189" y="-22"/>
      <point x="371" y="-22" type="curve" smooth="yes"/>
      <point x="501" y="-22"/>
      <point x="631" y="60"/>
    </contour>
    <contour>
      <point x="652" y="0" type="curve"/>
      <point x="805" y="0" type="line"/>
      <point x="804" y="9"/>
      <point x="804" y="15"/>
      <point x="804" y="18" type="curve" smooth="yes"/>
      <point x="804" y="84"/>
      <point x="823" y="146"/>
      <point x="840" y="217" type="curve"/>
      <point x="789" y="217" type="line"/>
      <point x="928" y="776" type="line"/>
      <point x="975" y="776" type="line"/>
      <point x="1015" y="938" type="line"/>
      <point x="861" y="938" type="line"/>
      <point x="820" y="834" type="line"/>
      <point x="663" y="203" type="line"/>
      <point x="667" y="203" type="line"/>
      <point x="652" y="149"/>
      <point x="645" y="103"/>
      <point x="645" y="64" type="curve" smooth="yes"/>
      <point x="645" y="42"/>
      <point x="647" y="21"/>
    </contour>
    <contour>
      <point x="865" y="505" type="curve"/>
      <point x="865" y="407" type="line"/>
      <point x="1328" y="440"/>
      <point x="1544" y="546"/>
      <point x="1544" y="740" type="curve" smooth="yes"/>
      <point x="1544" y="874"/>
      <point x="1441" y="960"/>
      <point x="1279" y="960" type="curve" smooth="yes"/>
      <point x="1120" y="960"/>
      <point x="960" y="871"/>
      <point x="862" y="727" type="curve"/>
      <point x="748" y="259" type="line"/>
      <point x="794" y="70"/>
      <point x="905" y="-23"/>
      <point x="1086" y="-23" type="curve" smooth="yes"/>
      <point x="1185" y="-23"/>
      <point x="1292" y="5"/>
      <point x="1359" y="49" type="curve"/>
      <point x="1423" y="181" type="line"/>
      <point x="1417" y="186" type="line"/>
      <point x="1353" y="139"/>
      <point x="1233" y="104"/>
      <point x="1135" y="104" type="curve" smooth="yes"/>
      <point x="976" y="104"/>
      <point x="895" y="194"/>
      <point x="895" y="370" type="curve" smooth="yes"/>
      <point x="895" y="618"/>
      <point x="1065" y="846"/>
      <point x="1250" y="846" type="curve" smooth="yes"/>
      <point x="1327" y="846"/>
      <point x="1376" y="801"/>
      <point x="1376" y="731" type="curve" smooth="yes"/>
      <point x="1376" y="604"/>
      <point x="1212" y="531"/>
    </contour>
  </outline>
  <guideline angle="0" x="0" y="770"/>
  <guideline angle="90" x="865" y="0"/>
</glyph>
<glyph name="eth" format="2">
  <advance width="1093"/>
  <unicode hex="00F0"/>
  <anchor x="462" y="0" name="bottom"/>
  <anchor x="691" y="1417" name="top"/>
  <outline>
    <contour>
      <point x="868" y="707" type="line"/>
      <point x="821" y="772"/>
      <point x="724" y="814"/>
      <point x="622" y="814" type="curve" smooth="yes"/>
      <point x="400" y="814"/>
      <point x="258" y="607"/>
      <point x="258" y="370" type="curve" smooth="yes"/>
      <point x="258" y="200"/>
      <point x="341" y="94"/>
      <point x="474" y="94" type="curve" smooth="yes"/>
      <point x="678" y="94"/>
      <point x="838" y="356"/>
      <point x="838" y="690" type="curve" smooth="yes"/>
      <point x="838" y="752"/>
      <point x="831" y="822"/>
      <point x="821" y="872" type="curve"/>
      <point x="830" y="876" type="line"/>
      <point x="786" y="1077"/>
      <point x="665" y="1254"/>
      <point x="474" y="1394" type="curve"/>
      <point x="474" y="1403" type="line"/>
      <point x="646" y="1430" type="line"/>
      <point x="892" y="1243"/>
      <point x="1018" y="994"/>
      <point x="1018" y="697" type="curve" smooth="yes"/>
      <point x="1018" y="281"/>
      <point x="781" y="-22"/>
      <point x="456" y="-22" type="curve" smooth="yes"/>
      <point x="225" y="-22"/>
      <point x="78" y="130"/>
      <point x="78" y="368" type="curve" smooth="yes"/>
      <point x="78" y="676"/>
      <point x="311" y="928"/>
      <point x="610" y="928" type="curve" smooth="yes"/>
      <point x="713" y="928"/>
      <point x="800" y="899"/>
      <point x="868" y="842" type="curve"/>
    </contour>
    <contour>
      <point x="422" y="1008" type="line"/>
      <point x="375" y="1109" type="line"/>
      <point x="1032" y="1423" type="line"/>
      <point x="1079" y="1323" type="line"/>
    </contour>
  </outline>
  <guideline angle="0" x="0" y="486"/>
  <guideline angle="76.4014" x="-7.332" y="0"/>
  <guideline angle="103.599" x="541.654" y="0"/>
  <guideline angle="115.202" x="1720.28" y="0"/>
</glyph>
<glyph name="divide" format="2">
  <advance width="1118"/>
  <unicode hex="00F7"/>
  <outline>
    <contour>
      <point x="570" y="37" type="curve" smooth="yes"/>
      <point x="640" y="37"/>
      <point x="686" y="78"/>
      <point x="686" y="149" type="curve" smooth="yes"/>
      <point x="686" y="218"/>
      <point x="641" y="258"/>
      <point x="575" y="258" type="curve" smooth="yes"/>
      <point x="508" y="258"/>
      <point x="461" y="218"/>
      <point x="461" y="147" type="curve" smooth="yes"/>
      <point x="461" y="79"/>
      <point x="502" y="37"/>
    </contour>
    <contour>
      <point x="100" y="408" type="line"/>
      <point x="1046" y="408" type="line"/>
      <point x="1046" y="538" type="line"/>
      <point x="100" y="538" type="line"/>
    </contour>
    <contour>
      <point x="569" y="688" type="curve" smooth="yes"/>
      <point x="639" y="688"/>
      <point x="685" y="730"/>
      <point x="685" y="801" type="curve" smooth="yes"/>
      <point x="685" y="870"/>
      <point x="640" y="909"/>
      <point x="574" y="909" type="curve" smooth="yes"/>
      <point x="507" y="909"/>
      <point x="460" y="869"/>
      <point x="460" y="798" type="curve" smooth="yes"/>
      <point x="460" y="730"/>
      <point x="501" y="688"/>
    </contour>
  </outline>
</glyph>
<glyph name="oslash" format="2">
  <advance width="1091"/>
  <unicode hex="00F8"/>
  <anchor x="448" y="0" name="bottom"/>
  <anchor x="653" y="938" name="top"/>
  <anchor x="1124" y="938" name="topright"/>
  <outline>
    <contour>
      <point x="453" y="-22" type="curve" smooth="yes"/>
      <point x="805" y="-22"/>
      <point x="1009" y="292"/>
      <point x="1009" y="579" type="curve" smooth="yes"/>
      <point x="1009" y="818"/>
      <point x="871" y="960"/>
      <point x="637" y="960" type="curve" smooth="yes"/>
      <point x="295" y="960"/>
      <point x="77" y="664"/>
      <point x="77" y="359" type="curve" smooth="yes"/>
      <point x="77" y="121"/>
      <point x="218" y="-22"/>
    </contour>
    <contour>
      <point x="467" y="94" type="curve" smooth="yes"/>
      <point x="330" y="94"/>
      <point x="258" y="187"/>
      <point x="258" y="363" type="curve" smooth="yes"/>
      <point x="258" y="609"/>
      <point x="403" y="843"/>
      <point x="621" y="843" type="curve" smooth="yes"/>
      <point x="759" y="843"/>
      <point x="829" y="752"/>
      <point x="829" y="582" type="curve" smooth="yes"/>
      <point x="829" y="310"/>
      <point x="669" y="94"/>
    </contour>
    <contour>
      <point x="14" y="27" type="line"/>
      <point x="98" y="-51" type="line"/>
      <point x="1073" y="911" type="line"/>
      <point x="988" y="989" type="line"/>
    </contour>
  </outline>
  <guideline angle="330.721" x="0" y="-2.7495"/>
</glyph>
<glyph name="thorn" format="2">
  <advance width="1082"/>
  <unicode hex="00FE"/>
  <anchor x="264" y="-419" name="bottom"/>
  <anchor x="689" y="1417" name="top"/>
  <anchor x="1105" y="938" name="topright"/>
  <outline>
    <contour>
      <point x="-71" y="-419" type="line"/>
      <point x="104" y="-419" type="line"/>
      <point x="565" y="1430" type="line"/>
      <point x="383" y="1402" type="line"/>
    </contour>
    <contour>
      <point x="190" y="49" type="line"/>
      <point x="266" y="2"/>
      <point x="351" y="-22"/>
      <point x="442" y="-22" type="curve" smooth="yes"/>
      <point x="754" y="-22"/>
      <point x="1001" y="247"/>
      <point x="1001" y="588" type="curve" smooth="yes"/>
      <point x="1001" y="819"/>
      <point x="885" y="960"/>
      <point x="694" y="960" type="curve" smooth="yes"/>
      <point x="577" y="960"/>
      <point x="445" y="899"/>
      <point x="382" y="818" type="curve"/>
      <point x="344" y="663" type="line"/>
      <point x="412" y="772"/>
      <point x="521" y="840"/>
      <point x="629" y="840" type="curve" smooth="yes"/>
      <point x="753" y="840"/>
      <point x="820" y="748"/>
      <point x="820" y="578" type="curve" smooth="yes"/>
      <point x="820" y="307"/>
      <point x="664" y="94"/>
      <point x="437" y="94" type="curve" smooth="yes"/>
      <point x="364" y="94"/>
      <point x="293" y="115"/>
      <point x="218" y="160" type="curve"/>
    </contour>
  </outline>
</glyph>
<glyph name="aogonek" format="2">
  <advance width="1080"/>
  <unicode hex="0105"/>
  <anchor x="366" y="-413" name="bottom.mkmk"/>
  <anchor x="644" y="938" name="top"/>
  <anchor x="1193" y="938" name="topright"/>
  <outline>
    <contour>
      <point x="333" y="-423" type="curve" smooth="yes"/>
      <point x="384" y="-423"/>
      <point x="463" y="-403"/>
      <point x="502" y="-380" type="curve"/>
      <point x="552" y="-277" type="line"/>
      <point x="545" y="-272" type="line"/>
      <point x="504" y="-293"/>
      <point x="462" y="-305"/>
      <point x="424" y="-305" type="curve" smooth="yes"/>
      <point x="371" y="-305"/>
      <point x="343" y="-284"/>
      <point x="343" y="-243" type="curve" smooth="yes"/>
      <point x="343" y="-152"/>
      <point x="483" y="-30"/>
      <point x="696" y="131" type="curve"/>
      <point x="743" y="336" type="line"/>
      <point x="663" y="184"/>
      <point x="552" y="97"/>
      <point x="439" y="97" type="curve" smooth="yes"/>
      <point x="322" y="97"/>
      <point x="256" y="189"/>
      <point x="256" y="355" type="curve" smooth="yes"/>
      <point x="256" y="610"/>
      <point x="402" y="843"/>
      <point x="638" y="843" type="curve" smooth="yes"/>
      <point x="714" y="843"/>
      <point x="783" y="819"/>
      <point x="852" y="768" type="curve"/>
      <point x="880" y="880" type="line"/>
      <point x="809" y="934"/>
      <point x="730" y="960"/>
      <point x="635" y="960" type="curve" smooth="yes"/>
      <point x="325" y="960"/>
      <point x="75" y="685"/>
      <point x="75" y="345" type="curve" smooth="yes"/>
      <point x="75" y="118"/>
      <point x="189" y="-22"/>
      <point x="372" y="-22" type="curve" smooth="yes"/>
      <point x="405" y="-22"/>
      <point x="442" y="-16"/>
      <point x="467" y="-9" type="curve"/>
      <point x="369" y="56" type="line"/>
      <point x="369" y="-26" type="line"/>
      <point x="275" y="-97"/>
      <point x="191" y="-192"/>
      <point x="191" y="-288" type="curve" smooth="yes"/>
      <point x="191" y="-369"/>
      <point x="248" y="-423"/>
    </contour>
    <contour>
      <point x="838" y="0" type="line"/>
      <point x="837" y="14"/>
      <point x="836" y="28"/>
      <point x="836" y="47" type="curve" smooth="yes"/>
      <point x="836" y="99"/>
      <point x="844" y="156"/>
      <point x="859" y="217" type="curve" smooth="yes"/>
      <point x="1038" y="938" type="line"/>
      <point x="878" y="938" type="line"/>
      <point x="838" y="834" type="line"/>
      <point x="691" y="247" type="line" smooth="yes"/>
      <point x="674" y="181"/>
      <point x="667" y="133"/>
      <point x="667" y="87" type="curve" smooth="yes"/>
      <point x="667" y="57"/>
      <point x="670" y="27"/>
      <point x="677" y="0" type="curve"/>
    </contour>
  </outline>
</glyph>
<glyph name="dcroat" format="2">
  <advance width="1096"/>
  <unicode hex="0111"/>
  <anchor x="457" y="0" name="bottom"/>
  <anchor x="809" y="1417" name="top"/>
  <outline>
    <contour>
      <point x="369" y="-22" type="curve" smooth="yes"/>
      <point x="509" y="-22"/>
      <point x="650" y="67"/>
      <point x="708" y="186" type="curve"/>
      <point x="749" y="350" type="line"/>
      <point x="663" y="187"/>
      <point x="551" y="97"/>
      <point x="435" y="97" type="curve" smooth="yes"/>
      <point x="318" y="97"/>
      <point x="253" y="191"/>
      <point x="253" y="351" type="curve" smooth="yes"/>
      <point x="253" y="618"/>
      <point x="417" y="807"/>
      <point x="636" y="807" type="curve" smooth="yes"/>
      <point x="708" y="807"/>
      <point x="781" y="785"/>
      <point x="855" y="742" type="curve"/>
      <point x="883" y="853" type="line"/>
      <point x="810" y="899"/>
      <point x="723" y="924"/>
      <point x="631" y="924" type="curve" smooth="yes"/>
      <point x="322" y="924"/>
      <point x="72" y="665"/>
      <point x="72" y="341" type="curve" smooth="yes"/>
      <point x="72" y="119"/>
      <point x="185" y="-22"/>
    </contour>
    <contour>
      <point x="839" y="0" type="line"/>
      <point x="838" y="14"/>
      <point x="837" y="28"/>
      <point x="837" y="47" type="curve" smooth="yes"/>
      <point x="837" y="99"/>
      <point x="845" y="156"/>
      <point x="860" y="217" type="curve" smooth="yes"/>
      <point x="1163" y="1430" type="line"/>
      <point x="980" y="1402" type="line"/>
      <point x="693" y="247" type="line" smooth="yes"/>
      <point x="677" y="181"/>
      <point x="669" y="133"/>
      <point x="669" y="87" type="curve" smooth="yes"/>
      <point x="669" y="57"/>
      <point x="672" y="27"/>
      <point x="679" y="0" type="curve"/>
    </contour>
    <contour>
      <point x="1221" y="1048" type="line"/>
      <point x="1268" y="1168" type="line"/>
      <point x="595" y="1168" type="line"/>
      <point x="565" y="1048" type="line"/>
    </contour>
  </outline>
  <guideline angle="0" x="0" y="924"/>
  <guideline angle="248.61" x="1245" y="1108"/>
</glyph>
<glyph name="Hbar" format="2">
  <advance width="1401"/>
  <unicode hex="0126"/>
  <anchor x="580" y="0" name="bottom"/>
  <anchor x="896" y="1314" name="top"/>
  <anchor x="1578" y="1314" name="topright"/>
  <outline>
    <contour>
      <point x="78" y="0" type="line"/>
      <point x="263" y="0" type="line"/>
      <point x="590" y="1314" type="line"/>
      <point x="405" y="1314" type="line"/>
    </contour>
    <contour>
      <point x="897" y="0" type="line"/>
      <point x="1082" y="0" type="line"/>
      <point x="1409" y="1314" type="line"/>
      <point x="1224" y="1314" type="line"/>
    </contour>
    <contour>
      <point x="387" y="558" type="line"/>
      <point x="1081" y="558" type="line"/>
      <point x="1113" y="685" type="line"/>
      <point x="419" y="685" type="line"/>
    </contour>
    <contour>
      <point x="158" y="932" type="line"/>
      <point x="1466" y="932" type="line"/>
      <point x="1516" y="1059" type="line"/>
      <point x="190" y="1059" type="line"/>
    </contour>
  </outline>
  <guideline angle="0" x="0" y="1059"/>
</glyph>
<glyph name="hbar" format="2">
  <advance width="1087"/>
  <unicode hex="0127"/>
  <anchor x="740" y="1417" name="top"/>
  <anchor x="439" y="0" name="bottom"/>
  <outline>
    <contour>
      <point x="214" y="0" type="line"/>
      <point x="570" y="1430" type="line"/>
      <point x="388" y="1402" type="line"/>
      <point x="38" y="0" type="line"/>
    </contour>
    <contour>
      <point x="824" y="0" type="line"/>
      <point x="964" y="562" type="line" smooth="yes"/>
      <point x="975" y="607"/>
      <point x="981" y="647"/>
      <point x="981" y="685" type="curve" smooth="yes"/>
      <point x="981" y="838"/>
      <point x="892" y="924"/>
      <point x="734" y="924" type="curve" smooth="yes"/>
      <point x="600" y="924"/>
      <point x="484" y="865"/>
      <point x="369" y="738" type="curve"/>
      <point x="333" y="561" type="line"/>
      <point x="368" y="681"/>
      <point x="522" y="788"/>
      <point x="661" y="788" type="curve" smooth="yes"/>
      <point x="753" y="788"/>
      <point x="803" y="742"/>
      <point x="803" y="657" type="curve" smooth="yes"/>
      <point x="803" y="633"/>
      <point x="799" y="605"/>
      <point x="788" y="561" type="curve" smooth="yes"/>
      <point x="648" y="0" type="line"/>
    </contour>
    <contour>
      <point x="782" y="1048" type="line"/>
      <point x="829" y="1168" type="line"/>
      <point x="177" y="1168" type="line"/>
      <point x="147" y="1048" type="line"/>
    </contour>
  </outline>
</glyph>
<glyph name="kgreenlandic" format="2">
  <advance width="975"/>
  <unicode hex="0138"/>
  <anchor x="416" y="0" name="bottom"/>
  <anchor x="603" y="938" name="top"/>
  <anchor x="1098" y="938" name="topright"/>
  <outline>
    <contour>
      <point x="634" y="0" type="line"/>
      <point x="833" y="0" type="line"/>
      <point x="502" y="535" type="line"/>
      <point x="494" y="503" type="line"/>
      <point x="1014" y="938" type="line"/>
      <point x="823" y="938" type="line"/>
      <point x="323" y="515" type="line"/>
    </contour>
    <contour>
      <point x="33" y="0" type="line"/>
      <point x="209" y="0" type="line"/>
      <point x="443" y="938" type="line"/>
      <point x="267" y="938" type="line"/>
    </contour>
  </outline>
  <guideline angle="76.0015" x="827.603" y="0"/>
  <guideline angle="90" x="633" y="0"/>
</glyph>
<glyph name="Lslash" format="2">
  <advance width="991"/>
  <unicode hex="0141"/>
  <anchor x="469" y="0" name="bottom"/>
  <anchor x="508" y="1314" name="top"/>
  <outline>
    <contour>
      <point x="835" y="0" type="line"/>
      <point x="886" y="129" type="line"/>
      <point x="263" y="129" type="line"/>
      <point x="293" y="99" type="line"/>
      <point x="597" y="1314" type="line"/>
      <point x="412" y="1314" type="line"/>
      <point x="84" y="0" type="line"/>
    </contour>
    <contour>
      <point x="736" y="703" type="line"/>
      <point x="792" y="844" type="line"/>
      <point x="85" y="609" type="line"/>
      <point x="51" y="475" type="line"/>
    </contour>
  </outline>
  <guideline angle="255.86" x="102" y="683"/>
</glyph>
<glyph name="lslash" format="2">
  <advance width="588"/>
  <unicode hex="0142"/>
  <anchor x="173" y="0" name="bottom"/>
  <anchor x="530" y="1417" name="top"/>
  <anchor x="767" y="1417" name="topright"/>
  <outline>
    <contour>
      <point x="261" y="0" type="line"/>
      <point x="617" y="1430" type="line"/>
      <point x="435" y="1402" type="line"/>
      <point x="85" y="0" type="line"/>
    </contour>
    <contour>
      <point x="625" y="769" type="line"/>
      <point x="685" y="909" type="line"/>
      <point x="83" y="699" type="line"/>
      <point x="50" y="568" type="line"/>
    </contour>
  </outline>
  <guideline angle="76" x="106" y="864"/>
  <guideline angle="76" x="684" y="864"/>
  <guideline angle="0" x="0" y="578"/>
  <guideline angle="0" x="0" y="901"/>
  <guideline angle="247" x="655" y="840"/>
</glyph>
<glyph name="Eng" format="2">
  <advance width="1305"/>
  <unicode hex="014A"/>
  <anchor x="863" y="1314" name="top"/>
  <anchor x="430" y="-419" name="bottom"/>
  <outline>
    <contour>
      <point x="182" y="0" type="line"/>
      <point x="433" y="1005" type="line"/>
      <point x="440" y="1005" type="line"/>
      <point x="463" y="943"/>
      <point x="491" y="885"/>
      <point x="517" y="826" type="curve" smooth="yes"/>
      <point x="880" y="2" type="line"/>
      <point x="852" y="-110" type="line" smooth="yes"/>
      <point x="822" y="-229"/>
      <point x="772" y="-305"/>
      <point x="646" y="-305" type="curve" smooth="yes"/>
      <point x="598" y="-305"/>
      <point x="551" y="-295"/>
      <point x="509" y="-266" type="curve"/>
      <point x="502" y="-270" type="line"/>
      <point x="518" y="-388" type="line"/>
      <point x="564" y="-415"/>
      <point x="627" y="-428"/>
      <point x="681" y="-428" type="curve" smooth="yes"/>
      <point x="843" y="-428"/>
      <point x="943" y="-329"/>
      <point x="997" y="-113" type="curve" smooth="yes"/>
      <point x="1353" y="1314" type="line"/>
      <point x="1207" y="1314" type="line"/>
      <point x="953" y="294" type="line"/>
      <point x="945" y="294" type="line"/>
      <point x="923" y="356"/>
      <point x="893" y="416"/>
      <point x="868" y="473" type="curve" smooth="yes"/>
      <point x="498" y="1314" type="line"/>
      <point x="365" y="1314" type="line"/>
      <point x="37" y="0" type="line"/>
    </contour>
  </outline>
</glyph>
<glyph name="eng" format="2">
  <advance width="1084"/>
  <unicode hex="014B"/>
  <anchor x="329" y="-419" name="bottom"/>
  <anchor x="650" y="938" name="top"/>
  <anchor x="1137" y="938" name="topright"/>
  <outline>
    <contour>
      <point x="463" y="-428" type="curve" smooth="yes"/>
      <point x="711" y="-428"/>
      <point x="775" y="-174"/>
      <point x="800" y="-75" type="curve" smooth="yes"/>
      <point x="967" y="598" type="line" smooth="yes"/>
      <point x="978" y="644"/>
      <point x="984" y="687"/>
      <point x="984" y="722" type="curve" smooth="yes"/>
      <point x="984" y="873"/>
      <point x="896" y="960"/>
      <point x="736" y="960" type="curve" smooth="yes"/>
      <point x="599" y="960"/>
      <point x="483" y="899"/>
      <point x="370" y="771" type="curve"/>
      <point x="335" y="596" type="line"/>
      <point x="376" y="719"/>
      <point x="529" y="824"/>
      <point x="664" y="824" type="curve" smooth="yes"/>
      <point x="756" y="824"/>
      <point x="806" y="778"/>
      <point x="806" y="693" type="curve" smooth="yes"/>
      <point x="806" y="669"/>
      <point x="802" y="641"/>
      <point x="791" y="597" type="curve" smooth="yes"/>
      <point x="621" y="-90" type="line" smooth="yes"/>
      <point x="592" y="-206"/>
      <point x="561" y="-313"/>
      <point x="428" y="-313" type="curve" smooth="yes"/>
      <point x="394" y="-313"/>
      <point x="340" y="-302"/>
      <point x="297" y="-274" type="curve"/>
      <point x="290" y="-278" type="line"/>
      <point x="306" y="-388" type="line"/>
      <point x="351" y="-414"/>
      <point x="409" y="-428"/>
    </contour>
    <contour>
      <point x="208" y="0" type="line"/>
      <point x="389" y="722" type="line"/>
      <point x="394" y="748" type="line" smooth="yes"/>
      <point x="399" y="772"/>
      <point x="404" y="821"/>
      <point x="404" y="856" type="curve" smooth="yes"/>
      <point x="404" y="885"/>
      <point x="401" y="914"/>
      <point x="394" y="938" type="curve"/>
      <point x="239" y="938" type="line"/>
      <point x="237" y="861"/>
      <point x="220" y="751"/>
      <point x="199" y="665" type="curve" smooth="yes"/>
      <point x="33" y="0" type="line"/>
    </contour>
  </outline>
  <guideline angle="76" x="486" y="209"/>
</glyph>
<glyph name="OE" format="2">
  <advance width="1752"/>
  <unicode hex="0152"/>
  <anchor x="852" y="0" name="bottom"/>
  <anchor x="1157" y="1314" name="top"/>
  <outline>
    <contour>
      <point x="856" y="32" type="line"/>
      <point x="779" y="-7"/>
      <point x="703" y="-24"/>
      <point x="611" y="-24" type="curve" smooth="yes"/>
      <point x="302" y="-24"/>
      <point x="119" y="179"/>
      <point x="119" y="516" type="curve" smooth="yes"/>
      <point x="119" y="924"/>
      <point x="399" y="1338"/>
      <point x="885" y="1338" type="curve" smooth="yes"/>
      <point x="995" y="1338"/>
      <point x="1088" y="1317"/>
      <point x="1166" y="1274" type="curve"/>
      <point x="1133" y="1140" type="line"/>
      <point x="1080" y="1188"/>
      <point x="1000" y="1213"/>
      <point x="895" y="1213" type="curve" smooth="yes"/>
      <point x="554" y="1213"/>
      <point x="310" y="924"/>
      <point x="310" y="520" type="curve" smooth="yes"/>
      <point x="310" y="249"/>
      <point x="425" y="101"/>
      <point x="637" y="101" type="curve" smooth="yes"/>
      <point x="728" y="101"/>
      <point x="818" y="127"/>
      <point x="891" y="173" type="curve"/>
    </contour>
    <contour>
      <point x="818" y="0" type="line"/>
      <point x="1146" y="1314" type="line"/>
      <point x="1885" y="1314" type="line"/>
      <point x="1835" y="1185" type="line"/>
      <point x="1263" y="1185" type="line"/>
      <point x="1306" y="1214" type="line"/>
      <point x="1027" y="99" type="line"/>
      <point x="997" y="129" type="line"/>
      <point x="1610" y="129" type="line"/>
      <point x="1578" y="0" type="line"/>
    </contour>
    <contour>
      <point x="1127" y="619" type="line"/>
      <point x="1159" y="746" type="line"/>
      <point x="1649" y="746" type="line"/>
      <point x="1617" y="619" type="line"/>
    </contour>
  </outline>
  <guideline angle="0" x="0" y="745"/>
  <guideline angle="255.984" x="1176" y="1314"/>
</glyph>
<glyph name="oe" format="2">
  <advance width="1644"/>
  <unicode hex="0153"/>
  <anchor x="757" y="0" name="bottom"/>
  <anchor x="935" y="938" name="top"/>
  <anchor x="1707" y="938" name="topright"/>
  <outline>
    <contour>
      <point x="817" y="213" type="line"/>
      <point x="863" y="61"/>
      <point x="984" y="-23"/>
      <point x="1153" y="-23" type="curve" smooth="yes"/>
      <point x="1252" y="-23"/>
      <point x="1360" y="5"/>
      <point x="1427" y="49" type="curve"/>
      <point x="1491" y="181" type="line"/>
      <point x="1485" y="186" type="line"/>
      <point x="1421" y="139"/>
      <point x="1300" y="104"/>
      <point x="1202" y="104" type="curve" smooth="yes"/>
      <point x="1044" y="104"/>
      <point x="963" y="194"/>
      <point x="963" y="370" type="curve" smooth="yes"/>
      <point x="963" y="618"/>
      <point x="1133" y="846"/>
      <point x="1318" y="846" type="curve" smooth="yes"/>
      <point x="1395" y="846"/>
      <point x="1443" y="802"/>
      <point x="1443" y="731" type="curve" smooth="yes"/>
      <point x="1443" y="604"/>
      <point x="1279" y="531"/>
      <point x="933" y="505" type="curve"/>
      <point x="933" y="407" type="line"/>
      <point x="1396" y="440"/>
      <point x="1612" y="546"/>
      <point x="1612" y="740" type="curve" smooth="yes"/>
      <point x="1612" y="874"/>
      <point x="1509" y="960"/>
      <point x="1346" y="960" type="curve" smooth="yes"/>
      <point x="1177" y="960"/>
      <point x="1013" y="867"/>
      <point x="904" y="707" type="curve"/>
      <point x="963" y="707" type="line"/>
      <point x="920" y="872"/>
      <point x="801" y="960"/>
      <point x="620" y="960" type="curve" smooth="yes"/>
      <point x="301" y="960"/>
      <point x="77" y="682"/>
      <point x="77" y="359" type="curve" smooth="yes"/>
      <point x="77" y="117"/>
      <point x="210" y="-22"/>
      <point x="441" y="-22" type="curve" smooth="yes"/>
      <point x="618" y="-22"/>
      <point x="768" y="60"/>
      <point x="870" y="213" type="curve"/>
    </contour>
    <contour>
      <point x="462" y="94" type="curve" smooth="yes"/>
      <point x="331" y="94"/>
      <point x="258" y="190"/>
      <point x="258" y="362" type="curve" smooth="yes"/>
      <point x="258" y="619"/>
      <point x="407" y="843"/>
      <point x="608" y="843" type="curve" smooth="yes"/>
      <point x="739" y="843"/>
      <point x="810" y="749"/>
      <point x="810" y="578" type="curve" smooth="yes"/>
      <point x="810" y="320"/>
      <point x="661" y="94"/>
    </contour>
  </outline>
</glyph>
<glyph name="Tbar" format="2">
  <advance width="1026"/>
  <unicode hex="0166"/>
  <anchor x="388" y="0" name="bottom"/>
  <anchor x="723" y="1314" name="top"/>
  <outline>
    <contour>
      <point x="484" y="0" type="line"/>
      <point x="788" y="1215" type="line"/>
      <point x="602" y="1215" type="line"/>
      <point x="299" y="0" type="line"/>
    </contour>
    <contour>
      <point x="902" y="587" type="line"/>
      <point x="951" y="714" type="line"/>
      <point x="201" y="714" type="line"/>
      <point x="170" y="587" type="line"/>
    </contour>
    <contour>
      <point x="1166" y="1185" type="line"/>
      <point x="1216" y="1314" type="line"/>
      <point x="230" y="1314" type="line"/>
      <point x="198" y="1185" type="line"/>
    </contour>
  </outline>
  <guideline angle="0" x="0" y="714"/>
  <guideline angle="0" x="0" y="587"/>
</glyph>
<glyph name="tbar" format="2">
  <advance width="657"/>
  <unicode hex="0167"/>
  <anchor x="277" y="0" name="bottom"/>
  <anchor x="433" y="1188" name="top"/>
  <outline>
    <contour>
      <point x="283" y="-22" type="curve" smooth="yes"/>
      <point x="353" y="-22"/>
      <point x="425" y="1"/>
      <point x="479" y="40" type="curve"/>
      <point x="534" y="153" type="line"/>
      <point x="528" y="159" type="line"/>
      <point x="461" y="118"/>
      <point x="415" y="103"/>
      <point x="362" y="103" type="curve" smooth="yes"/>
      <point x="301" y="103"/>
      <point x="275" y="124"/>
      <point x="275" y="175" type="curve" smooth="yes"/>
      <point x="275" y="195"/>
      <point x="278" y="213"/>
      <point x="290" y="260" type="curve" smooth="yes"/>
      <point x="525" y="1201" type="line"/>
      <point x="345" y="1173" type="line"/>
      <point x="112" y="240" type="line" smooth="yes"/>
      <point x="102" y="200"/>
      <point x="98" y="171"/>
      <point x="98" y="146" type="curve" smooth="yes"/>
      <point x="98" y="39"/>
      <point x="165" y="-22"/>
    </contour>
    <contour>
      <point x="561" y="503" type="line"/>
      <point x="608" y="623" type="line"/>
      <point x="65" y="623" type="line"/>
      <point x="35" y="503" type="line"/>
    </contour>
    <contour>
      <point x="637" y="811" type="line"/>
      <point x="684" y="928" type="line"/>
      <point x="367" y="928" type="line"/>
      <point x="139" y="920" type="line"/>
      <point x="112" y="811" type="line"/>
    </contour>
  </outline>
  <guideline angle="76" x="85" y="702"/>
  <guideline angle="0" x="0" y="811"/>
  <guideline angle="76" x="628" y="702"/>
</glyph>
<glyph name="uogonek" format="2">
  <advance width="1078"/>
  <unicode hex="0173"/>
  <anchor x="362" y="-413" name="bottom.mkmk"/>
  <anchor x="639" y="938" name="top"/>
  <outline>
    <contour>
      <point x="331" y="-423" type="curve" smooth="yes"/>
      <point x="394" y="-423"/>
      <point x="466" y="-399"/>
      <point x="495" y="-381" type="curve"/>
      <point x="546" y="-277" type="line"/>
      <point x="538" y="-272" type="line"/>
      <point x="507" y="-289"/>
      <point x="461" y="-305"/>
      <point x="416" y="-305" type="curve" smooth="yes"/>
      <point x="365" y="-305"/>
      <point x="335" y="-283"/>
      <point x="335" y="-243" type="curve" smooth="yes"/>
      <point x="335" y="-150"/>
      <point x="502" y="-10"/>
      <point x="716" y="181" type="curve"/>
      <point x="729" y="349" type="line"/>
      <point x="703" y="224"/>
      <point x="555" y="114"/>
      <point x="412" y="114" type="curve" smooth="yes"/>
      <point x="319" y="114"/>
      <point x="270" y="160"/>
      <point x="270" y="245" type="curve" smooth="yes"/>
      <point x="270" y="269"/>
      <point x="274" y="297"/>
      <point x="285" y="341" type="curve" smooth="yes"/>
      <point x="433" y="938" type="line"/>
      <point x="257" y="938" type="line"/>
      <point x="109" y="340" type="line" smooth="yes"/>
      <point x="98" y="294"/>
      <point x="92" y="252"/>
      <point x="92" y="214" type="curve" smooth="yes"/>
      <point x="92" y="65"/>
      <point x="183" y="-22"/>
      <point x="337" y="-22" type="curve" smooth="yes"/>
      <point x="377" y="-22"/>
      <point x="418" y="-17"/>
      <point x="459" y="-3" type="curve"/>
      <point x="374" y="11" type="line"/>
      <point x="374" y="-26" type="line"/>
      <point x="295" y="-87"/>
      <point x="183" y="-186"/>
      <point x="183" y="-298" type="curve" smooth="yes"/>
      <point x="183" y="-363"/>
      <point x="228" y="-423"/>
    </contour>
    <contour>
      <point x="836" y="0" type="line"/>
      <point x="835" y="14"/>
      <point x="834" y="28"/>
      <point x="834" y="47" type="curve" smooth="yes"/>
      <point x="834" y="99"/>
      <point x="842" y="156"/>
      <point x="857" y="217" type="curve" smooth="yes"/>
      <point x="1037" y="938" type="line"/>
      <point x="862" y="938" type="line"/>
      <point x="689" y="247" type="line" smooth="yes"/>
      <point x="672" y="181"/>
      <point x="665" y="133"/>
      <point x="665" y="87" type="curve" smooth="yes"/>
      <point x="665" y="57"/>
      <point x="668" y="27"/>
      <point x="675" y="0" type="curve"/>
    </contour>
  </outline>
</glyph>
<glyph name="longs" format="2">
  <advance width="515"/>
  <unicode hex="017F"/>
  <anchor x="154" y="0" name="bottom"/>
  <anchor x="626" y="1417" name="top"/>
  <outline>
    <contour>
      <point x="207" y="0" type="line"/>
      <point x="473" y="1063" type="line" smooth="yes"/>
      <point x="514" y="1227"/>
      <point x="595" y="1302"/>
      <point x="729" y="1302" type="curve" smooth="yes"/>
      <point x="771" y="1302"/>
      <point x="813" y="1294"/>
      <point x="852" y="1280" type="curve"/>
      <point x="883" y="1400" type="line"/>
      <point x="843" y="1418"/>
      <point x="778" y="1430"/>
      <point x="719" y="1430" type="curve" smooth="yes"/>
      <point x="503" y="1430"/>
      <point x="354" y="1290"/>
      <point x="288" y="1024" type="curve" smooth="yes"/>
      <point x="33" y="0" type="line"/>
    </contour>
    <contour>
      <point x="347" y="811" type="line"/>
      <point x="368" y="928" type="line"/>
      <point x="142" y="921" type="line"/>
      <point x="100" y="811" type="line"/>
    </contour>
  </outline>
</glyph>
<glyph name="Oopen" format="2">
  <advance width="1196"/>
  <unicode hex="0186"/>
  <anchor x="414" y="0" name="bottom"/>
  <anchor x="660" y="1314" name="top"/>
  <outline>
    <contour>
      <point x="363" y="-24" type="curve" smooth="yes"/>
      <point x="814" y="-24"/>
      <point x="1163" y="339"/>
      <point x="1163" y="801" type="curve" smooth="yes"/>
      <point x="1163" y="1142"/>
      <point x="973" y="1338"/>
      <point x="642" y="1338" type="curve" smooth="yes"/>
      <point x="511" y="1338"/>
      <point x="386" y="1307"/>
      <point x="282" y="1247" type="curve"/>
      <point x="219" y="1122" type="line"/>
      <point x="224" y="1116" type="line"/>
      <point x="345" y="1175"/>
      <point x="487" y="1209"/>
      <point x="607" y="1209" type="curve" smooth="yes"/>
      <point x="849" y="1209"/>
      <point x="972" y="1071"/>
      <point x="972" y="800" type="curve" smooth="yes"/>
      <point x="972" y="405"/>
      <point x="710" y="108"/>
      <point x="361" y="108" type="curve" smooth="yes"/>
      <point x="231" y="108"/>
      <point x="90" y="149"/>
      <point x="-13" y="217" type="curve"/>
      <point x="-47" y="87" type="line"/>
      <point x="62" y="16"/>
      <point x="213" y="-24"/>
    </contour>
  </outline>
  <guideline angle="76" x="-40" y="87"/>
  <guideline angle="0" x="0" y="194"/>
</glyph>
<glyph name="Eturned" format="2">
  <advance width="985"/>
  <unicode hex="018E"/>
  <anchor x="325" y="0" name="bottom"/>
  <anchor x="656" y="1314" name="top"/>
  <outline>
    <contour>
      <point x="1033" y="1314" type="line"/>
      <point x="706" y="0" type="line"/>
      <point x="-47" y="0" type="line"/>
      <point x="3" y="129" type="line"/>
      <point x="583" y="129" type="line"/>
      <point x="546" y="100" type="line"/>
      <point x="824" y="1214" type="line"/>
      <point x="847" y="1185" type="line"/>
      <point x="248" y="1185" type="line"/>
      <point x="280" y="1314" type="line"/>
    </contour>
    <contour>
      <point x="738" y="746" type="line"/>
      <point x="706" y="619" type="line"/>
      <point x="202" y="619" type="line"/>
      <point x="234" y="746" type="line"/>
    </contour>
  </outline>
  <guideline angle="0" x="0" y="746"/>
  <guideline angle="0" x="0" y="619"/>
  <guideline angle="255.86" x="-47" y="0"/>
</glyph>
<glyph name="Schwa" format="2">
  <advance width="1324"/>
  <unicode hex="018F"/>
  <anchor x="550" y="0" name="bottom"/>
  <anchor x="760" y="1314" name="top"/>
  <outline>
    <contour>
      <point x="545" y="-24" type="curve" smooth="yes"/>
      <point x="996" y="-24"/>
      <point x="1291" y="399"/>
      <point x="1291" y="792" type="curve" smooth="yes"/>
      <point x="1291" y="1129"/>
      <point x="1120" y="1338"/>
      <point x="746" y="1338" type="curve" smooth="yes"/>
      <point x="624" y="1338"/>
      <point x="478" y="1316"/>
      <point x="343" y="1238" type="curve"/>
      <point x="269" y="1091" type="line"/>
      <point x="274" y="1084" type="line"/>
      <point x="411" y="1177"/>
      <point x="581" y="1209"/>
      <point x="712" y="1209" type="curve" smooth="yes"/>
      <point x="953" y="1209"/>
      <point x="1101" y="1076"/>
      <point x="1101" y="800" type="curve" smooth="yes"/>
      <point x="1101" y="507"/>
      <point x="894" y="101"/>
      <point x="554" y="101" type="curve" smooth="yes"/>
      <point x="402" y="101"/>
      <point x="270" y="196"/>
      <point x="270" y="410" type="curve" smooth="yes"/>
      <point x="270" y="457"/>
      <point x="278" y="513"/>
      <point x="296" y="588" type="curve"/>
      <point x="241" y="546" type="line"/>
      <point x="1080" y="546" type="line"/>
      <point x="1111" y="671" type="line"/>
      <point x="133" y="671" type="line"/>
      <point x="103" y="580"/>
      <point x="92" y="501"/>
      <point x="92" y="420" type="curve" smooth="yes"/>
      <point x="92" y="144"/>
      <point x="280" y="-24"/>
    </contour>
  </outline>
</glyph>
<glyph name="Eopen" format="2">
  <advance width="1072"/>
  <unicode hex="0190"/>
  <anchor x="480" y="0" name="bottom"/>
  <anchor x="762" y="1314" name="top"/>
  <anchor x="1269" y="1314" name="topright"/>
  <outline>
    <contour>
      <point x="494" y="-24" type="curve" smooth="yes"/>
      <point x="624" y="-24"/>
      <point x="762" y="6"/>
      <point x="862" y="68" type="curve"/>
      <point x="926" y="195" type="line"/>
      <point x="921" y="204" type="line"/>
      <point x="800" y="137"/>
      <point x="664" y="108"/>
      <point x="541" y="108" type="curve" smooth="yes"/>
      <point x="359" y="108"/>
      <point x="236" y="186"/>
      <point x="236" y="338" type="curve" smooth="yes"/>
      <point x="236" y="541"/>
      <point x="437" y="623"/>
      <point x="661" y="623" type="curve" smooth="yes"/>
      <point x="750" y="623"/>
      <point x="809" y="621"/>
      <point x="847" y="617" type="curve"/>
      <point x="881" y="746" type="line"/>
      <point x="840" y="744"/>
      <point x="789" y="744"/>
      <point x="764" y="744" type="curve" smooth="yes"/>
      <point x="552" y="744"/>
      <point x="437" y="825"/>
      <point x="437" y="957" type="curve" smooth="yes"/>
      <point x="437" y="1111"/>
      <point x="571" y="1209"/>
      <point x="799" y="1209" type="curve" smooth="yes"/>
      <point x="904" y="1209"/>
      <point x="1018" y="1184"/>
      <point x="1107" y="1145" type="curve"/>
      <point x="1140" y="1264" type="line"/>
      <point x="1037" y="1314"/>
      <point x="912" y="1338"/>
      <point x="800" y="1338" type="curve" smooth="yes"/>
      <point x="472" y="1338"/>
      <point x="263" y="1185"/>
      <point x="263" y="968" type="curve" smooth="yes"/>
      <point x="263" y="856"/>
      <point x="328" y="761"/>
      <point x="451" y="718" type="curve"/>
      <point x="449" y="711" type="line"/>
      <point x="232" y="687"/>
      <point x="52" y="537"/>
      <point x="52" y="324" type="curve" smooth="yes"/>
      <point x="52" y="102"/>
      <point x="230" y="-24"/>
    </contour>
  </outline>
  <guideline angle="243.43" x="1079" y="469"/>
</glyph>
<glyph name="fhook" format="2">
  <advance width="595"/>
  <unicode hex="0192"/>
  <anchor x="-72" y="-419" name="bottom"/>
  <anchor x="626" y="1417" name="top"/>
  <anchor x="891" y="1417" name="topright"/>
  <outline>
    <contour>
      <point x="-294" y="-274" type="curve"/>
      <point x="-302" y="-278" type="line"/>
      <point x="-285" y="-388" type="line"/>
      <point x="-240" y="-414"/>
      <point x="-188" y="-428"/>
      <point x="-133" y="-428" type="curve" smooth="yes"/>
      <point x="26" y="-428"/>
      <point x="131" y="-322"/>
      <point x="185" y="-107" type="curve" smooth="yes"/>
      <point x="479" y="1065" type="line" smooth="yes"/>
      <point x="520" y="1227"/>
      <point x="600" y="1302"/>
      <point x="733" y="1302" type="curve" smooth="yes"/>
      <point x="775" y="1302"/>
      <point x="818" y="1294"/>
      <point x="857" y="1280" type="curve"/>
      <point x="887" y="1400" type="line"/>
      <point x="847" y="1418"/>
      <point x="783" y="1430"/>
      <point x="724" y="1430" type="curve" smooth="yes"/>
      <point x="507" y="1430"/>
      <point x="358" y="1290"/>
      <point x="292" y="1024" type="curve" smooth="yes"/>
      <point x="13" y="-99" type="line" smooth="yes"/>
      <point x="-27" y="-259"/>
      <point x="-72" y="-313"/>
      <point x="-168" y="-313" type="curve" smooth="yes"/>
      <point x="-213" y="-313"/>
      <point x="-258" y="-299"/>
    </contour>
    <contour>
      <point x="104" y="812" type="line"/>
      <point x="660" y="812" type="line"/>
      <point x="689" y="928" type="line"/>
      <point x="366" y="928" type="line"/>
      <point x="147" y="921" type="line"/>
    </contour>
  </outline>
</glyph>
<glyph name="GammaLatin" format="2">
  <advance width="1089"/>
  <unicode hex="0194"/>
  <anchor x="359" y="-419" name="bottom"/>
  <anchor x="725" y="1314" name="top"/>
  <anchor x="1346" y="1314" name="topright"/>
  <outline>
    <contour>
      <point x="361" y="-428" type="curve" smooth="yes"/>
      <point x="527" y="-428"/>
      <point x="646" y="-309"/>
      <point x="646" y="-145" type="curve" smooth="yes"/>
      <point x="646" y="-47"/>
      <point x="603" y="133"/>
      <point x="557" y="228" type="curve"/>
      <point x="534" y="110" type="line"/>
      <point x="1263" y="1314" type="line"/>
      <point x="1092" y="1314" type="line"/>
      <point x="534" y="369" type="line"/>
      <point x="525" y="369" type="line"/>
      <point x="410" y="1314" type="line"/>
      <point x="219" y="1314" type="line"/>
      <point x="393" y="166" type="line"/>
      <point x="431" y="109" type="line"/>
      <point x="458" y="43"/>
      <point x="483" y="-84"/>
      <point x="483" y="-150" type="curve" smooth="yes"/>
      <point x="483" y="-243"/>
      <point x="434" y="-307"/>
      <point x="363" y="-307" type="curve" smooth="yes"/>
      <point x="309" y="-307"/>
      <point x="277" y="-271"/>
      <point x="277" y="-211" type="curve" smooth="yes"/>
      <point x="277" y="-128"/>
      <point x="340" y="1"/>
      <point x="429" y="99" type="curve"/>
      <point x="508" y="99" type="line"/>
      <point x="415" y="239" type="line"/>
      <point x="244" y="90"/>
      <point x="138" y="-86"/>
      <point x="138" y="-223" type="curve" smooth="yes"/>
      <point x="138" y="-348"/>
      <point x="225" y="-428"/>
    </contour>
  </outline>
  <guideline angle="0" x="0" y="369"/>
  <guideline angle="0" x="0" y="99"/>
  <guideline angle="0" x="0" y="210"/>
</glyph>
<glyph name="IotaLatin" format="2">
  <advance width="623"/>
  <unicode hex="0196"/>
  <anchor x="252" y="0" name="bottom"/>
  <anchor x="457" y="1314" name="top"/>
  <outline>
    <contour>
      <point x="270" y="-22" type="curve" smooth="yes"/>
      <point x="338" y="-22"/>
      <point x="410" y="1"/>
      <point x="463" y="40" type="curve"/>
      <point x="522" y="161" type="line"/>
      <point x="516" y="167" type="line"/>
      <point x="452" y="126"/>
      <point x="407" y="111"/>
      <point x="356" y="111" type="curve" smooth="yes"/>
      <point x="298" y="111"/>
      <point x="270" y="132"/>
      <point x="270" y="184" type="curve" smooth="yes"/>
      <point x="270" y="205"/>
      <point x="274" y="223"/>
      <point x="285" y="268" type="curve" smooth="yes"/>
      <point x="545" y="1314" type="line"/>
      <point x="360" y="1314" type="line"/>
      <point x="93" y="240" type="line" smooth="yes"/>
      <point x="83" y="200"/>
      <point x="79" y="171"/>
      <point x="79" y="145" type="curve" smooth="yes"/>
      <point x="79" y="39"/>
      <point x="143" y="-22"/>
    </contour>
  </outline>
  <guideline angle="64.05" x="500" y="97"/>
</glyph>
<glyph name="Ibar" format="2">
  <advance width="594"/>
  <unicode hex="0197"/>
  <anchor x="173" y="0" name="bottom"/>
  <anchor x="507" y="1314" name="top"/>
  <outline>
    <contour>
      <point x="84" y="0" type="line"/>
      <point x="411" y="1314" type="line"/>
      <point x="596" y="1314" type="line"/>
      <point x="269" y="0" type="line"/>
    </contour>
    <contour>
      <point x="67" y="619" type="line"/>
      <point x="99" y="746" type="line"/>
      <point x="645" y="746" type="line"/>
      <point x="595" y="619" type="line"/>
    </contour>
  </outline>
</glyph>
<glyph name="lbar" format="2">
  <advance width="535"/>
  <unicode hex="019A"/>
  <anchor x="142" y="0" name="bottom"/>
  <anchor x="499" y="1417" name="top"/>
  <outline>
    <contour>
      <point x="230" y="0" type="line"/>
      <point x="586" y="1430" type="line"/>
      <point x="404" y="1402" type="line"/>
      <point x="54" y="0" type="line"/>
    </contour>
    <contour>
      <point x="545" y="644" type="line"/>
      <point x="592" y="764" type="line"/>
      <point x="91" y="764" type="line"/>
      <point x="61" y="644" type="line"/>
    </contour>
  </outline>
  <guideline angle="76" x="199" y="1223"/>
  <guideline angle="76" x="721" y="1223"/>
  <guideline angle="76" x="703" y="1223"/>
  <guideline angle="0" x="0" y="607"/>
  <guideline angle="0" x="0" y="921"/>
  <guideline angle="0" x="0" y="801"/>
  <guideline angle="0" x="0" y="487"/>
</glyph>
<glyph name="lambdabar" format="2">
  <advance width="964"/>
  <unicode hex="019B"/>
  <anchor x="610" y="1417" name="top"/>
  <anchor x="379" y="0" name="bottom"/>
  <outline>
    <contour>
      <point x="108" y="0" type="line"/>
      <point x="609" y="687" type="line"/>
      <point x="646" y="687" type="line"/>
      <point x="635" y="962" type="line"/>
      <point x="-101" y="0" type="line"/>
    </contour>
    <contour>
      <point x="948" y="999" type="line"/>
      <point x="1007" y="1138" type="line"/>
      <point x="335" y="999" type="line"/>
      <point x="303" y="867" type="line"/>
    </contour>
    <contour>
      <point x="836" y="0" type="line"/>
      <point x="708" y="1154" type="line" smooth="yes"/>
      <point x="687" y="1340"/>
      <point x="604" y="1430"/>
      <point x="455" y="1430" type="curve" smooth="yes"/>
      <point x="412" y="1430"/>
      <point x="369" y="1423"/>
      <point x="338" y="1410" type="curve"/>
      <point x="239" y="1249" type="line"/>
      <point x="248" y="1240" type="line"/>
      <point x="303" y="1260"/>
      <point x="358" y="1271"/>
      <point x="410" y="1271" type="curve" smooth="yes"/>
      <point x="521" y="1271"/>
      <point x="570" y="1221"/>
      <point x="583" y="1092" type="curve" smooth="yes"/>
      <point x="609" y="843" type="line"/>
      <point x="617" y="759" type="line"/>
      <point x="679" y="0" type="line"/>
    </contour>
  </outline>
  <guideline angle="247" x="885" y="840"/>
  <guideline angle="76" x="352" y="1045"/>
  <guideline angle="0" x="0" y="1138"/>
  <guideline angle="0" x="0" y="871"/>
</glyph>
<glyph name="Mturned" format="2">
  <advance width="1846"/>
  <unicode hex="019C"/>
  <anchor x="821" y="0" name="bottom"/>
  <anchor x="1149" y="1314" name="top"/>
  <anchor x="2053" y="1314" name="topright"/>
  <outline>
    <contour>
      <point x="354" y="1314" type="line"/>
      <point x="166" y="556" type="line" smooth="yes"/>
      <point x="144" y="466"/>
      <point x="132" y="388"/>
      <point x="132" y="321" type="curve" smooth="yes"/>
      <point x="132" y="99"/>
      <point x="258" y="-22"/>
      <point x="494" y="-22" type="curve" smooth="yes"/>
      <point x="672" y="-22"/>
      <point x="792" y="47"/>
      <point x="874" y="199" type="curve"/>
      <point x="849" y="199" type="line"/>
      <point x="888" y="57"/>
      <point x="1015" y="-22"/>
      <point x="1209" y="-22" type="curve" smooth="yes"/>
      <point x="1472" y="-22"/>
      <point x="1607" y="125"/>
      <point x="1709" y="532" type="curve" smooth="yes"/>
      <point x="1905" y="1314" type="line"/>
      <point x="1758" y="1314" type="line"/>
      <point x="1564" y="535" type="line" smooth="yes"/>
      <point x="1481" y="203"/>
      <point x="1399" y="101"/>
      <point x="1224" y="101" type="curve" smooth="yes"/>
      <point x="1080" y="101"/>
      <point x="1018" y="168"/>
      <point x="1018" y="317" type="curve" smooth="yes"/>
      <point x="1018" y="384"/>
      <point x="1031" y="466"/>
      <point x="1057" y="572" type="curve" smooth="yes"/>
      <point x="1241" y="1314" type="line"/>
      <point x="1056" y="1314" type="line"/>
      <point x="863" y="535" type="line" smooth="yes"/>
      <point x="781" y="204"/>
      <point x="698" y="101"/>
      <point x="522" y="101" type="curve" smooth="yes"/>
      <point x="378" y="101"/>
      <point x="316" y="168"/>
      <point x="316" y="317" type="curve" smooth="yes"/>
      <point x="316" y="384"/>
      <point x="329" y="466"/>
      <point x="355" y="572" type="curve" smooth="yes"/>
      <point x="539" y="1314" type="line"/>
    </contour>
  </outline>
  <guideline angle="0" x="0" y="101"/>
  <guideline angle="76" x="1149" y="1314"/>
  <guideline angle="90" x="803" y="0"/>
</glyph>
<glyph name="Obar" format="2">
  <advance width="1434"/>
  <unicode hex="019F"/>
  <anchor x="630" y="0" name="bottom"/>
  <anchor x="903" y="1314" name="top"/>
  <anchor x="1541" y="1314" name="topright"/>
  <outline>
    <contour>
      <point x="119" y="510" type="curve" smooth="yes"/>
      <point x="119" y="177"/>
      <point x="319" y="-24"/>
      <point x="652" y="-24" type="curve" smooth="yes"/>
      <point x="1069" y="-24"/>
      <point x="1401" y="345"/>
      <point x="1401" y="810" type="curve" smooth="yes"/>
      <point x="1401" y="1140"/>
      <point x="1204" y="1338"/>
      <point x="875" y="1338" type="curve" smooth="yes"/>
      <point x="454" y="1338"/>
      <point x="119" y="971"/>
    </contour>
    <contour>
      <point x="653" y="101" type="curve" smooth="yes"/>
      <point x="438" y="101"/>
      <point x="308" y="250"/>
      <point x="308" y="505" type="curve" smooth="yes"/>
      <point x="308" y="896"/>
      <point x="562" y="1213"/>
      <point x="873" y="1213" type="curve" smooth="yes"/>
      <point x="1089" y="1213"/>
      <point x="1211" y="1072"/>
      <point x="1211" y="817" type="curve" smooth="yes"/>
      <point x="1211" y="424"/>
      <point x="958" y="101"/>
    </contour>
    <contour>
      <point x="1239" y="732" type="line"/>
      <point x="301" y="732" type="line"/>
      <point x="277" y="605" type="line"/>
      <point x="1219" y="605" type="line"/>
    </contour>
  </outline>
</glyph>
